M48
; DRILL file {KiCad 5.1.5} date Mon 11 May 2020 05:48:06 PM CEST
; FORMAT={-:-/ absolute / inch / decimal}
; #@! TF.CreationDate,2020-05-11T17:48:06+02:00
; #@! TF.GenerationSoftware,Kicad,Pcbnew,5.1.5
; #@! TF.FileFunction,Plated,1,2,PTH
FMAT,2
INCH
T1C0.0157
T2C0.0295
T3C0.0315
T4C0.0394
T5C0.0433
T6C0.0472
T7C0.0512
T8C0.0551
%
G90
G05
T1
X1.95Y-3.65
X1.95Y-3.9
X1.95Y-3.95
X1.95Y-4.0
X1.95Y-4.05
X1.95Y-4.1
X1.95Y-4.15
X1.95Y-4.2
X1.95Y-4.25
X2.0Y-3.95
X2.0Y-4.0
X2.0Y-4.05
X2.0Y-4.1
X2.0Y-4.15
X2.0Y-4.2
X2.0Y-4.25
X2.05Y-3.95
X2.05Y-4.0
X2.05Y-4.3
X2.1Y-3.95
X2.1Y-4.0
X2.1Y-4.3
X2.1112Y-5.1714
X2.15Y-4.3
X2.165Y-5.135
X2.2Y-3.65
X2.2Y-3.9
X2.2244Y-4.7047
X2.24Y-5.32
X2.25Y-3.65
X2.25Y-3.7
X2.25Y-3.75
X2.25Y-3.8
X2.25Y-3.85
X2.25Y-3.9
X2.25Y-3.95
X2.25Y-4.0
X2.25Y-4.5
X2.25Y-4.55
X2.25Y-4.6
X2.25Y-4.65
X2.3Y-3.65
X2.3Y-3.7
X2.3Y-3.75
X2.3Y-3.8
X2.3Y-3.85
X2.3Y-3.9
X2.3Y-3.95
X2.3Y-4.0
X2.3Y-4.5
X2.3Y-4.55
X2.3Y-4.64
X2.35Y-3.65
X2.35Y-3.7
X2.35Y-3.75
X2.35Y-3.85
X2.35Y-3.9
X2.35Y-3.95
X2.35Y-4.0
X2.35Y-4.05
X2.35Y-4.1
X2.35Y-4.8
X2.38Y-4.535
X2.4Y-3.65
X2.4Y-3.7
X2.4Y-3.75
X2.4Y-3.85
X2.4Y-3.9
X2.4Y-3.95
X2.4Y-4.0
X2.4Y-4.05
X2.4Y-4.1
X2.4Y-4.8
X2.45Y-3.65
X2.45Y-3.7
X2.45Y-4.8
X2.46Y-4.52
X2.5Y-3.65
X2.5Y-3.7
X2.5Y-4.8
X2.5375Y-4.3425
X2.5378Y-5.1178
X2.55Y-3.65
X2.55Y-3.7
X2.55Y-4.75
X2.55Y-4.8
X2.58Y-5.32
X2.6Y-3.65
X2.6Y-3.7
X2.6Y-4.3
X2.6Y-4.75
X2.6Y-4.8
X2.618Y-4.908
X2.65Y-3.65
X2.65Y-3.7
X2.65Y-4.7
X2.65Y-4.75
X2.65Y-4.8
X2.695Y-5.115
X2.7Y-3.65
X2.7Y-3.7
X2.7Y-4.55
X2.7Y-4.6
X2.7Y-4.7
X2.7Y-4.75
X2.7Y-4.8
X2.75Y-3.65
X2.75Y-3.7
X2.75Y-3.9
X2.75Y-3.95
X2.75Y-4.0
X2.75Y-4.05
X2.75Y-4.5
X2.75Y-4.55
X2.75Y-4.6
X2.75Y-4.7
X2.75Y-4.75
X2.75Y-4.8
X2.76Y-5.31
X2.8Y-3.65
X2.8Y-3.7
X2.8Y-3.75
X2.8Y-3.8
X2.8Y-5.58
X2.85Y-3.65
X2.85Y-3.7
X2.85Y-3.75
X2.85Y-3.8
X2.855Y-5.07
X2.86Y-5.275
X2.9Y-3.65
X2.9Y-3.7
X2.9Y-4.2
X2.9Y-4.25
X2.9Y-4.4
X2.9Y-4.45
X2.9Y-4.5
X2.9Y-4.55
X2.9Y-4.6
X2.915Y-4.64
X2.934Y-5.244
X2.95Y-4.2
X2.95Y-4.25
X2.95Y-4.4
X2.95Y-4.45
X2.95Y-4.5
X2.95Y-4.55
X2.95Y-4.6
X3.0Y-4.0
X3.0Y-4.15
X3.0Y-4.65
X3.0Y-4.7
X3.0Y-4.75
X3.0Y-4.8
X3.05Y-4.4
X3.1Y-4.4
X3.1Y-4.85
X3.1Y-4.9
X3.15Y-3.65
X3.15Y-3.7
X3.15Y-3.85
X3.15Y-3.9
X3.15Y-3.95
X3.15Y-4.0
X3.15Y-4.4
X3.15Y-5.4
X3.2Y-4.15
X3.2Y-4.2
X3.2Y-4.25
X3.2Y-4.45
X3.2Y-4.5
X3.2Y-4.55
X3.2Y-4.6
X3.2Y-5.45
X3.2Y-5.5
X3.2Y-5.55
X3.25Y-4.15
X3.25Y-4.2
X3.25Y-4.45
X3.25Y-4.5
X3.25Y-4.55
X3.25Y-4.75
X3.25Y-4.8
X3.25Y-4.85
X3.25Y-5.3
X3.25Y-5.35
X3.25Y-5.5
X3.25Y-5.55
X3.3Y-4.15
X3.3Y-4.45
X3.3Y-4.5
X3.3Y-4.55
X3.3Y-4.7
X3.3Y-4.75
X3.3Y-4.8
X3.3Y-4.85
X3.3Y-5.3
X3.3Y-5.35
X3.3Y-5.4
X3.335Y-4.235
X3.35Y-4.0
X3.35Y-4.5
X3.35Y-4.55
X3.35Y-4.8
X3.35Y-5.35
X3.4Y-3.65
X3.4Y-3.7
T2
X3.3625Y-5.5156
X3.4125Y-5.4656
X3.4625Y-5.5156
X3.3625Y-5.2331
X3.4125Y-5.1831
X3.4625Y-5.2331
X3.3625Y-4.3906
X3.4125Y-4.3406
X3.4625Y-4.3906
X3.3625Y-4.6656
X3.4125Y-4.6156
X3.4625Y-4.6656
X3.3558Y-4.9576
X3.4058Y-4.9076
X3.4558Y-4.9576
T3
X3.09Y-4.7731
X3.09Y-4.97
T4
X2.4803Y-4.16
X2.5803Y-4.16
X2.6803Y-4.16
X4.2701Y-4.3744
X4.2701Y-4.4744
X4.2701Y-4.5744
X4.2701Y-4.6744
X4.2701Y-4.7744
X4.2701Y-4.8744
X4.4701Y-4.3744
X4.4701Y-4.4744
X4.4701Y-4.5744
X4.4701Y-4.6744
X4.4701Y-4.7744
X4.4701Y-4.8744
X2.48Y-3.8
X2.58Y-3.8
X2.68Y-3.8
X4.2463Y-5.4665
X4.325Y-5.2431
X4.325Y-5.44
X4.4037Y-5.2167
X2.12Y-4.1
X2.22Y-4.1
T5
X3.7375Y-4.9656
X3.8375Y-4.9656
X3.9375Y-4.9656
X3.7375Y-5.5156
X3.8375Y-5.5156
X3.9375Y-5.5156
X3.7375Y-5.2406
X3.8375Y-5.2406
X3.9375Y-5.2406
X3.7375Y-4.3906
X3.8375Y-4.3906
X3.9375Y-4.3906
X3.7375Y-4.6656
X3.8375Y-4.6656
X3.9375Y-4.6656
X2.36Y-5.42
X2.46Y-5.42
X2.56Y-5.42
T6
X3.7Y-4.16
X4.3Y-4.16
T7
X3.563Y-3.8583
X4.4488Y-3.8583
T8
X3.06Y-3.9
X3.26Y-3.9
T0
M30
