G04 #@! TF.GenerationSoftware,KiCad,Pcbnew,5.1.5*
G04 #@! TF.CreationDate,2020-05-11T17:48:03+02:00*
G04 #@! TF.ProjectId,esp-12_led_strip_controller,6573702d-3132-45f6-9c65-645f73747269,rev?*
G04 #@! TF.SameCoordinates,Original*
G04 #@! TF.FileFunction,Legend,Top*
G04 #@! TF.FilePolarity,Positive*
%FSLAX46Y46*%
G04 Gerber Fmt 4.6, Leading zero omitted, Abs format (unit mm)*
G04 Created by KiCad (PCBNEW 5.1.5) date 2020-05-11 17:48:03*
%MOMM*%
%LPD*%
G04 APERTURE LIST*
%ADD10C,0.150000*%
%ADD11C,0.300000*%
%ADD12C,0.120000*%
%ADD13C,0.100000*%
G04 APERTURE END LIST*
D10*
X116320285Y-101402571D02*
X115606000Y-101402571D01*
X115606000Y-99902571D01*
X116820285Y-100616857D02*
X117320285Y-100616857D01*
X117534571Y-101402571D02*
X116820285Y-101402571D01*
X116820285Y-99902571D01*
X117534571Y-99902571D01*
X118177428Y-101402571D02*
X118177428Y-99902571D01*
X118534571Y-99902571D01*
X118748857Y-99974000D01*
X118891714Y-100116857D01*
X118963142Y-100259714D01*
X119034571Y-100545428D01*
X119034571Y-100759714D01*
X118963142Y-101045428D01*
X118891714Y-101188285D01*
X118748857Y-101331142D01*
X118534571Y-101402571D01*
X118177428Y-101402571D01*
X115498857Y-103731142D02*
X115713142Y-103802571D01*
X116070285Y-103802571D01*
X116213142Y-103731142D01*
X116284571Y-103659714D01*
X116356000Y-103516857D01*
X116356000Y-103374000D01*
X116284571Y-103231142D01*
X116213142Y-103159714D01*
X116070285Y-103088285D01*
X115784571Y-103016857D01*
X115641714Y-102945428D01*
X115570285Y-102874000D01*
X115498857Y-102731142D01*
X115498857Y-102588285D01*
X115570285Y-102445428D01*
X115641714Y-102374000D01*
X115784571Y-102302571D01*
X116141714Y-102302571D01*
X116356000Y-102374000D01*
X116784571Y-102802571D02*
X117356000Y-102802571D01*
X116998857Y-102302571D02*
X116998857Y-103588285D01*
X117070285Y-103731142D01*
X117213142Y-103802571D01*
X117356000Y-103802571D01*
X117856000Y-103802571D02*
X117856000Y-102802571D01*
X117856000Y-103088285D02*
X117927428Y-102945428D01*
X117998857Y-102874000D01*
X118141714Y-102802571D01*
X118284571Y-102802571D01*
X118784571Y-103802571D02*
X118784571Y-102802571D01*
X118784571Y-102302571D02*
X118713142Y-102374000D01*
X118784571Y-102445428D01*
X118856000Y-102374000D01*
X118784571Y-102302571D01*
X118784571Y-102445428D01*
X119498857Y-102802571D02*
X119498857Y-104302571D01*
X119498857Y-102874000D02*
X119641714Y-102802571D01*
X119927428Y-102802571D01*
X120070285Y-102874000D01*
X120141714Y-102945428D01*
X120213142Y-103088285D01*
X120213142Y-103516857D01*
X120141714Y-103659714D01*
X120070285Y-103731142D01*
X119927428Y-103802571D01*
X119641714Y-103802571D01*
X119498857Y-103731142D01*
X115641714Y-105202571D02*
X116213142Y-105202571D01*
X115856000Y-106202571D02*
X115856000Y-104916857D01*
X115927428Y-104774000D01*
X116070285Y-104702571D01*
X116213142Y-104702571D01*
X117356000Y-105202571D02*
X117356000Y-106202571D01*
X116713142Y-105202571D02*
X116713142Y-105988285D01*
X116784571Y-106131142D01*
X116927428Y-106202571D01*
X117141714Y-106202571D01*
X117284571Y-106131142D01*
X117356000Y-106059714D01*
X117998857Y-106131142D02*
X118141714Y-106202571D01*
X118427428Y-106202571D01*
X118570285Y-106131142D01*
X118641714Y-105988285D01*
X118641714Y-105916857D01*
X118570285Y-105774000D01*
X118427428Y-105702571D01*
X118213142Y-105702571D01*
X118070285Y-105631142D01*
X117998857Y-105488285D01*
X117998857Y-105416857D01*
X118070285Y-105274000D01*
X118213142Y-105202571D01*
X118427428Y-105202571D01*
X118570285Y-105274000D01*
X119856000Y-106131142D02*
X119713142Y-106202571D01*
X119427428Y-106202571D01*
X119284571Y-106131142D01*
X119213142Y-105988285D01*
X119213142Y-105416857D01*
X119284571Y-105274000D01*
X119427428Y-105202571D01*
X119713142Y-105202571D01*
X119856000Y-105274000D01*
X119927428Y-105416857D01*
X119927428Y-105559714D01*
X119213142Y-105702571D01*
D11*
X68516571Y-138283142D02*
X69659428Y-138283142D01*
X69088000Y-138854571D02*
X69088000Y-137711714D01*
X73088571Y-136759142D02*
X74231428Y-136759142D01*
X73660000Y-137330571D02*
X73660000Y-136187714D01*
D10*
X82383428Y-94150571D02*
X81526285Y-94150571D01*
X81954857Y-94150571D02*
X81954857Y-92650571D01*
X81812000Y-92864857D01*
X81669142Y-93007714D01*
X81526285Y-93079142D01*
X82954857Y-92793428D02*
X83026285Y-92722000D01*
X83169142Y-92650571D01*
X83526285Y-92650571D01*
X83669142Y-92722000D01*
X83740571Y-92793428D01*
X83812000Y-92936285D01*
X83812000Y-93079142D01*
X83740571Y-93293428D01*
X82883428Y-94150571D01*
X83812000Y-94150571D01*
X84240571Y-92650571D02*
X84740571Y-94150571D01*
X85240571Y-92650571D01*
X76073142Y-92722000D02*
X75930285Y-92650571D01*
X75716000Y-92650571D01*
X75501714Y-92722000D01*
X75358857Y-92864857D01*
X75287428Y-93007714D01*
X75216000Y-93293428D01*
X75216000Y-93507714D01*
X75287428Y-93793428D01*
X75358857Y-93936285D01*
X75501714Y-94079142D01*
X75716000Y-94150571D01*
X75858857Y-94150571D01*
X76073142Y-94079142D01*
X76144571Y-94007714D01*
X76144571Y-93507714D01*
X75858857Y-93507714D01*
X76787428Y-94150571D02*
X76787428Y-92650571D01*
X77644571Y-94150571D01*
X77644571Y-92650571D01*
X78358857Y-94150571D02*
X78358857Y-92650571D01*
X78716000Y-92650571D01*
X78930285Y-92722000D01*
X79073142Y-92864857D01*
X79144571Y-93007714D01*
X79216000Y-93293428D01*
X79216000Y-93507714D01*
X79144571Y-93793428D01*
X79073142Y-93936285D01*
X78930285Y-94079142D01*
X78716000Y-94150571D01*
X78358857Y-94150571D01*
X114947428Y-131488571D02*
X114233142Y-131488571D01*
X114233142Y-129988571D01*
X115447428Y-130702857D02*
X115947428Y-130702857D01*
X116161714Y-131488571D02*
X115447428Y-131488571D01*
X115447428Y-129988571D01*
X116161714Y-129988571D01*
X116804571Y-131488571D02*
X116804571Y-129988571D01*
X117161714Y-129988571D01*
X117376000Y-130060000D01*
X117518857Y-130202857D01*
X117590285Y-130345714D01*
X117661714Y-130631428D01*
X117661714Y-130845714D01*
X117590285Y-131131428D01*
X117518857Y-131274285D01*
X117376000Y-131417142D01*
X117161714Y-131488571D01*
X116804571Y-131488571D01*
X119376000Y-131417142D02*
X119590285Y-131488571D01*
X119947428Y-131488571D01*
X120090285Y-131417142D01*
X120161714Y-131345714D01*
X120233142Y-131202857D01*
X120233142Y-131060000D01*
X120161714Y-130917142D01*
X120090285Y-130845714D01*
X119947428Y-130774285D01*
X119661714Y-130702857D01*
X119518857Y-130631428D01*
X119447428Y-130560000D01*
X119376000Y-130417142D01*
X119376000Y-130274285D01*
X119447428Y-130131428D01*
X119518857Y-130060000D01*
X119661714Y-129988571D01*
X120018857Y-129988571D01*
X120233142Y-130060000D01*
X120661714Y-130488571D02*
X121233142Y-130488571D01*
X120876000Y-129988571D02*
X120876000Y-131274285D01*
X120947428Y-131417142D01*
X121090285Y-131488571D01*
X121233142Y-131488571D01*
X121733142Y-131488571D02*
X121733142Y-130488571D01*
X121733142Y-130774285D02*
X121804571Y-130631428D01*
X121876000Y-130560000D01*
X122018857Y-130488571D01*
X122161714Y-130488571D01*
X122661714Y-131488571D02*
X122661714Y-130488571D01*
X122661714Y-129988571D02*
X122590285Y-130060000D01*
X122661714Y-130131428D01*
X122733142Y-130060000D01*
X122661714Y-129988571D01*
X122661714Y-130131428D01*
X123376000Y-130488571D02*
X123376000Y-131988571D01*
X123376000Y-130560000D02*
X123518857Y-130488571D01*
X123804571Y-130488571D01*
X123947428Y-130560000D01*
X124018857Y-130631428D01*
X124090285Y-130774285D01*
X124090285Y-131202857D01*
X124018857Y-131345714D01*
X123947428Y-131417142D01*
X123804571Y-131488571D01*
X123518857Y-131488571D01*
X123376000Y-131417142D01*
X120158095Y-111595285D02*
X120920000Y-111595285D01*
X120539047Y-112204809D02*
X120539047Y-110985761D01*
X121920000Y-112204809D02*
X121348571Y-112204809D01*
X121634285Y-112204809D02*
X121634285Y-110604809D01*
X121539047Y-110833380D01*
X121443809Y-110985761D01*
X121348571Y-111061952D01*
X122300952Y-110757190D02*
X122348571Y-110681000D01*
X122443809Y-110604809D01*
X122681904Y-110604809D01*
X122777142Y-110681000D01*
X122824761Y-110757190D01*
X122872380Y-110909571D01*
X122872380Y-111061952D01*
X122824761Y-111290523D01*
X122253333Y-112204809D01*
X122872380Y-112204809D01*
X123158095Y-110604809D02*
X123491428Y-112204809D01*
X123824761Y-110604809D01*
X121229523Y-114602428D02*
X121181904Y-114678619D01*
X121039047Y-114754809D01*
X120943809Y-114754809D01*
X120800952Y-114678619D01*
X120705714Y-114526238D01*
X120658095Y-114373857D01*
X120610476Y-114069095D01*
X120610476Y-113840523D01*
X120658095Y-113535761D01*
X120705714Y-113383380D01*
X120800952Y-113231000D01*
X120943809Y-113154809D01*
X121039047Y-113154809D01*
X121181904Y-113231000D01*
X121229523Y-113307190D01*
X121658095Y-114754809D02*
X121658095Y-113154809D01*
X121658095Y-113916714D02*
X122229523Y-113916714D01*
X122229523Y-114754809D02*
X122229523Y-113154809D01*
X123134285Y-113688142D02*
X123134285Y-114754809D01*
X122896190Y-113078619D02*
X122658095Y-114221476D01*
X123277142Y-114221476D01*
X121229523Y-117152428D02*
X121181904Y-117228619D01*
X121039047Y-117304809D01*
X120943809Y-117304809D01*
X120800952Y-117228619D01*
X120705714Y-117076238D01*
X120658095Y-116923857D01*
X120610476Y-116619095D01*
X120610476Y-116390523D01*
X120658095Y-116085761D01*
X120705714Y-115933380D01*
X120800952Y-115781000D01*
X120943809Y-115704809D01*
X121039047Y-115704809D01*
X121181904Y-115781000D01*
X121229523Y-115857190D01*
X121658095Y-117304809D02*
X121658095Y-115704809D01*
X121658095Y-116466714D02*
X122229523Y-116466714D01*
X122229523Y-117304809D02*
X122229523Y-115704809D01*
X123181904Y-115704809D02*
X122705714Y-115704809D01*
X122658095Y-116466714D01*
X122705714Y-116390523D01*
X122800952Y-116314333D01*
X123039047Y-116314333D01*
X123134285Y-116390523D01*
X123181904Y-116466714D01*
X123229523Y-116619095D01*
X123229523Y-117000047D01*
X123181904Y-117152428D01*
X123134285Y-117228619D01*
X123039047Y-117304809D01*
X122800952Y-117304809D01*
X122705714Y-117228619D01*
X122658095Y-117152428D01*
X120753333Y-119702428D02*
X120705714Y-119778619D01*
X120562857Y-119854809D01*
X120467619Y-119854809D01*
X120324761Y-119778619D01*
X120229523Y-119626238D01*
X120181904Y-119473857D01*
X120134285Y-119169095D01*
X120134285Y-118940523D01*
X120181904Y-118635761D01*
X120229523Y-118483380D01*
X120324761Y-118331000D01*
X120467619Y-118254809D01*
X120562857Y-118254809D01*
X120705714Y-118331000D01*
X120753333Y-118407190D01*
X121181904Y-119854809D02*
X121181904Y-118254809D01*
X121181904Y-119016714D02*
X121753333Y-119016714D01*
X121753333Y-119854809D02*
X121753333Y-118254809D01*
X122753333Y-119854809D02*
X122181904Y-119854809D01*
X122467619Y-119854809D02*
X122467619Y-118254809D01*
X122372380Y-118483380D01*
X122277142Y-118635761D01*
X122181904Y-118711952D01*
X123134285Y-118407190D02*
X123181904Y-118331000D01*
X123277142Y-118254809D01*
X123515238Y-118254809D01*
X123610476Y-118331000D01*
X123658095Y-118407190D01*
X123705714Y-118559571D01*
X123705714Y-118711952D01*
X123658095Y-118940523D01*
X123086666Y-119854809D01*
X123705714Y-119854809D01*
X120753333Y-122252428D02*
X120705714Y-122328619D01*
X120562857Y-122404809D01*
X120467619Y-122404809D01*
X120324761Y-122328619D01*
X120229523Y-122176238D01*
X120181904Y-122023857D01*
X120134285Y-121719095D01*
X120134285Y-121490523D01*
X120181904Y-121185761D01*
X120229523Y-121033380D01*
X120324761Y-120881000D01*
X120467619Y-120804809D01*
X120562857Y-120804809D01*
X120705714Y-120881000D01*
X120753333Y-120957190D01*
X121181904Y-122404809D02*
X121181904Y-120804809D01*
X121181904Y-121566714D02*
X121753333Y-121566714D01*
X121753333Y-122404809D02*
X121753333Y-120804809D01*
X122753333Y-122404809D02*
X122181904Y-122404809D01*
X122467619Y-122404809D02*
X122467619Y-120804809D01*
X122372380Y-121033380D01*
X122277142Y-121185761D01*
X122181904Y-121261952D01*
X123086666Y-120804809D02*
X123705714Y-120804809D01*
X123372380Y-121414333D01*
X123515238Y-121414333D01*
X123610476Y-121490523D01*
X123658095Y-121566714D01*
X123705714Y-121719095D01*
X123705714Y-122100047D01*
X123658095Y-122252428D01*
X123610476Y-122328619D01*
X123515238Y-122404809D01*
X123229523Y-122404809D01*
X123134285Y-122328619D01*
X123086666Y-122252428D01*
X120753333Y-124802428D02*
X120705714Y-124878619D01*
X120562857Y-124954809D01*
X120467619Y-124954809D01*
X120324761Y-124878619D01*
X120229523Y-124726238D01*
X120181904Y-124573857D01*
X120134285Y-124269095D01*
X120134285Y-124040523D01*
X120181904Y-123735761D01*
X120229523Y-123583380D01*
X120324761Y-123431000D01*
X120467619Y-123354809D01*
X120562857Y-123354809D01*
X120705714Y-123431000D01*
X120753333Y-123507190D01*
X121181904Y-124954809D02*
X121181904Y-123354809D01*
X121181904Y-124116714D02*
X121753333Y-124116714D01*
X121753333Y-124954809D02*
X121753333Y-123354809D01*
X122753333Y-124954809D02*
X122181904Y-124954809D01*
X122467619Y-124954809D02*
X122467619Y-123354809D01*
X122372380Y-123583380D01*
X122277142Y-123735761D01*
X122181904Y-123811952D01*
X123610476Y-123888142D02*
X123610476Y-124954809D01*
X123372380Y-123278619D02*
X123134285Y-124421476D01*
X123753333Y-124421476D01*
X66210571Y-101342000D02*
X65496285Y-101842000D01*
X66210571Y-102199142D02*
X64710571Y-102199142D01*
X64710571Y-101627714D01*
X64782000Y-101484857D01*
X64853428Y-101413428D01*
X64996285Y-101342000D01*
X65210571Y-101342000D01*
X65353428Y-101413428D01*
X65424857Y-101484857D01*
X65496285Y-101627714D01*
X65496285Y-102199142D01*
X64710571Y-100842000D02*
X66210571Y-99842000D01*
X64710571Y-99842000D02*
X66210571Y-100842000D01*
X62170571Y-102234857D02*
X62170571Y-101377714D01*
X63670571Y-101806285D02*
X62170571Y-101806285D01*
X62170571Y-101020571D02*
X63670571Y-100020571D01*
X62170571Y-100020571D02*
X63670571Y-101020571D01*
X67322000Y-102234857D02*
X67250571Y-102377714D01*
X67250571Y-102592000D01*
X67322000Y-102806285D01*
X67464857Y-102949142D01*
X67607714Y-103020571D01*
X67893428Y-103092000D01*
X68107714Y-103092000D01*
X68393428Y-103020571D01*
X68536285Y-102949142D01*
X68679142Y-102806285D01*
X68750571Y-102592000D01*
X68750571Y-102449142D01*
X68679142Y-102234857D01*
X68607714Y-102163428D01*
X68107714Y-102163428D01*
X68107714Y-102449142D01*
X68750571Y-101520571D02*
X67250571Y-101520571D01*
X68750571Y-100663428D01*
X67250571Y-100663428D01*
X68750571Y-99949142D02*
X67250571Y-99949142D01*
X67250571Y-99592000D01*
X67322000Y-99377714D01*
X67464857Y-99234857D01*
X67607714Y-99163428D01*
X67893428Y-99092000D01*
X68107714Y-99092000D01*
X68393428Y-99163428D01*
X68536285Y-99234857D01*
X68679142Y-99377714D01*
X68750571Y-99592000D01*
X68750571Y-99949142D01*
X52185428Y-108374571D02*
X52185428Y-106874571D01*
X52756857Y-106874571D01*
X52899714Y-106946000D01*
X52971142Y-107017428D01*
X53042571Y-107160285D01*
X53042571Y-107374571D01*
X52971142Y-107517428D01*
X52899714Y-107588857D01*
X52756857Y-107660285D01*
X52185428Y-107660285D01*
X54542571Y-108374571D02*
X54042571Y-107660285D01*
X53685428Y-108374571D02*
X53685428Y-106874571D01*
X54256857Y-106874571D01*
X54399714Y-106946000D01*
X54471142Y-107017428D01*
X54542571Y-107160285D01*
X54542571Y-107374571D01*
X54471142Y-107517428D01*
X54399714Y-107588857D01*
X54256857Y-107660285D01*
X53685428Y-107660285D01*
X55471142Y-106874571D02*
X55756857Y-106874571D01*
X55899714Y-106946000D01*
X56042571Y-107088857D01*
X56114000Y-107374571D01*
X56114000Y-107874571D01*
X56042571Y-108160285D01*
X55899714Y-108303142D01*
X55756857Y-108374571D01*
X55471142Y-108374571D01*
X55328285Y-108303142D01*
X55185428Y-108160285D01*
X55114000Y-107874571D01*
X55114000Y-107374571D01*
X55185428Y-107088857D01*
X55328285Y-106946000D01*
X55471142Y-106874571D01*
X57542571Y-106946000D02*
X57399714Y-106874571D01*
X57185428Y-106874571D01*
X56971142Y-106946000D01*
X56828285Y-107088857D01*
X56756857Y-107231714D01*
X56685428Y-107517428D01*
X56685428Y-107731714D01*
X56756857Y-108017428D01*
X56828285Y-108160285D01*
X56971142Y-108303142D01*
X57185428Y-108374571D01*
X57328285Y-108374571D01*
X57542571Y-108303142D01*
X57614000Y-108231714D01*
X57614000Y-107731714D01*
X57328285Y-107731714D01*
X60607142Y-108398571D02*
X60607142Y-109612857D01*
X60678571Y-109755714D01*
X60750000Y-109827142D01*
X60892857Y-109898571D01*
X61178571Y-109898571D01*
X61321428Y-109827142D01*
X61392857Y-109755714D01*
X61464285Y-109612857D01*
X61464285Y-108398571D01*
X62107142Y-109470000D02*
X62821428Y-109470000D01*
X61964285Y-109898571D02*
X62464285Y-108398571D01*
X62964285Y-109898571D01*
X64321428Y-109898571D02*
X63821428Y-109184285D01*
X63464285Y-109898571D02*
X63464285Y-108398571D01*
X64035714Y-108398571D01*
X64178571Y-108470000D01*
X64250000Y-108541428D01*
X64321428Y-108684285D01*
X64321428Y-108898571D01*
X64250000Y-109041428D01*
X64178571Y-109112857D01*
X64035714Y-109184285D01*
X63464285Y-109184285D01*
X64750000Y-108398571D02*
X65607142Y-108398571D01*
X65178571Y-109898571D02*
X65178571Y-108398571D01*
X67107142Y-108398571D02*
X68035714Y-108398571D01*
X67535714Y-108970000D01*
X67750000Y-108970000D01*
X67892857Y-109041428D01*
X67964285Y-109112857D01*
X68035714Y-109255714D01*
X68035714Y-109612857D01*
X67964285Y-109755714D01*
X67892857Y-109827142D01*
X67750000Y-109898571D01*
X67321428Y-109898571D01*
X67178571Y-109827142D01*
X67107142Y-109755714D01*
X68678571Y-109755714D02*
X68750000Y-109827142D01*
X68678571Y-109898571D01*
X68607142Y-109827142D01*
X68678571Y-109755714D01*
X68678571Y-109898571D01*
X69250000Y-108398571D02*
X70178571Y-108398571D01*
X69678571Y-108970000D01*
X69892857Y-108970000D01*
X70035714Y-109041428D01*
X70107142Y-109112857D01*
X70178571Y-109255714D01*
X70178571Y-109612857D01*
X70107142Y-109755714D01*
X70035714Y-109827142D01*
X69892857Y-109898571D01*
X69464285Y-109898571D01*
X69321428Y-109827142D01*
X69250000Y-109755714D01*
X70607142Y-108398571D02*
X71107142Y-109898571D01*
X71607142Y-108398571D01*
D12*
X90168000Y-132303733D02*
X90168000Y-132646267D01*
X91188000Y-132303733D02*
X91188000Y-132646267D01*
X90168000Y-117797733D02*
X90168000Y-118140267D01*
X91188000Y-117797733D02*
X91188000Y-118140267D01*
X90168000Y-139415733D02*
X90168000Y-139758267D01*
X91188000Y-139415733D02*
X91188000Y-139758267D01*
X90168000Y-125191733D02*
X90168000Y-125534267D01*
X91188000Y-125191733D02*
X91188000Y-125534267D01*
X60633000Y-140938000D02*
X60633000Y-139428000D01*
X64334000Y-140938000D02*
X64334000Y-139428000D01*
X67604000Y-139428000D02*
X57364000Y-139428000D01*
X57364000Y-140938000D02*
X57364000Y-136297000D01*
X67604000Y-140938000D02*
X67604000Y-136297000D01*
X67604000Y-136297000D02*
X57364000Y-136297000D01*
X67604000Y-140938000D02*
X57364000Y-140938000D01*
X63187733Y-134618000D02*
X63530267Y-134618000D01*
X63187733Y-135638000D02*
X63530267Y-135638000D01*
X59240267Y-134618000D02*
X58897733Y-134618000D01*
X59240267Y-135638000D02*
X58897733Y-135638000D01*
X114870000Y-125080000D02*
X113540000Y-125080000D01*
X114870000Y-123750000D02*
X114870000Y-125080000D01*
X114870000Y-122540000D02*
X107190000Y-122540000D01*
X107190000Y-122540000D02*
X107190000Y-109780000D01*
X114870000Y-122540000D02*
X114870000Y-109780000D01*
X114870000Y-109780000D02*
X107190000Y-109780000D01*
D13*
X116640000Y-127990000D02*
X116640000Y-110020000D01*
X116640000Y-127990000D02*
X105450000Y-127990000D01*
X118340000Y-127990000D02*
X116640000Y-127990000D01*
X118340000Y-110020000D02*
X118340000Y-127990000D01*
X118340000Y-110020000D02*
X105450000Y-110020000D01*
X105450000Y-110020000D02*
X105450000Y-127990000D01*
D12*
X118340000Y-127990000D02*
X116640000Y-127990000D01*
X118340000Y-125450000D02*
X116640000Y-125450000D01*
X118340000Y-122910000D02*
X116640000Y-122910000D01*
X118340000Y-120370000D02*
X116640000Y-120370000D01*
X118340000Y-117830000D02*
X116640000Y-117830000D01*
X118340000Y-115290000D02*
X116640000Y-115290000D01*
X118340000Y-112750000D02*
X116640000Y-112750000D01*
X71456733Y-129538000D02*
X71799267Y-129538000D01*
X71456733Y-130558000D02*
X71799267Y-130558000D01*
X106480000Y-140655646D02*
X107480000Y-140655646D01*
X106980000Y-141155646D02*
X106980000Y-140155646D01*
X109256000Y-130595000D02*
X110454000Y-130595000D01*
X108993000Y-130635000D02*
X110717000Y-130635000D01*
X108793000Y-130675000D02*
X110917000Y-130675000D01*
X108625000Y-130715000D02*
X111085000Y-130715000D01*
X108477000Y-130755000D02*
X111233000Y-130755000D01*
X108345000Y-130795000D02*
X111365000Y-130795000D01*
X108225000Y-130835000D02*
X111485000Y-130835000D01*
X108113000Y-130875000D02*
X111597000Y-130875000D01*
X108009000Y-130915000D02*
X111701000Y-130915000D01*
X107911000Y-130955000D02*
X111799000Y-130955000D01*
X107818000Y-130995000D02*
X111892000Y-130995000D01*
X107730000Y-131035000D02*
X111980000Y-131035000D01*
X107646000Y-131075000D02*
X112064000Y-131075000D01*
X107566000Y-131115000D02*
X112144000Y-131115000D01*
X107490000Y-131155000D02*
X112220000Y-131155000D01*
X107416000Y-131195000D02*
X112294000Y-131195000D01*
X107345000Y-131235000D02*
X112365000Y-131235000D01*
X107276000Y-131275000D02*
X110615000Y-131275000D01*
X107210000Y-131315000D02*
X110615000Y-131315000D01*
X107146000Y-131355000D02*
X110615000Y-131355000D01*
X107085000Y-131395000D02*
X110615000Y-131395000D01*
X107025000Y-131435000D02*
X110615000Y-131435000D01*
X106966000Y-131475000D02*
X110615000Y-131475000D01*
X106910000Y-131515000D02*
X110615000Y-131515000D01*
X106855000Y-131555000D02*
X110615000Y-131555000D01*
X106801000Y-131595000D02*
X110615000Y-131595000D01*
X106749000Y-131635000D02*
X110615000Y-131635000D01*
X106699000Y-131675000D02*
X110615000Y-131675000D01*
X106649000Y-131715000D02*
X110615000Y-131715000D01*
X113095000Y-131755000D02*
X113109000Y-131755000D01*
X106601000Y-131755000D02*
X110615000Y-131755000D01*
X113095000Y-131795000D02*
X113156000Y-131795000D01*
X106554000Y-131795000D02*
X110615000Y-131795000D01*
X113095000Y-131835000D02*
X113202000Y-131835000D01*
X106508000Y-131835000D02*
X110615000Y-131835000D01*
X113095000Y-131875000D02*
X113247000Y-131875000D01*
X106463000Y-131875000D02*
X110615000Y-131875000D01*
X113095000Y-131915000D02*
X113291000Y-131915000D01*
X106419000Y-131915000D02*
X110615000Y-131915000D01*
X113095000Y-131955000D02*
X113333000Y-131955000D01*
X106377000Y-131955000D02*
X108614000Y-131955000D01*
X113095000Y-131995000D02*
X113375000Y-131995000D01*
X106335000Y-131995000D02*
X108614000Y-131995000D01*
X113095000Y-132035000D02*
X113416000Y-132035000D01*
X106294000Y-132035000D02*
X108614000Y-132035000D01*
X113095000Y-132075000D02*
X113456000Y-132075000D01*
X106254000Y-132075000D02*
X108614000Y-132075000D01*
X113095000Y-132115000D02*
X113495000Y-132115000D01*
X106215000Y-132115000D02*
X108614000Y-132115000D01*
X113095000Y-132155000D02*
X113534000Y-132155000D01*
X106176000Y-132155000D02*
X108614000Y-132155000D01*
X113095000Y-132195000D02*
X113571000Y-132195000D01*
X106139000Y-132195000D02*
X108614000Y-132195000D01*
X113095000Y-132235000D02*
X113608000Y-132235000D01*
X106102000Y-132235000D02*
X108614000Y-132235000D01*
X113095000Y-132275000D02*
X113644000Y-132275000D01*
X106066000Y-132275000D02*
X108614000Y-132275000D01*
X113095000Y-132315000D02*
X113679000Y-132315000D01*
X106031000Y-132315000D02*
X108614000Y-132315000D01*
X113095000Y-132355000D02*
X113713000Y-132355000D01*
X105997000Y-132355000D02*
X108614000Y-132355000D01*
X113095000Y-132395000D02*
X113747000Y-132395000D01*
X105963000Y-132395000D02*
X108614000Y-132395000D01*
X113095000Y-132435000D02*
X113780000Y-132435000D01*
X105930000Y-132435000D02*
X108614000Y-132435000D01*
X113095000Y-132475000D02*
X113812000Y-132475000D01*
X105898000Y-132475000D02*
X108614000Y-132475000D01*
X113095000Y-132515000D02*
X113844000Y-132515000D01*
X105866000Y-132515000D02*
X108614000Y-132515000D01*
X113095000Y-132555000D02*
X113875000Y-132555000D01*
X105835000Y-132555000D02*
X108614000Y-132555000D01*
X113095000Y-132595000D02*
X113905000Y-132595000D01*
X105805000Y-132595000D02*
X108614000Y-132595000D01*
X113095000Y-132635000D02*
X113935000Y-132635000D01*
X105775000Y-132635000D02*
X108614000Y-132635000D01*
X113095000Y-132675000D02*
X113965000Y-132675000D01*
X105745000Y-132675000D02*
X108614000Y-132675000D01*
X113095000Y-132715000D02*
X113993000Y-132715000D01*
X105717000Y-132715000D02*
X108614000Y-132715000D01*
X113095000Y-132755000D02*
X114021000Y-132755000D01*
X105689000Y-132755000D02*
X108614000Y-132755000D01*
X113095000Y-132795000D02*
X114049000Y-132795000D01*
X105661000Y-132795000D02*
X108614000Y-132795000D01*
X113095000Y-132835000D02*
X114076000Y-132835000D01*
X105634000Y-132835000D02*
X108614000Y-132835000D01*
X113095000Y-132875000D02*
X114102000Y-132875000D01*
X105608000Y-132875000D02*
X108614000Y-132875000D01*
X113095000Y-132915000D02*
X114128000Y-132915000D01*
X105582000Y-132915000D02*
X108614000Y-132915000D01*
X113095000Y-132955000D02*
X114153000Y-132955000D01*
X105557000Y-132955000D02*
X108614000Y-132955000D01*
X113095000Y-132995000D02*
X114178000Y-132995000D01*
X105532000Y-132995000D02*
X108614000Y-132995000D01*
X113095000Y-133035000D02*
X114202000Y-133035000D01*
X105508000Y-133035000D02*
X108614000Y-133035000D01*
X113095000Y-133075000D02*
X114226000Y-133075000D01*
X105484000Y-133075000D02*
X108614000Y-133075000D01*
X113095000Y-133115000D02*
X114250000Y-133115000D01*
X105460000Y-133115000D02*
X108614000Y-133115000D01*
X113095000Y-133155000D02*
X114272000Y-133155000D01*
X105438000Y-133155000D02*
X108614000Y-133155000D01*
X113095000Y-133195000D02*
X114295000Y-133195000D01*
X105415000Y-133195000D02*
X108614000Y-133195000D01*
X113095000Y-133235000D02*
X114317000Y-133235000D01*
X105393000Y-133235000D02*
X108614000Y-133235000D01*
X113095000Y-133275000D02*
X114338000Y-133275000D01*
X105372000Y-133275000D02*
X108614000Y-133275000D01*
X113095000Y-133315000D02*
X114359000Y-133315000D01*
X105351000Y-133315000D02*
X108614000Y-133315000D01*
X113095000Y-133355000D02*
X114380000Y-133355000D01*
X105330000Y-133355000D02*
X108614000Y-133355000D01*
X113095000Y-133395000D02*
X114400000Y-133395000D01*
X105310000Y-133395000D02*
X108614000Y-133395000D01*
X113095000Y-133435000D02*
X114419000Y-133435000D01*
X105291000Y-133435000D02*
X108614000Y-133435000D01*
X113095000Y-133475000D02*
X114439000Y-133475000D01*
X105271000Y-133475000D02*
X108614000Y-133475000D01*
X113095000Y-133515000D02*
X114458000Y-133515000D01*
X105252000Y-133515000D02*
X108614000Y-133515000D01*
X113095000Y-133555000D02*
X114476000Y-133555000D01*
X105234000Y-133555000D02*
X108614000Y-133555000D01*
X113095000Y-133595000D02*
X114494000Y-133595000D01*
X105216000Y-133595000D02*
X108614000Y-133595000D01*
X113095000Y-133635000D02*
X114512000Y-133635000D01*
X105198000Y-133635000D02*
X108614000Y-133635000D01*
X113095000Y-133675000D02*
X114529000Y-133675000D01*
X105181000Y-133675000D02*
X108614000Y-133675000D01*
X113095000Y-133715000D02*
X114545000Y-133715000D01*
X105165000Y-133715000D02*
X108614000Y-133715000D01*
X111096000Y-133755000D02*
X114562000Y-133755000D01*
X105148000Y-133755000D02*
X108614000Y-133755000D01*
X111096000Y-133795000D02*
X114578000Y-133795000D01*
X105132000Y-133795000D02*
X108614000Y-133795000D01*
X111096000Y-133835000D02*
X114593000Y-133835000D01*
X105117000Y-133835000D02*
X108614000Y-133835000D01*
X111096000Y-133875000D02*
X114609000Y-133875000D01*
X105101000Y-133875000D02*
X108614000Y-133875000D01*
X111096000Y-133915000D02*
X114623000Y-133915000D01*
X105087000Y-133915000D02*
X108614000Y-133915000D01*
X111096000Y-133955000D02*
X114638000Y-133955000D01*
X105072000Y-133955000D02*
X108614000Y-133955000D01*
X111096000Y-133995000D02*
X114652000Y-133995000D01*
X105058000Y-133995000D02*
X108614000Y-133995000D01*
X111096000Y-134035000D02*
X114666000Y-134035000D01*
X105044000Y-134035000D02*
X108614000Y-134035000D01*
X111096000Y-134075000D02*
X114679000Y-134075000D01*
X105031000Y-134075000D02*
X108614000Y-134075000D01*
X111096000Y-134115000D02*
X114692000Y-134115000D01*
X105018000Y-134115000D02*
X108614000Y-134115000D01*
X111096000Y-134155000D02*
X114705000Y-134155000D01*
X105005000Y-134155000D02*
X108614000Y-134155000D01*
X111096000Y-134195000D02*
X114717000Y-134195000D01*
X104993000Y-134195000D02*
X108614000Y-134195000D01*
X111096000Y-134235000D02*
X114729000Y-134235000D01*
X104981000Y-134235000D02*
X108614000Y-134235000D01*
X111096000Y-134275000D02*
X114740000Y-134275000D01*
X104970000Y-134275000D02*
X108614000Y-134275000D01*
X111096000Y-134315000D02*
X114752000Y-134315000D01*
X104958000Y-134315000D02*
X108614000Y-134315000D01*
X111096000Y-134355000D02*
X114762000Y-134355000D01*
X104948000Y-134355000D02*
X108614000Y-134355000D01*
X111096000Y-134395000D02*
X114773000Y-134395000D01*
X104937000Y-134395000D02*
X108614000Y-134395000D01*
X104927000Y-134435000D02*
X114783000Y-134435000D01*
X104917000Y-134475000D02*
X114793000Y-134475000D01*
X104908000Y-134515000D02*
X114802000Y-134515000D01*
X104899000Y-134555000D02*
X114811000Y-134555000D01*
X104890000Y-134595000D02*
X114820000Y-134595000D01*
X104881000Y-134635000D02*
X114829000Y-134635000D01*
X104873000Y-134675000D02*
X114837000Y-134675000D01*
X104865000Y-134715000D02*
X114845000Y-134715000D01*
X104858000Y-134755000D02*
X114852000Y-134755000D01*
X104851000Y-134795000D02*
X114859000Y-134795000D01*
X104844000Y-134835000D02*
X114866000Y-134835000D01*
X104837000Y-134875000D02*
X114873000Y-134875000D01*
X104831000Y-134915000D02*
X114879000Y-134915000D01*
X104825000Y-134955000D02*
X114885000Y-134955000D01*
X104820000Y-134996000D02*
X114890000Y-134996000D01*
X104815000Y-135036000D02*
X114895000Y-135036000D01*
X104810000Y-135076000D02*
X114900000Y-135076000D01*
X104805000Y-135116000D02*
X114905000Y-135116000D01*
X104801000Y-135156000D02*
X114909000Y-135156000D01*
X104797000Y-135196000D02*
X114913000Y-135196000D01*
X104793000Y-135236000D02*
X114917000Y-135236000D01*
X104790000Y-135276000D02*
X114920000Y-135276000D01*
X104787000Y-135316000D02*
X114923000Y-135316000D01*
X104785000Y-135356000D02*
X114925000Y-135356000D01*
X104782000Y-135396000D02*
X114928000Y-135396000D01*
X104780000Y-135436000D02*
X114930000Y-135436000D01*
X104778000Y-135476000D02*
X114932000Y-135476000D01*
X104777000Y-135516000D02*
X114933000Y-135516000D01*
X104776000Y-135556000D02*
X114934000Y-135556000D01*
X104775000Y-135596000D02*
X114935000Y-135596000D01*
X104775000Y-135636000D02*
X114935000Y-135636000D01*
X104775000Y-135676000D02*
X114935000Y-135676000D01*
X108141902Y-140500904D02*
G75*
G03X106595000Y-139624012I1713098J4824904D01*
G01*
X69842748Y-140918000D02*
X70365252Y-140918000D01*
X69842748Y-139498000D02*
X70365252Y-139498000D01*
X72773000Y-141410000D02*
X79708000Y-141410000D01*
X72773000Y-137990000D02*
X72773000Y-141410000D01*
X79708000Y-137990000D02*
X72773000Y-137990000D01*
X98820000Y-103744000D02*
X98820000Y-107584000D01*
X99060000Y-103744000D02*
X99060000Y-107584000D01*
X98940000Y-103744000D02*
X98940000Y-107584000D01*
X107780000Y-105664000D02*
X105520000Y-105664000D01*
X95420000Y-105664000D02*
X97680000Y-105664000D01*
X105520000Y-103744000D02*
X97680000Y-103744000D01*
X105520000Y-107584000D02*
X105520000Y-103744000D01*
X97680000Y-107584000D02*
X105520000Y-107584000D01*
X97680000Y-103744000D02*
X97680000Y-107584000D01*
X76336000Y-116504000D02*
X76336000Y-108954000D01*
X80636000Y-116504000D02*
X80636000Y-108954000D01*
X76336000Y-116504000D02*
X80636000Y-116504000D01*
X113110000Y-93090000D02*
X113110000Y-96250000D01*
X113110000Y-93090000D02*
X90390000Y-93090000D01*
X113110000Y-102910000D02*
X90390000Y-102910000D01*
X113110000Y-99750000D02*
X113110000Y-102910000D01*
X90390000Y-99750000D02*
X90390000Y-102910000D01*
X90390000Y-93090000D02*
X90390000Y-96250000D01*
X77116000Y-119618000D02*
X79856000Y-119618000D01*
X77116000Y-127858000D02*
X79856000Y-127858000D01*
X79856000Y-127858000D02*
X79856000Y-119618000D01*
X77116000Y-127858000D02*
X77116000Y-119618000D01*
X88486445Y-113349684D02*
G75*
G03X87458000Y-109072000I-1808445J1827684D01*
G01*
X84866125Y-113363741D02*
G75*
G02X85858000Y-109072000I1811875J1841741D01*
G01*
X84878000Y-113372000D02*
X88478000Y-113372000D01*
X84708000Y-127772000D02*
X88308000Y-127772000D01*
X84696125Y-127763741D02*
G75*
G02X85688000Y-123472000I1811875J1841741D01*
G01*
X88316445Y-127749684D02*
G75*
G03X87288000Y-123472000I-1808445J1827684D01*
G01*
X88486445Y-141924684D02*
G75*
G03X87458000Y-137647000I-1808445J1827684D01*
G01*
X84866125Y-141938741D02*
G75*
G02X85858000Y-137647000I1811875J1841741D01*
G01*
X84878000Y-141947000D02*
X88478000Y-141947000D01*
X92353000Y-108252000D02*
X102593000Y-108252000D01*
X92353000Y-112893000D02*
X102593000Y-112893000D01*
X92353000Y-108252000D02*
X92353000Y-112893000D01*
X102593000Y-108252000D02*
X102593000Y-112893000D01*
X92353000Y-109762000D02*
X102593000Y-109762000D01*
X95623000Y-108252000D02*
X95623000Y-109762000D01*
X99324000Y-108252000D02*
X99324000Y-109762000D01*
X92353000Y-122857000D02*
X102593000Y-122857000D01*
X92353000Y-127498000D02*
X102593000Y-127498000D01*
X92353000Y-122857000D02*
X92353000Y-127498000D01*
X102593000Y-122857000D02*
X102593000Y-127498000D01*
X92353000Y-124367000D02*
X102593000Y-124367000D01*
X95623000Y-122857000D02*
X95623000Y-124367000D01*
X99324000Y-122857000D02*
X99324000Y-124367000D01*
X99324000Y-136827000D02*
X99324000Y-138337000D01*
X95623000Y-136827000D02*
X95623000Y-138337000D01*
X92353000Y-138337000D02*
X102593000Y-138337000D01*
X102593000Y-136827000D02*
X102593000Y-141468000D01*
X92353000Y-136827000D02*
X92353000Y-141468000D01*
X92353000Y-141468000D02*
X102593000Y-141468000D01*
X92353000Y-136827000D02*
X102593000Y-136827000D01*
X88486445Y-120334684D02*
G75*
G03X87458000Y-116057000I-1808445J1827684D01*
G01*
X84866125Y-120348741D02*
G75*
G02X85858000Y-116057000I1811875J1841741D01*
G01*
X84878000Y-120357000D02*
X88478000Y-120357000D01*
X84878000Y-134772000D02*
X88478000Y-134772000D01*
X84866125Y-134763741D02*
G75*
G02X85858000Y-130472000I1811875J1841741D01*
G01*
X88486445Y-134749684D02*
G75*
G03X87458000Y-130472000I-1808445J1827684D01*
G01*
X92353000Y-115237000D02*
X102593000Y-115237000D01*
X92353000Y-119878000D02*
X102593000Y-119878000D01*
X92353000Y-115237000D02*
X92353000Y-119878000D01*
X102593000Y-115237000D02*
X102593000Y-119878000D01*
X92353000Y-116747000D02*
X102593000Y-116747000D01*
X95623000Y-115237000D02*
X95623000Y-116747000D01*
X99324000Y-115237000D02*
X99324000Y-116747000D01*
X92353000Y-129842000D02*
X102593000Y-129842000D01*
X92353000Y-134483000D02*
X102593000Y-134483000D01*
X92353000Y-129842000D02*
X92353000Y-134483000D01*
X102593000Y-129842000D02*
X102593000Y-134483000D01*
X92353000Y-131352000D02*
X102593000Y-131352000D01*
X95623000Y-129842000D02*
X95623000Y-131352000D01*
X99324000Y-129842000D02*
X99324000Y-131352000D01*
X72138000Y-101630267D02*
X72138000Y-101287733D01*
X71118000Y-101630267D02*
X71118000Y-101287733D01*
X91188000Y-110939733D02*
X91188000Y-111282267D01*
X90168000Y-110939733D02*
X90168000Y-111282267D01*
X50554000Y-130000000D02*
X51554000Y-130000000D01*
X50554000Y-133360000D02*
X51554000Y-133360000D01*
X77970000Y-135284000D02*
X76970000Y-135284000D01*
X77970000Y-131924000D02*
X76970000Y-131924000D01*
X55460000Y-128040000D02*
X55460000Y-128650000D01*
X55460000Y-128040000D02*
X47840000Y-128040000D01*
X72080000Y-128040000D02*
X71460000Y-128040000D01*
X72080000Y-125920000D02*
X72080000Y-128040000D01*
X72080000Y-111800000D02*
X72080000Y-113920000D01*
X71460000Y-111800000D02*
X72080000Y-111800000D01*
X47840000Y-111800000D02*
X55460000Y-111800000D01*
X47840000Y-128040000D02*
X47840000Y-111800000D01*
X83104000Y-104770000D02*
X82504000Y-104770000D01*
X82804000Y-104170000D02*
X83104000Y-104770000D01*
X82504000Y-104770000D02*
X82804000Y-104170000D01*
X74984000Y-96860000D02*
X75724000Y-96860000D01*
X74984000Y-102160000D02*
X74984000Y-96860000D01*
X85544000Y-102160000D02*
X74984000Y-102160000D01*
X85544000Y-96860000D02*
X85544000Y-102160000D01*
X84804000Y-96860000D02*
X85544000Y-96860000D01*
X80804000Y-96860000D02*
X79724000Y-96860000D01*
X76724000Y-102160000D02*
X78724000Y-102160000D01*
X76724000Y-103970000D02*
X76724000Y-102160000D01*
X78724000Y-103970000D02*
X76724000Y-103970000D01*
X78724000Y-102160000D02*
X78724000Y-103970000D01*
X81804000Y-102160000D02*
X83804000Y-102160000D01*
X81804000Y-103970000D02*
X81804000Y-102160000D01*
X83804000Y-103970000D02*
X81804000Y-103970000D01*
X83804000Y-102160000D02*
X83804000Y-103970000D01*
X81804000Y-103160000D02*
X78724000Y-103160000D01*
X74074000Y-103160000D02*
X76614000Y-103160000D01*
X86454000Y-103160000D02*
X83914000Y-103160000D01*
X74074000Y-103970000D02*
X86454000Y-103970000D01*
X74074000Y-95150000D02*
X74074000Y-103970000D01*
X86454000Y-95150000D02*
X74074000Y-95150000D01*
X86454000Y-103970000D02*
X86454000Y-95150000D01*
X75737159Y-96844179D02*
G75*
G02X79724000Y-96860000I1986841J-1665821D01*
G01*
X80817159Y-96844179D02*
G75*
G02X84804000Y-96860000I1986841J-1665821D01*
G01*
X52518000Y-105470000D02*
X52518000Y-104140000D01*
X53848000Y-105470000D02*
X52518000Y-105470000D01*
X55118000Y-105470000D02*
X55118000Y-102810000D01*
X55118000Y-102810000D02*
X57718000Y-102810000D01*
X55118000Y-105470000D02*
X57718000Y-105470000D01*
X57718000Y-105470000D02*
X57718000Y-102810000D01*
X86545267Y-105154000D02*
X86202733Y-105154000D01*
X86545267Y-106174000D02*
X86202733Y-106174000D01*
X69410000Y-106994000D02*
X69410000Y-104334000D01*
X64270000Y-106994000D02*
X69410000Y-106994000D01*
X64270000Y-104334000D02*
X69410000Y-104334000D01*
X64270000Y-106994000D02*
X64270000Y-104334000D01*
X63000000Y-106994000D02*
X61670000Y-106994000D01*
X61670000Y-106994000D02*
X61670000Y-105664000D01*
X64262000Y-97850000D02*
X64262000Y-95190000D01*
X64262000Y-97850000D02*
X69402000Y-97850000D01*
X69402000Y-97850000D02*
X69402000Y-95190000D01*
X64262000Y-95190000D02*
X69402000Y-95190000D01*
X61662000Y-95190000D02*
X62992000Y-95190000D01*
X61662000Y-96520000D02*
X61662000Y-95190000D01*
D10*
X90511333Y-130246380D02*
X90178000Y-129770190D01*
X89939904Y-130246380D02*
X89939904Y-129246380D01*
X90320857Y-129246380D01*
X90416095Y-129294000D01*
X90463714Y-129341619D01*
X90511333Y-129436857D01*
X90511333Y-129579714D01*
X90463714Y-129674952D01*
X90416095Y-129722571D01*
X90320857Y-129770190D01*
X89939904Y-129770190D01*
X91368476Y-129246380D02*
X91178000Y-129246380D01*
X91082761Y-129294000D01*
X91035142Y-129341619D01*
X90939904Y-129484476D01*
X90892285Y-129674952D01*
X90892285Y-130055904D01*
X90939904Y-130151142D01*
X90987523Y-130198761D01*
X91082761Y-130246380D01*
X91273238Y-130246380D01*
X91368476Y-130198761D01*
X91416095Y-130151142D01*
X91463714Y-130055904D01*
X91463714Y-129817809D01*
X91416095Y-129722571D01*
X91368476Y-129674952D01*
X91273238Y-129627333D01*
X91082761Y-129627333D01*
X90987523Y-129674952D01*
X90939904Y-129722571D01*
X90892285Y-129817809D01*
X90511333Y-115881380D02*
X90178000Y-115405190D01*
X89939904Y-115881380D02*
X89939904Y-114881380D01*
X90320857Y-114881380D01*
X90416095Y-114929000D01*
X90463714Y-114976619D01*
X90511333Y-115071857D01*
X90511333Y-115214714D01*
X90463714Y-115309952D01*
X90416095Y-115357571D01*
X90320857Y-115405190D01*
X89939904Y-115405190D01*
X91416095Y-114881380D02*
X90939904Y-114881380D01*
X90892285Y-115357571D01*
X90939904Y-115309952D01*
X91035142Y-115262333D01*
X91273238Y-115262333D01*
X91368476Y-115309952D01*
X91416095Y-115357571D01*
X91463714Y-115452809D01*
X91463714Y-115690904D01*
X91416095Y-115786142D01*
X91368476Y-115833761D01*
X91273238Y-115881380D01*
X91035142Y-115881380D01*
X90939904Y-115833761D01*
X90892285Y-115786142D01*
X90511333Y-137499380D02*
X90178000Y-137023190D01*
X89939904Y-137499380D02*
X89939904Y-136499380D01*
X90320857Y-136499380D01*
X90416095Y-136547000D01*
X90463714Y-136594619D01*
X90511333Y-136689857D01*
X90511333Y-136832714D01*
X90463714Y-136927952D01*
X90416095Y-136975571D01*
X90320857Y-137023190D01*
X89939904Y-137023190D01*
X90844666Y-136499380D02*
X91463714Y-136499380D01*
X91130380Y-136880333D01*
X91273238Y-136880333D01*
X91368476Y-136927952D01*
X91416095Y-136975571D01*
X91463714Y-137070809D01*
X91463714Y-137308904D01*
X91416095Y-137404142D01*
X91368476Y-137451761D01*
X91273238Y-137499380D01*
X90987523Y-137499380D01*
X90892285Y-137451761D01*
X90844666Y-137404142D01*
X90511333Y-123275380D02*
X90178000Y-122799190D01*
X89939904Y-123275380D02*
X89939904Y-122275380D01*
X90320857Y-122275380D01*
X90416095Y-122323000D01*
X90463714Y-122370619D01*
X90511333Y-122465857D01*
X90511333Y-122608714D01*
X90463714Y-122703952D01*
X90416095Y-122751571D01*
X90320857Y-122799190D01*
X89939904Y-122799190D01*
X90892285Y-122370619D02*
X90939904Y-122323000D01*
X91035142Y-122275380D01*
X91273238Y-122275380D01*
X91368476Y-122323000D01*
X91416095Y-122370619D01*
X91463714Y-122465857D01*
X91463714Y-122561095D01*
X91416095Y-122703952D01*
X90844666Y-123275380D01*
X91463714Y-123275380D01*
X66294095Y-134580380D02*
X66294095Y-135389904D01*
X66341714Y-135485142D01*
X66389333Y-135532761D01*
X66484571Y-135580380D01*
X66675047Y-135580380D01*
X66770285Y-135532761D01*
X66817904Y-135485142D01*
X66865523Y-135389904D01*
X66865523Y-134580380D01*
X67294095Y-134675619D02*
X67341714Y-134628000D01*
X67436952Y-134580380D01*
X67675047Y-134580380D01*
X67770285Y-134628000D01*
X67817904Y-134675619D01*
X67865523Y-134770857D01*
X67865523Y-134866095D01*
X67817904Y-135008952D01*
X67246476Y-135580380D01*
X67865523Y-135580380D01*
X63206333Y-133961142D02*
X63158714Y-134008761D01*
X63015857Y-134056380D01*
X62920619Y-134056380D01*
X62777761Y-134008761D01*
X62682523Y-133913523D01*
X62634904Y-133818285D01*
X62587285Y-133627809D01*
X62587285Y-133484952D01*
X62634904Y-133294476D01*
X62682523Y-133199238D01*
X62777761Y-133104000D01*
X62920619Y-133056380D01*
X63015857Y-133056380D01*
X63158714Y-133104000D01*
X63206333Y-133151619D01*
X64111095Y-133056380D02*
X63634904Y-133056380D01*
X63587285Y-133532571D01*
X63634904Y-133484952D01*
X63730142Y-133437333D01*
X63968238Y-133437333D01*
X64063476Y-133484952D01*
X64111095Y-133532571D01*
X64158714Y-133627809D01*
X64158714Y-133865904D01*
X64111095Y-133961142D01*
X64063476Y-134008761D01*
X63968238Y-134056380D01*
X63730142Y-134056380D01*
X63634904Y-134008761D01*
X63587285Y-133961142D01*
X58888333Y-133961142D02*
X58840714Y-134008761D01*
X58697857Y-134056380D01*
X58602619Y-134056380D01*
X58459761Y-134008761D01*
X58364523Y-133913523D01*
X58316904Y-133818285D01*
X58269285Y-133627809D01*
X58269285Y-133484952D01*
X58316904Y-133294476D01*
X58364523Y-133199238D01*
X58459761Y-133104000D01*
X58602619Y-133056380D01*
X58697857Y-133056380D01*
X58840714Y-133104000D01*
X58888333Y-133151619D01*
X59745476Y-133389714D02*
X59745476Y-134056380D01*
X59507380Y-133008761D02*
X59269285Y-133723047D01*
X59888333Y-133723047D01*
X121332666Y-127214380D02*
X121332666Y-127928666D01*
X121285047Y-128071523D01*
X121189809Y-128166761D01*
X121046952Y-128214380D01*
X120951714Y-128214380D01*
X121713619Y-127214380D02*
X122332666Y-127214380D01*
X121999333Y-127595333D01*
X122142190Y-127595333D01*
X122237428Y-127642952D01*
X122285047Y-127690571D01*
X122332666Y-127785809D01*
X122332666Y-128023904D01*
X122285047Y-128119142D01*
X122237428Y-128166761D01*
X122142190Y-128214380D01*
X121856476Y-128214380D01*
X121761238Y-128166761D01*
X121713619Y-128119142D01*
X71461333Y-132056142D02*
X71413714Y-132103761D01*
X71270857Y-132151380D01*
X71175619Y-132151380D01*
X71032761Y-132103761D01*
X70937523Y-132008523D01*
X70889904Y-131913285D01*
X70842285Y-131722809D01*
X70842285Y-131579952D01*
X70889904Y-131389476D01*
X70937523Y-131294238D01*
X71032761Y-131199000D01*
X71175619Y-131151380D01*
X71270857Y-131151380D01*
X71413714Y-131199000D01*
X71461333Y-131246619D01*
X72413714Y-132151380D02*
X71842285Y-132151380D01*
X72128000Y-132151380D02*
X72128000Y-131151380D01*
X72032761Y-131294238D01*
X71937523Y-131389476D01*
X71842285Y-131437095D01*
X114387333Y-141327142D02*
X114339714Y-141374761D01*
X114196857Y-141422380D01*
X114101619Y-141422380D01*
X113958761Y-141374761D01*
X113863523Y-141279523D01*
X113815904Y-141184285D01*
X113768285Y-140993809D01*
X113768285Y-140850952D01*
X113815904Y-140660476D01*
X113863523Y-140565238D01*
X113958761Y-140470000D01*
X114101619Y-140422380D01*
X114196857Y-140422380D01*
X114339714Y-140470000D01*
X114387333Y-140517619D01*
X114768285Y-140517619D02*
X114815904Y-140470000D01*
X114911142Y-140422380D01*
X115149238Y-140422380D01*
X115244476Y-140470000D01*
X115292095Y-140517619D01*
X115339714Y-140612857D01*
X115339714Y-140708095D01*
X115292095Y-140850952D01*
X114720666Y-141422380D01*
X115339714Y-141422380D01*
X70953333Y-138533142D02*
X70905714Y-138580761D01*
X70762857Y-138628380D01*
X70667619Y-138628380D01*
X70524761Y-138580761D01*
X70429523Y-138485523D01*
X70381904Y-138390285D01*
X70334285Y-138199809D01*
X70334285Y-138056952D01*
X70381904Y-137866476D01*
X70429523Y-137771238D01*
X70524761Y-137676000D01*
X70667619Y-137628380D01*
X70762857Y-137628380D01*
X70905714Y-137676000D01*
X70953333Y-137723619D01*
X71286666Y-137628380D02*
X71905714Y-137628380D01*
X71572380Y-138009333D01*
X71715238Y-138009333D01*
X71810476Y-138056952D01*
X71858095Y-138104571D01*
X71905714Y-138199809D01*
X71905714Y-138437904D01*
X71858095Y-138533142D01*
X71810476Y-138580761D01*
X71715238Y-138628380D01*
X71429523Y-138628380D01*
X71334285Y-138580761D01*
X71286666Y-138533142D01*
X76541333Y-137517142D02*
X76493714Y-137564761D01*
X76350857Y-137612380D01*
X76255619Y-137612380D01*
X76112761Y-137564761D01*
X76017523Y-137469523D01*
X75969904Y-137374285D01*
X75922285Y-137183809D01*
X75922285Y-137040952D01*
X75969904Y-136850476D01*
X76017523Y-136755238D01*
X76112761Y-136660000D01*
X76255619Y-136612380D01*
X76350857Y-136612380D01*
X76493714Y-136660000D01*
X76541333Y-136707619D01*
X77398476Y-136612380D02*
X77208000Y-136612380D01*
X77112761Y-136660000D01*
X77065142Y-136707619D01*
X76969904Y-136850476D01*
X76922285Y-137040952D01*
X76922285Y-137421904D01*
X76969904Y-137517142D01*
X77017523Y-137564761D01*
X77112761Y-137612380D01*
X77303238Y-137612380D01*
X77398476Y-137564761D01*
X77446095Y-137517142D01*
X77493714Y-137421904D01*
X77493714Y-137183809D01*
X77446095Y-137088571D01*
X77398476Y-137040952D01*
X77303238Y-136993333D01*
X77112761Y-136993333D01*
X77017523Y-137040952D01*
X76969904Y-137088571D01*
X76922285Y-137183809D01*
X111783904Y-107386380D02*
X111783904Y-106386380D01*
X112022000Y-106386380D01*
X112164857Y-106434000D01*
X112260095Y-106529238D01*
X112307714Y-106624476D01*
X112355333Y-106814952D01*
X112355333Y-106957809D01*
X112307714Y-107148285D01*
X112260095Y-107243523D01*
X112164857Y-107338761D01*
X112022000Y-107386380D01*
X111783904Y-107386380D01*
X113307714Y-107386380D02*
X112736285Y-107386380D01*
X113022000Y-107386380D02*
X113022000Y-106386380D01*
X112926761Y-106529238D01*
X112831523Y-106624476D01*
X112736285Y-106672095D01*
X90987619Y-105402095D02*
X91987619Y-105402095D01*
X90987619Y-105973523D02*
X91559047Y-105544952D01*
X91987619Y-105973523D02*
X91416190Y-105402095D01*
X81049904Y-112212380D02*
X81049904Y-111212380D01*
X81288000Y-111212380D01*
X81430857Y-111260000D01*
X81526095Y-111355238D01*
X81573714Y-111450476D01*
X81621333Y-111640952D01*
X81621333Y-111783809D01*
X81573714Y-111974285D01*
X81526095Y-112069523D01*
X81430857Y-112164761D01*
X81288000Y-112212380D01*
X81049904Y-112212380D01*
X82002285Y-111307619D02*
X82049904Y-111260000D01*
X82145142Y-111212380D01*
X82383238Y-111212380D01*
X82478476Y-111260000D01*
X82526095Y-111307619D01*
X82573714Y-111402857D01*
X82573714Y-111498095D01*
X82526095Y-111640952D01*
X81954666Y-112212380D01*
X82573714Y-112212380D01*
X115998666Y-92384571D02*
X115665333Y-92384571D01*
X115665333Y-92908380D02*
X115665333Y-91908380D01*
X116141523Y-91908380D01*
X117046285Y-92908380D02*
X116474857Y-92908380D01*
X116760571Y-92908380D02*
X116760571Y-91908380D01*
X116665333Y-92051238D01*
X116570095Y-92146476D01*
X116474857Y-92194095D01*
X80946666Y-123626571D02*
X80613333Y-123626571D01*
X80613333Y-124150380D02*
X80613333Y-123150380D01*
X81089523Y-123150380D01*
X81422857Y-123245619D02*
X81470476Y-123198000D01*
X81565714Y-123150380D01*
X81803809Y-123150380D01*
X81899047Y-123198000D01*
X81946666Y-123245619D01*
X81994285Y-123340857D01*
X81994285Y-123436095D01*
X81946666Y-123578952D01*
X81375238Y-124150380D01*
X81994285Y-124150380D01*
X86582761Y-108210619D02*
X86487523Y-108163000D01*
X86392285Y-108067761D01*
X86249428Y-107924904D01*
X86154190Y-107877285D01*
X86058952Y-107877285D01*
X86106571Y-108115380D02*
X86011333Y-108067761D01*
X85916095Y-107972523D01*
X85868476Y-107782047D01*
X85868476Y-107448714D01*
X85916095Y-107258238D01*
X86011333Y-107163000D01*
X86106571Y-107115380D01*
X86297047Y-107115380D01*
X86392285Y-107163000D01*
X86487523Y-107258238D01*
X86535142Y-107448714D01*
X86535142Y-107782047D01*
X86487523Y-107972523D01*
X86392285Y-108067761D01*
X86297047Y-108115380D01*
X86106571Y-108115380D01*
X87487523Y-108115380D02*
X86916095Y-108115380D01*
X87201809Y-108115380D02*
X87201809Y-107115380D01*
X87106571Y-107258238D01*
X87011333Y-107353476D01*
X86916095Y-107401095D01*
X86412761Y-122483619D02*
X86317523Y-122436000D01*
X86222285Y-122340761D01*
X86079428Y-122197904D01*
X85984190Y-122150285D01*
X85888952Y-122150285D01*
X85936571Y-122388380D02*
X85841333Y-122340761D01*
X85746095Y-122245523D01*
X85698476Y-122055047D01*
X85698476Y-121721714D01*
X85746095Y-121531238D01*
X85841333Y-121436000D01*
X85936571Y-121388380D01*
X86127047Y-121388380D01*
X86222285Y-121436000D01*
X86317523Y-121531238D01*
X86365142Y-121721714D01*
X86365142Y-122055047D01*
X86317523Y-122245523D01*
X86222285Y-122340761D01*
X86127047Y-122388380D01*
X85936571Y-122388380D01*
X86746095Y-121483619D02*
X86793714Y-121436000D01*
X86888952Y-121388380D01*
X87127047Y-121388380D01*
X87222285Y-121436000D01*
X87269904Y-121483619D01*
X87317523Y-121578857D01*
X87317523Y-121674095D01*
X87269904Y-121816952D01*
X86698476Y-122388380D01*
X87317523Y-122388380D01*
X86549761Y-136707619D02*
X86454523Y-136660000D01*
X86359285Y-136564761D01*
X86216428Y-136421904D01*
X86121190Y-136374285D01*
X86025952Y-136374285D01*
X86073571Y-136612380D02*
X85978333Y-136564761D01*
X85883095Y-136469523D01*
X85835476Y-136279047D01*
X85835476Y-135945714D01*
X85883095Y-135755238D01*
X85978333Y-135660000D01*
X86073571Y-135612380D01*
X86264047Y-135612380D01*
X86359285Y-135660000D01*
X86454523Y-135755238D01*
X86502142Y-135945714D01*
X86502142Y-136279047D01*
X86454523Y-136469523D01*
X86359285Y-136564761D01*
X86264047Y-136612380D01*
X86073571Y-136612380D01*
X86835476Y-135612380D02*
X87454523Y-135612380D01*
X87121190Y-135993333D01*
X87264047Y-135993333D01*
X87359285Y-136040952D01*
X87406904Y-136088571D01*
X87454523Y-136183809D01*
X87454523Y-136421904D01*
X87406904Y-136517142D01*
X87359285Y-136564761D01*
X87264047Y-136612380D01*
X86978333Y-136612380D01*
X86883095Y-136564761D01*
X86835476Y-136517142D01*
X103536761Y-111291619D02*
X103441523Y-111244000D01*
X103346285Y-111148761D01*
X103203428Y-111005904D01*
X103108190Y-110958285D01*
X103012952Y-110958285D01*
X103060571Y-111196380D02*
X102965333Y-111148761D01*
X102870095Y-111053523D01*
X102822476Y-110863047D01*
X102822476Y-110529714D01*
X102870095Y-110339238D01*
X102965333Y-110244000D01*
X103060571Y-110196380D01*
X103251047Y-110196380D01*
X103346285Y-110244000D01*
X103441523Y-110339238D01*
X103489142Y-110529714D01*
X103489142Y-110863047D01*
X103441523Y-111053523D01*
X103346285Y-111148761D01*
X103251047Y-111196380D01*
X103060571Y-111196380D01*
X104346285Y-110529714D02*
X104346285Y-111196380D01*
X104108190Y-110148761D02*
X103870095Y-110863047D01*
X104489142Y-110863047D01*
X103536761Y-125515619D02*
X103441523Y-125468000D01*
X103346285Y-125372761D01*
X103203428Y-125229904D01*
X103108190Y-125182285D01*
X103012952Y-125182285D01*
X103060571Y-125420380D02*
X102965333Y-125372761D01*
X102870095Y-125277523D01*
X102822476Y-125087047D01*
X102822476Y-124753714D01*
X102870095Y-124563238D01*
X102965333Y-124468000D01*
X103060571Y-124420380D01*
X103251047Y-124420380D01*
X103346285Y-124468000D01*
X103441523Y-124563238D01*
X103489142Y-124753714D01*
X103489142Y-125087047D01*
X103441523Y-125277523D01*
X103346285Y-125372761D01*
X103251047Y-125420380D01*
X103060571Y-125420380D01*
X104393904Y-124420380D02*
X103917714Y-124420380D01*
X103870095Y-124896571D01*
X103917714Y-124848952D01*
X104012952Y-124801333D01*
X104251047Y-124801333D01*
X104346285Y-124848952D01*
X104393904Y-124896571D01*
X104441523Y-124991809D01*
X104441523Y-125229904D01*
X104393904Y-125325142D01*
X104346285Y-125372761D01*
X104251047Y-125420380D01*
X104012952Y-125420380D01*
X103917714Y-125372761D01*
X103870095Y-125325142D01*
X103536761Y-140247619D02*
X103441523Y-140200000D01*
X103346285Y-140104761D01*
X103203428Y-139961904D01*
X103108190Y-139914285D01*
X103012952Y-139914285D01*
X103060571Y-140152380D02*
X102965333Y-140104761D01*
X102870095Y-140009523D01*
X102822476Y-139819047D01*
X102822476Y-139485714D01*
X102870095Y-139295238D01*
X102965333Y-139200000D01*
X103060571Y-139152380D01*
X103251047Y-139152380D01*
X103346285Y-139200000D01*
X103441523Y-139295238D01*
X103489142Y-139485714D01*
X103489142Y-139819047D01*
X103441523Y-140009523D01*
X103346285Y-140104761D01*
X103251047Y-140152380D01*
X103060571Y-140152380D01*
X104346285Y-139152380D02*
X104155809Y-139152380D01*
X104060571Y-139200000D01*
X104012952Y-139247619D01*
X103917714Y-139390476D01*
X103870095Y-139580952D01*
X103870095Y-139961904D01*
X103917714Y-140057142D01*
X103965333Y-140104761D01*
X104060571Y-140152380D01*
X104251047Y-140152380D01*
X104346285Y-140104761D01*
X104393904Y-140057142D01*
X104441523Y-139961904D01*
X104441523Y-139723809D01*
X104393904Y-139628571D01*
X104346285Y-139580952D01*
X104251047Y-139533333D01*
X104060571Y-139533333D01*
X103965333Y-139580952D01*
X103917714Y-139628571D01*
X103870095Y-139723809D01*
X86582761Y-115226619D02*
X86487523Y-115179000D01*
X86392285Y-115083761D01*
X86249428Y-114940904D01*
X86154190Y-114893285D01*
X86058952Y-114893285D01*
X86106571Y-115131380D02*
X86011333Y-115083761D01*
X85916095Y-114988523D01*
X85868476Y-114798047D01*
X85868476Y-114464714D01*
X85916095Y-114274238D01*
X86011333Y-114179000D01*
X86106571Y-114131380D01*
X86297047Y-114131380D01*
X86392285Y-114179000D01*
X86487523Y-114274238D01*
X86535142Y-114464714D01*
X86535142Y-114798047D01*
X86487523Y-114988523D01*
X86392285Y-115083761D01*
X86297047Y-115131380D01*
X86106571Y-115131380D01*
X86868476Y-114131380D02*
X87535142Y-114131380D01*
X87106571Y-115131380D01*
X86582761Y-129595619D02*
X86487523Y-129548000D01*
X86392285Y-129452761D01*
X86249428Y-129309904D01*
X86154190Y-129262285D01*
X86058952Y-129262285D01*
X86106571Y-129500380D02*
X86011333Y-129452761D01*
X85916095Y-129357523D01*
X85868476Y-129167047D01*
X85868476Y-128833714D01*
X85916095Y-128643238D01*
X86011333Y-128548000D01*
X86106571Y-128500380D01*
X86297047Y-128500380D01*
X86392285Y-128548000D01*
X86487523Y-128643238D01*
X86535142Y-128833714D01*
X86535142Y-129167047D01*
X86487523Y-129357523D01*
X86392285Y-129452761D01*
X86297047Y-129500380D01*
X86106571Y-129500380D01*
X87106571Y-128928952D02*
X87011333Y-128881333D01*
X86963714Y-128833714D01*
X86916095Y-128738476D01*
X86916095Y-128690857D01*
X86963714Y-128595619D01*
X87011333Y-128548000D01*
X87106571Y-128500380D01*
X87297047Y-128500380D01*
X87392285Y-128548000D01*
X87439904Y-128595619D01*
X87487523Y-128690857D01*
X87487523Y-128738476D01*
X87439904Y-128833714D01*
X87392285Y-128881333D01*
X87297047Y-128928952D01*
X87106571Y-128928952D01*
X87011333Y-128976571D01*
X86963714Y-129024190D01*
X86916095Y-129119428D01*
X86916095Y-129309904D01*
X86963714Y-129405142D01*
X87011333Y-129452761D01*
X87106571Y-129500380D01*
X87297047Y-129500380D01*
X87392285Y-129452761D01*
X87439904Y-129405142D01*
X87487523Y-129309904D01*
X87487523Y-129119428D01*
X87439904Y-129024190D01*
X87392285Y-128976571D01*
X87297047Y-128928952D01*
X103536761Y-118403619D02*
X103441523Y-118356000D01*
X103346285Y-118260761D01*
X103203428Y-118117904D01*
X103108190Y-118070285D01*
X103012952Y-118070285D01*
X103060571Y-118308380D02*
X102965333Y-118260761D01*
X102870095Y-118165523D01*
X102822476Y-117975047D01*
X102822476Y-117641714D01*
X102870095Y-117451238D01*
X102965333Y-117356000D01*
X103060571Y-117308380D01*
X103251047Y-117308380D01*
X103346285Y-117356000D01*
X103441523Y-117451238D01*
X103489142Y-117641714D01*
X103489142Y-117975047D01*
X103441523Y-118165523D01*
X103346285Y-118260761D01*
X103251047Y-118308380D01*
X103060571Y-118308380D01*
X103965333Y-118308380D02*
X104155809Y-118308380D01*
X104251047Y-118260761D01*
X104298666Y-118213142D01*
X104393904Y-118070285D01*
X104441523Y-117879809D01*
X104441523Y-117498857D01*
X104393904Y-117403619D01*
X104346285Y-117356000D01*
X104251047Y-117308380D01*
X104060571Y-117308380D01*
X103965333Y-117356000D01*
X103917714Y-117403619D01*
X103870095Y-117498857D01*
X103870095Y-117736952D01*
X103917714Y-117832190D01*
X103965333Y-117879809D01*
X104060571Y-117927428D01*
X104251047Y-117927428D01*
X104346285Y-117879809D01*
X104393904Y-117832190D01*
X104441523Y-117736952D01*
X103568571Y-131611619D02*
X103473333Y-131564000D01*
X103378095Y-131468761D01*
X103235238Y-131325904D01*
X103140000Y-131278285D01*
X103044761Y-131278285D01*
X103092380Y-131516380D02*
X102997142Y-131468761D01*
X102901904Y-131373523D01*
X102854285Y-131183047D01*
X102854285Y-130849714D01*
X102901904Y-130659238D01*
X102997142Y-130564000D01*
X103092380Y-130516380D01*
X103282857Y-130516380D01*
X103378095Y-130564000D01*
X103473333Y-130659238D01*
X103520952Y-130849714D01*
X103520952Y-131183047D01*
X103473333Y-131373523D01*
X103378095Y-131468761D01*
X103282857Y-131516380D01*
X103092380Y-131516380D01*
X104473333Y-131516380D02*
X103901904Y-131516380D01*
X104187619Y-131516380D02*
X104187619Y-130516380D01*
X104092380Y-130659238D01*
X103997142Y-130754476D01*
X103901904Y-130802095D01*
X105092380Y-130516380D02*
X105187619Y-130516380D01*
X105282857Y-130564000D01*
X105330476Y-130611619D01*
X105378095Y-130706857D01*
X105425714Y-130897333D01*
X105425714Y-131135428D01*
X105378095Y-131325904D01*
X105330476Y-131421142D01*
X105282857Y-131468761D01*
X105187619Y-131516380D01*
X105092380Y-131516380D01*
X104997142Y-131468761D01*
X104949523Y-131421142D01*
X104901904Y-131325904D01*
X104854285Y-131135428D01*
X104854285Y-130897333D01*
X104901904Y-130706857D01*
X104949523Y-130611619D01*
X104997142Y-130564000D01*
X105092380Y-130516380D01*
X71461333Y-99004380D02*
X71128000Y-98528190D01*
X70889904Y-99004380D02*
X70889904Y-98004380D01*
X71270857Y-98004380D01*
X71366095Y-98052000D01*
X71413714Y-98099619D01*
X71461333Y-98194857D01*
X71461333Y-98337714D01*
X71413714Y-98432952D01*
X71366095Y-98480571D01*
X71270857Y-98528190D01*
X70889904Y-98528190D01*
X72413714Y-99004380D02*
X71842285Y-99004380D01*
X72128000Y-99004380D02*
X72128000Y-98004380D01*
X72032761Y-98147238D01*
X71937523Y-98242476D01*
X71842285Y-98290095D01*
X90511333Y-108882380D02*
X90178000Y-108406190D01*
X89939904Y-108882380D02*
X89939904Y-107882380D01*
X90320857Y-107882380D01*
X90416095Y-107930000D01*
X90463714Y-107977619D01*
X90511333Y-108072857D01*
X90511333Y-108215714D01*
X90463714Y-108310952D01*
X90416095Y-108358571D01*
X90320857Y-108406190D01*
X89939904Y-108406190D01*
X90844666Y-107882380D02*
X91511333Y-107882380D01*
X91082761Y-108882380D01*
X53919523Y-133040380D02*
X53586190Y-132564190D01*
X53348095Y-133040380D02*
X53348095Y-132040380D01*
X53729047Y-132040380D01*
X53824285Y-132088000D01*
X53871904Y-132135619D01*
X53919523Y-132230857D01*
X53919523Y-132373714D01*
X53871904Y-132468952D01*
X53824285Y-132516571D01*
X53729047Y-132564190D01*
X53348095Y-132564190D01*
X54348095Y-133040380D02*
X54348095Y-132040380D01*
X54919523Y-133040380D01*
X54919523Y-132040380D01*
X55919523Y-133040380D02*
X55348095Y-133040380D01*
X55633809Y-133040380D02*
X55633809Y-132040380D01*
X55538571Y-132183238D01*
X55443333Y-132278476D01*
X55348095Y-132326095D01*
X76779523Y-131256380D02*
X76446190Y-130780190D01*
X76208095Y-131256380D02*
X76208095Y-130256380D01*
X76589047Y-130256380D01*
X76684285Y-130304000D01*
X76731904Y-130351619D01*
X76779523Y-130446857D01*
X76779523Y-130589714D01*
X76731904Y-130684952D01*
X76684285Y-130732571D01*
X76589047Y-130780190D01*
X76208095Y-130780190D01*
X77208095Y-131256380D02*
X77208095Y-130256380D01*
X77779523Y-131256380D01*
X77779523Y-130256380D01*
X78208095Y-130351619D02*
X78255714Y-130304000D01*
X78350952Y-130256380D01*
X78589047Y-130256380D01*
X78684285Y-130304000D01*
X78731904Y-130351619D01*
X78779523Y-130446857D01*
X78779523Y-130542095D01*
X78731904Y-130684952D01*
X78160476Y-131256380D01*
X78779523Y-131256380D01*
X49530095Y-108672380D02*
X49530095Y-109481904D01*
X49577714Y-109577142D01*
X49625333Y-109624761D01*
X49720571Y-109672380D01*
X49911047Y-109672380D01*
X50006285Y-109624761D01*
X50053904Y-109577142D01*
X50101523Y-109481904D01*
X50101523Y-108672380D01*
X51101523Y-109672380D02*
X50530095Y-109672380D01*
X50815809Y-109672380D02*
X50815809Y-108672380D01*
X50720571Y-108815238D01*
X50625333Y-108910476D01*
X50530095Y-108958095D01*
X73834666Y-105116380D02*
X73834666Y-105830666D01*
X73787047Y-105973523D01*
X73691809Y-106068761D01*
X73548952Y-106116380D01*
X73453714Y-106116380D01*
X74834666Y-106116380D02*
X74263238Y-106116380D01*
X74548952Y-106116380D02*
X74548952Y-105116380D01*
X74453714Y-105259238D01*
X74358476Y-105354476D01*
X74263238Y-105402095D01*
X54538666Y-100544380D02*
X54538666Y-101258666D01*
X54491047Y-101401523D01*
X54395809Y-101496761D01*
X54252952Y-101544380D01*
X54157714Y-101544380D01*
X55014857Y-101544380D02*
X55014857Y-100544380D01*
X55395809Y-100544380D01*
X55491047Y-100592000D01*
X55538666Y-100639619D01*
X55586285Y-100734857D01*
X55586285Y-100877714D01*
X55538666Y-100972952D01*
X55491047Y-101020571D01*
X55395809Y-101068190D01*
X55014857Y-101068190D01*
X56538666Y-101544380D02*
X55967238Y-101544380D01*
X56252952Y-101544380D02*
X56252952Y-100544380D01*
X56157714Y-100687238D01*
X56062476Y-100782476D01*
X55967238Y-100830095D01*
X88479333Y-104592380D02*
X88146000Y-104116190D01*
X87907904Y-104592380D02*
X87907904Y-103592380D01*
X88288857Y-103592380D01*
X88384095Y-103640000D01*
X88431714Y-103687619D01*
X88479333Y-103782857D01*
X88479333Y-103925714D01*
X88431714Y-104020952D01*
X88384095Y-104068571D01*
X88288857Y-104116190D01*
X87907904Y-104116190D01*
X89336476Y-103925714D02*
X89336476Y-104592380D01*
X89098380Y-103544761D02*
X88860285Y-104259047D01*
X89479333Y-104259047D01*
X59610666Y-105116380D02*
X59610666Y-105830666D01*
X59563047Y-105973523D01*
X59467809Y-106068761D01*
X59324952Y-106116380D01*
X59229714Y-106116380D01*
X60039238Y-105211619D02*
X60086857Y-105164000D01*
X60182095Y-105116380D01*
X60420190Y-105116380D01*
X60515428Y-105164000D01*
X60563047Y-105211619D01*
X60610666Y-105306857D01*
X60610666Y-105402095D01*
X60563047Y-105544952D01*
X59991619Y-106116380D01*
X60610666Y-106116380D01*
X59610666Y-95972380D02*
X59610666Y-96686666D01*
X59563047Y-96829523D01*
X59467809Y-96924761D01*
X59324952Y-96972380D01*
X59229714Y-96972380D01*
X60515428Y-96305714D02*
X60515428Y-96972380D01*
X60277333Y-95924761D02*
X60039238Y-96639047D01*
X60658285Y-96639047D01*
M02*
