G04 #@! TF.GenerationSoftware,KiCad,Pcbnew,5.1.5*
G04 #@! TF.CreationDate,2020-05-11T17:48:03+02:00*
G04 #@! TF.ProjectId,esp-12_led_strip_controller,6573702d-3132-45f6-9c65-645f73747269,rev?*
G04 #@! TF.SameCoordinates,Original*
G04 #@! TF.FileFunction,Soldermask,Bot*
G04 #@! TF.FilePolarity,Negative*
%FSLAX46Y46*%
G04 Gerber Fmt 4.6, Leading zero omitted, Abs format (unit mm)*
G04 Created by KiCad (PCBNEW 5.1.5) date 2020-05-11 17:48:03*
%MOMM*%
%LPD*%
G04 APERTURE LIST*
%ADD10O,1.905000X2.000000*%
%ADD11R,1.905000X2.000000*%
%ADD12C,3.200000*%
%ADD13O,1.700000X1.700000*%
%ADD14R,1.700000X1.700000*%
%ADD15C,2.000000*%
%ADD16R,2.000000X2.000000*%
%ADD17O,2.400000X2.400000*%
%ADD18R,2.400000X2.400000*%
%ADD19C,2.700000*%
%ADD20C,3.000000*%
%ADD21C,1.600000*%
%ADD22R,1.100000X1.800000*%
%ADD23C,0.100000*%
%ADD24O,2.080000X3.600000*%
G04 APERTURE END LIST*
D10*
X59944000Y-137668000D03*
X62484000Y-137668000D03*
D11*
X65024000Y-137668000D03*
D12*
X120000000Y-138000000D03*
X120000000Y-96000000D03*
D13*
X113540000Y-111110000D03*
X113540000Y-113650000D03*
X113540000Y-116190000D03*
X113540000Y-118730000D03*
X113540000Y-121270000D03*
D14*
X113540000Y-123810000D03*
X108460000Y-123810000D03*
D13*
X108460000Y-116190000D03*
X108460000Y-113650000D03*
X108460000Y-121270000D03*
X108460000Y-118730000D03*
X108460000Y-111110000D03*
D12*
X53000000Y-138000000D03*
X53000000Y-96000000D03*
D15*
X111855000Y-132503856D03*
D16*
X107855000Y-138848144D03*
D15*
X109855000Y-133176000D03*
D16*
X109855000Y-138176000D03*
D17*
X109220000Y-105664000D03*
D18*
X93980000Y-105664000D03*
D19*
X101750000Y-98000000D03*
D20*
X90500000Y-98000000D03*
X113000000Y-98000000D03*
D21*
X78486000Y-121238000D03*
X78486000Y-126238000D03*
D22*
X85408000Y-111922000D03*
D23*
G36*
X88249955Y-111023324D02*
G01*
X88276650Y-111027284D01*
X88302828Y-111033841D01*
X88328238Y-111042933D01*
X88352634Y-111054472D01*
X88375782Y-111068346D01*
X88397458Y-111084422D01*
X88417454Y-111102546D01*
X88435578Y-111122542D01*
X88451654Y-111144218D01*
X88465528Y-111167366D01*
X88477067Y-111191762D01*
X88486159Y-111217172D01*
X88492716Y-111243350D01*
X88496676Y-111270045D01*
X88498000Y-111297000D01*
X88498000Y-112547000D01*
X88496676Y-112573955D01*
X88492716Y-112600650D01*
X88486159Y-112626828D01*
X88477067Y-112652238D01*
X88465528Y-112676634D01*
X88451654Y-112699782D01*
X88435578Y-112721458D01*
X88417454Y-112741454D01*
X88397458Y-112759578D01*
X88375782Y-112775654D01*
X88352634Y-112789528D01*
X88328238Y-112801067D01*
X88302828Y-112810159D01*
X88276650Y-112816716D01*
X88249955Y-112820676D01*
X88223000Y-112822000D01*
X87673000Y-112822000D01*
X87646045Y-112820676D01*
X87619350Y-112816716D01*
X87593172Y-112810159D01*
X87567762Y-112801067D01*
X87543366Y-112789528D01*
X87520218Y-112775654D01*
X87498542Y-112759578D01*
X87478546Y-112741454D01*
X87460422Y-112721458D01*
X87444346Y-112699782D01*
X87430472Y-112676634D01*
X87418933Y-112652238D01*
X87409841Y-112626828D01*
X87403284Y-112600650D01*
X87399324Y-112573955D01*
X87398000Y-112547000D01*
X87398000Y-111297000D01*
X87399324Y-111270045D01*
X87403284Y-111243350D01*
X87409841Y-111217172D01*
X87418933Y-111191762D01*
X87430472Y-111167366D01*
X87444346Y-111144218D01*
X87460422Y-111122542D01*
X87478546Y-111102546D01*
X87498542Y-111084422D01*
X87520218Y-111068346D01*
X87543366Y-111054472D01*
X87567762Y-111042933D01*
X87593172Y-111033841D01*
X87619350Y-111027284D01*
X87646045Y-111023324D01*
X87673000Y-111022000D01*
X88223000Y-111022000D01*
X88249955Y-111023324D01*
G37*
G36*
X86979955Y-108953324D02*
G01*
X87006650Y-108957284D01*
X87032828Y-108963841D01*
X87058238Y-108972933D01*
X87082634Y-108984472D01*
X87105782Y-108998346D01*
X87127458Y-109014422D01*
X87147454Y-109032546D01*
X87165578Y-109052542D01*
X87181654Y-109074218D01*
X87195528Y-109097366D01*
X87207067Y-109121762D01*
X87216159Y-109147172D01*
X87222716Y-109173350D01*
X87226676Y-109200045D01*
X87228000Y-109227000D01*
X87228000Y-110477000D01*
X87226676Y-110503955D01*
X87222716Y-110530650D01*
X87216159Y-110556828D01*
X87207067Y-110582238D01*
X87195528Y-110606634D01*
X87181654Y-110629782D01*
X87165578Y-110651458D01*
X87147454Y-110671454D01*
X87127458Y-110689578D01*
X87105782Y-110705654D01*
X87082634Y-110719528D01*
X87058238Y-110731067D01*
X87032828Y-110740159D01*
X87006650Y-110746716D01*
X86979955Y-110750676D01*
X86953000Y-110752000D01*
X86403000Y-110752000D01*
X86376045Y-110750676D01*
X86349350Y-110746716D01*
X86323172Y-110740159D01*
X86297762Y-110731067D01*
X86273366Y-110719528D01*
X86250218Y-110705654D01*
X86228542Y-110689578D01*
X86208546Y-110671454D01*
X86190422Y-110651458D01*
X86174346Y-110629782D01*
X86160472Y-110606634D01*
X86148933Y-110582238D01*
X86139841Y-110556828D01*
X86133284Y-110530650D01*
X86129324Y-110503955D01*
X86128000Y-110477000D01*
X86128000Y-109227000D01*
X86129324Y-109200045D01*
X86133284Y-109173350D01*
X86139841Y-109147172D01*
X86148933Y-109121762D01*
X86160472Y-109097366D01*
X86174346Y-109074218D01*
X86190422Y-109052542D01*
X86208546Y-109032546D01*
X86228542Y-109014422D01*
X86250218Y-108998346D01*
X86273366Y-108984472D01*
X86297762Y-108972933D01*
X86323172Y-108963841D01*
X86349350Y-108957284D01*
X86376045Y-108953324D01*
X86403000Y-108952000D01*
X86953000Y-108952000D01*
X86979955Y-108953324D01*
G37*
G36*
X86809955Y-123353324D02*
G01*
X86836650Y-123357284D01*
X86862828Y-123363841D01*
X86888238Y-123372933D01*
X86912634Y-123384472D01*
X86935782Y-123398346D01*
X86957458Y-123414422D01*
X86977454Y-123432546D01*
X86995578Y-123452542D01*
X87011654Y-123474218D01*
X87025528Y-123497366D01*
X87037067Y-123521762D01*
X87046159Y-123547172D01*
X87052716Y-123573350D01*
X87056676Y-123600045D01*
X87058000Y-123627000D01*
X87058000Y-124877000D01*
X87056676Y-124903955D01*
X87052716Y-124930650D01*
X87046159Y-124956828D01*
X87037067Y-124982238D01*
X87025528Y-125006634D01*
X87011654Y-125029782D01*
X86995578Y-125051458D01*
X86977454Y-125071454D01*
X86957458Y-125089578D01*
X86935782Y-125105654D01*
X86912634Y-125119528D01*
X86888238Y-125131067D01*
X86862828Y-125140159D01*
X86836650Y-125146716D01*
X86809955Y-125150676D01*
X86783000Y-125152000D01*
X86233000Y-125152000D01*
X86206045Y-125150676D01*
X86179350Y-125146716D01*
X86153172Y-125140159D01*
X86127762Y-125131067D01*
X86103366Y-125119528D01*
X86080218Y-125105654D01*
X86058542Y-125089578D01*
X86038546Y-125071454D01*
X86020422Y-125051458D01*
X86004346Y-125029782D01*
X85990472Y-125006634D01*
X85978933Y-124982238D01*
X85969841Y-124956828D01*
X85963284Y-124930650D01*
X85959324Y-124903955D01*
X85958000Y-124877000D01*
X85958000Y-123627000D01*
X85959324Y-123600045D01*
X85963284Y-123573350D01*
X85969841Y-123547172D01*
X85978933Y-123521762D01*
X85990472Y-123497366D01*
X86004346Y-123474218D01*
X86020422Y-123452542D01*
X86038546Y-123432546D01*
X86058542Y-123414422D01*
X86080218Y-123398346D01*
X86103366Y-123384472D01*
X86127762Y-123372933D01*
X86153172Y-123363841D01*
X86179350Y-123357284D01*
X86206045Y-123353324D01*
X86233000Y-123352000D01*
X86783000Y-123352000D01*
X86809955Y-123353324D01*
G37*
G36*
X88079955Y-125423324D02*
G01*
X88106650Y-125427284D01*
X88132828Y-125433841D01*
X88158238Y-125442933D01*
X88182634Y-125454472D01*
X88205782Y-125468346D01*
X88227458Y-125484422D01*
X88247454Y-125502546D01*
X88265578Y-125522542D01*
X88281654Y-125544218D01*
X88295528Y-125567366D01*
X88307067Y-125591762D01*
X88316159Y-125617172D01*
X88322716Y-125643350D01*
X88326676Y-125670045D01*
X88328000Y-125697000D01*
X88328000Y-126947000D01*
X88326676Y-126973955D01*
X88322716Y-127000650D01*
X88316159Y-127026828D01*
X88307067Y-127052238D01*
X88295528Y-127076634D01*
X88281654Y-127099782D01*
X88265578Y-127121458D01*
X88247454Y-127141454D01*
X88227458Y-127159578D01*
X88205782Y-127175654D01*
X88182634Y-127189528D01*
X88158238Y-127201067D01*
X88132828Y-127210159D01*
X88106650Y-127216716D01*
X88079955Y-127220676D01*
X88053000Y-127222000D01*
X87503000Y-127222000D01*
X87476045Y-127220676D01*
X87449350Y-127216716D01*
X87423172Y-127210159D01*
X87397762Y-127201067D01*
X87373366Y-127189528D01*
X87350218Y-127175654D01*
X87328542Y-127159578D01*
X87308546Y-127141454D01*
X87290422Y-127121458D01*
X87274346Y-127099782D01*
X87260472Y-127076634D01*
X87248933Y-127052238D01*
X87239841Y-127026828D01*
X87233284Y-127000650D01*
X87229324Y-126973955D01*
X87228000Y-126947000D01*
X87228000Y-125697000D01*
X87229324Y-125670045D01*
X87233284Y-125643350D01*
X87239841Y-125617172D01*
X87248933Y-125591762D01*
X87260472Y-125567366D01*
X87274346Y-125544218D01*
X87290422Y-125522542D01*
X87308546Y-125502546D01*
X87328542Y-125484422D01*
X87350218Y-125468346D01*
X87373366Y-125454472D01*
X87397762Y-125442933D01*
X87423172Y-125433841D01*
X87449350Y-125427284D01*
X87476045Y-125423324D01*
X87503000Y-125422000D01*
X88053000Y-125422000D01*
X88079955Y-125423324D01*
G37*
D22*
X85238000Y-126322000D03*
X85408000Y-140497000D03*
D23*
G36*
X88249955Y-139598324D02*
G01*
X88276650Y-139602284D01*
X88302828Y-139608841D01*
X88328238Y-139617933D01*
X88352634Y-139629472D01*
X88375782Y-139643346D01*
X88397458Y-139659422D01*
X88417454Y-139677546D01*
X88435578Y-139697542D01*
X88451654Y-139719218D01*
X88465528Y-139742366D01*
X88477067Y-139766762D01*
X88486159Y-139792172D01*
X88492716Y-139818350D01*
X88496676Y-139845045D01*
X88498000Y-139872000D01*
X88498000Y-141122000D01*
X88496676Y-141148955D01*
X88492716Y-141175650D01*
X88486159Y-141201828D01*
X88477067Y-141227238D01*
X88465528Y-141251634D01*
X88451654Y-141274782D01*
X88435578Y-141296458D01*
X88417454Y-141316454D01*
X88397458Y-141334578D01*
X88375782Y-141350654D01*
X88352634Y-141364528D01*
X88328238Y-141376067D01*
X88302828Y-141385159D01*
X88276650Y-141391716D01*
X88249955Y-141395676D01*
X88223000Y-141397000D01*
X87673000Y-141397000D01*
X87646045Y-141395676D01*
X87619350Y-141391716D01*
X87593172Y-141385159D01*
X87567762Y-141376067D01*
X87543366Y-141364528D01*
X87520218Y-141350654D01*
X87498542Y-141334578D01*
X87478546Y-141316454D01*
X87460422Y-141296458D01*
X87444346Y-141274782D01*
X87430472Y-141251634D01*
X87418933Y-141227238D01*
X87409841Y-141201828D01*
X87403284Y-141175650D01*
X87399324Y-141148955D01*
X87398000Y-141122000D01*
X87398000Y-139872000D01*
X87399324Y-139845045D01*
X87403284Y-139818350D01*
X87409841Y-139792172D01*
X87418933Y-139766762D01*
X87430472Y-139742366D01*
X87444346Y-139719218D01*
X87460422Y-139697542D01*
X87478546Y-139677546D01*
X87498542Y-139659422D01*
X87520218Y-139643346D01*
X87543366Y-139629472D01*
X87567762Y-139617933D01*
X87593172Y-139608841D01*
X87619350Y-139602284D01*
X87646045Y-139598324D01*
X87673000Y-139597000D01*
X88223000Y-139597000D01*
X88249955Y-139598324D01*
G37*
G36*
X86979955Y-137528324D02*
G01*
X87006650Y-137532284D01*
X87032828Y-137538841D01*
X87058238Y-137547933D01*
X87082634Y-137559472D01*
X87105782Y-137573346D01*
X87127458Y-137589422D01*
X87147454Y-137607546D01*
X87165578Y-137627542D01*
X87181654Y-137649218D01*
X87195528Y-137672366D01*
X87207067Y-137696762D01*
X87216159Y-137722172D01*
X87222716Y-137748350D01*
X87226676Y-137775045D01*
X87228000Y-137802000D01*
X87228000Y-139052000D01*
X87226676Y-139078955D01*
X87222716Y-139105650D01*
X87216159Y-139131828D01*
X87207067Y-139157238D01*
X87195528Y-139181634D01*
X87181654Y-139204782D01*
X87165578Y-139226458D01*
X87147454Y-139246454D01*
X87127458Y-139264578D01*
X87105782Y-139280654D01*
X87082634Y-139294528D01*
X87058238Y-139306067D01*
X87032828Y-139315159D01*
X87006650Y-139321716D01*
X86979955Y-139325676D01*
X86953000Y-139327000D01*
X86403000Y-139327000D01*
X86376045Y-139325676D01*
X86349350Y-139321716D01*
X86323172Y-139315159D01*
X86297762Y-139306067D01*
X86273366Y-139294528D01*
X86250218Y-139280654D01*
X86228542Y-139264578D01*
X86208546Y-139246454D01*
X86190422Y-139226458D01*
X86174346Y-139204782D01*
X86160472Y-139181634D01*
X86148933Y-139157238D01*
X86139841Y-139131828D01*
X86133284Y-139105650D01*
X86129324Y-139078955D01*
X86128000Y-139052000D01*
X86128000Y-137802000D01*
X86129324Y-137775045D01*
X86133284Y-137748350D01*
X86139841Y-137722172D01*
X86148933Y-137696762D01*
X86160472Y-137672366D01*
X86174346Y-137649218D01*
X86190422Y-137627542D01*
X86208546Y-137607546D01*
X86228542Y-137589422D01*
X86250218Y-137573346D01*
X86273366Y-137559472D01*
X86297762Y-137547933D01*
X86323172Y-137538841D01*
X86349350Y-137532284D01*
X86376045Y-137528324D01*
X86403000Y-137527000D01*
X86953000Y-137527000D01*
X86979955Y-137528324D01*
G37*
D11*
X94933000Y-111522000D03*
D10*
X97473000Y-111522000D03*
X100013000Y-111522000D03*
D11*
X94933000Y-126127000D03*
D10*
X97473000Y-126127000D03*
X100013000Y-126127000D03*
X100013000Y-140097000D03*
X97473000Y-140097000D03*
D11*
X94933000Y-140097000D03*
D22*
X85408000Y-118907000D03*
D23*
G36*
X88249955Y-118008324D02*
G01*
X88276650Y-118012284D01*
X88302828Y-118018841D01*
X88328238Y-118027933D01*
X88352634Y-118039472D01*
X88375782Y-118053346D01*
X88397458Y-118069422D01*
X88417454Y-118087546D01*
X88435578Y-118107542D01*
X88451654Y-118129218D01*
X88465528Y-118152366D01*
X88477067Y-118176762D01*
X88486159Y-118202172D01*
X88492716Y-118228350D01*
X88496676Y-118255045D01*
X88498000Y-118282000D01*
X88498000Y-119532000D01*
X88496676Y-119558955D01*
X88492716Y-119585650D01*
X88486159Y-119611828D01*
X88477067Y-119637238D01*
X88465528Y-119661634D01*
X88451654Y-119684782D01*
X88435578Y-119706458D01*
X88417454Y-119726454D01*
X88397458Y-119744578D01*
X88375782Y-119760654D01*
X88352634Y-119774528D01*
X88328238Y-119786067D01*
X88302828Y-119795159D01*
X88276650Y-119801716D01*
X88249955Y-119805676D01*
X88223000Y-119807000D01*
X87673000Y-119807000D01*
X87646045Y-119805676D01*
X87619350Y-119801716D01*
X87593172Y-119795159D01*
X87567762Y-119786067D01*
X87543366Y-119774528D01*
X87520218Y-119760654D01*
X87498542Y-119744578D01*
X87478546Y-119726454D01*
X87460422Y-119706458D01*
X87444346Y-119684782D01*
X87430472Y-119661634D01*
X87418933Y-119637238D01*
X87409841Y-119611828D01*
X87403284Y-119585650D01*
X87399324Y-119558955D01*
X87398000Y-119532000D01*
X87398000Y-118282000D01*
X87399324Y-118255045D01*
X87403284Y-118228350D01*
X87409841Y-118202172D01*
X87418933Y-118176762D01*
X87430472Y-118152366D01*
X87444346Y-118129218D01*
X87460422Y-118107542D01*
X87478546Y-118087546D01*
X87498542Y-118069422D01*
X87520218Y-118053346D01*
X87543366Y-118039472D01*
X87567762Y-118027933D01*
X87593172Y-118018841D01*
X87619350Y-118012284D01*
X87646045Y-118008324D01*
X87673000Y-118007000D01*
X88223000Y-118007000D01*
X88249955Y-118008324D01*
G37*
G36*
X86979955Y-115938324D02*
G01*
X87006650Y-115942284D01*
X87032828Y-115948841D01*
X87058238Y-115957933D01*
X87082634Y-115969472D01*
X87105782Y-115983346D01*
X87127458Y-115999422D01*
X87147454Y-116017546D01*
X87165578Y-116037542D01*
X87181654Y-116059218D01*
X87195528Y-116082366D01*
X87207067Y-116106762D01*
X87216159Y-116132172D01*
X87222716Y-116158350D01*
X87226676Y-116185045D01*
X87228000Y-116212000D01*
X87228000Y-117462000D01*
X87226676Y-117488955D01*
X87222716Y-117515650D01*
X87216159Y-117541828D01*
X87207067Y-117567238D01*
X87195528Y-117591634D01*
X87181654Y-117614782D01*
X87165578Y-117636458D01*
X87147454Y-117656454D01*
X87127458Y-117674578D01*
X87105782Y-117690654D01*
X87082634Y-117704528D01*
X87058238Y-117716067D01*
X87032828Y-117725159D01*
X87006650Y-117731716D01*
X86979955Y-117735676D01*
X86953000Y-117737000D01*
X86403000Y-117737000D01*
X86376045Y-117735676D01*
X86349350Y-117731716D01*
X86323172Y-117725159D01*
X86297762Y-117716067D01*
X86273366Y-117704528D01*
X86250218Y-117690654D01*
X86228542Y-117674578D01*
X86208546Y-117656454D01*
X86190422Y-117636458D01*
X86174346Y-117614782D01*
X86160472Y-117591634D01*
X86148933Y-117567238D01*
X86139841Y-117541828D01*
X86133284Y-117515650D01*
X86129324Y-117488955D01*
X86128000Y-117462000D01*
X86128000Y-116212000D01*
X86129324Y-116185045D01*
X86133284Y-116158350D01*
X86139841Y-116132172D01*
X86148933Y-116106762D01*
X86160472Y-116082366D01*
X86174346Y-116059218D01*
X86190422Y-116037542D01*
X86208546Y-116017546D01*
X86228542Y-115999422D01*
X86250218Y-115983346D01*
X86273366Y-115969472D01*
X86297762Y-115957933D01*
X86323172Y-115948841D01*
X86349350Y-115942284D01*
X86376045Y-115938324D01*
X86403000Y-115937000D01*
X86953000Y-115937000D01*
X86979955Y-115938324D01*
G37*
G36*
X86979955Y-130353324D02*
G01*
X87006650Y-130357284D01*
X87032828Y-130363841D01*
X87058238Y-130372933D01*
X87082634Y-130384472D01*
X87105782Y-130398346D01*
X87127458Y-130414422D01*
X87147454Y-130432546D01*
X87165578Y-130452542D01*
X87181654Y-130474218D01*
X87195528Y-130497366D01*
X87207067Y-130521762D01*
X87216159Y-130547172D01*
X87222716Y-130573350D01*
X87226676Y-130600045D01*
X87228000Y-130627000D01*
X87228000Y-131877000D01*
X87226676Y-131903955D01*
X87222716Y-131930650D01*
X87216159Y-131956828D01*
X87207067Y-131982238D01*
X87195528Y-132006634D01*
X87181654Y-132029782D01*
X87165578Y-132051458D01*
X87147454Y-132071454D01*
X87127458Y-132089578D01*
X87105782Y-132105654D01*
X87082634Y-132119528D01*
X87058238Y-132131067D01*
X87032828Y-132140159D01*
X87006650Y-132146716D01*
X86979955Y-132150676D01*
X86953000Y-132152000D01*
X86403000Y-132152000D01*
X86376045Y-132150676D01*
X86349350Y-132146716D01*
X86323172Y-132140159D01*
X86297762Y-132131067D01*
X86273366Y-132119528D01*
X86250218Y-132105654D01*
X86228542Y-132089578D01*
X86208546Y-132071454D01*
X86190422Y-132051458D01*
X86174346Y-132029782D01*
X86160472Y-132006634D01*
X86148933Y-131982238D01*
X86139841Y-131956828D01*
X86133284Y-131930650D01*
X86129324Y-131903955D01*
X86128000Y-131877000D01*
X86128000Y-130627000D01*
X86129324Y-130600045D01*
X86133284Y-130573350D01*
X86139841Y-130547172D01*
X86148933Y-130521762D01*
X86160472Y-130497366D01*
X86174346Y-130474218D01*
X86190422Y-130452542D01*
X86208546Y-130432546D01*
X86228542Y-130414422D01*
X86250218Y-130398346D01*
X86273366Y-130384472D01*
X86297762Y-130372933D01*
X86323172Y-130363841D01*
X86349350Y-130357284D01*
X86376045Y-130353324D01*
X86403000Y-130352000D01*
X86953000Y-130352000D01*
X86979955Y-130353324D01*
G37*
G36*
X88249955Y-132423324D02*
G01*
X88276650Y-132427284D01*
X88302828Y-132433841D01*
X88328238Y-132442933D01*
X88352634Y-132454472D01*
X88375782Y-132468346D01*
X88397458Y-132484422D01*
X88417454Y-132502546D01*
X88435578Y-132522542D01*
X88451654Y-132544218D01*
X88465528Y-132567366D01*
X88477067Y-132591762D01*
X88486159Y-132617172D01*
X88492716Y-132643350D01*
X88496676Y-132670045D01*
X88498000Y-132697000D01*
X88498000Y-133947000D01*
X88496676Y-133973955D01*
X88492716Y-134000650D01*
X88486159Y-134026828D01*
X88477067Y-134052238D01*
X88465528Y-134076634D01*
X88451654Y-134099782D01*
X88435578Y-134121458D01*
X88417454Y-134141454D01*
X88397458Y-134159578D01*
X88375782Y-134175654D01*
X88352634Y-134189528D01*
X88328238Y-134201067D01*
X88302828Y-134210159D01*
X88276650Y-134216716D01*
X88249955Y-134220676D01*
X88223000Y-134222000D01*
X87673000Y-134222000D01*
X87646045Y-134220676D01*
X87619350Y-134216716D01*
X87593172Y-134210159D01*
X87567762Y-134201067D01*
X87543366Y-134189528D01*
X87520218Y-134175654D01*
X87498542Y-134159578D01*
X87478546Y-134141454D01*
X87460422Y-134121458D01*
X87444346Y-134099782D01*
X87430472Y-134076634D01*
X87418933Y-134052238D01*
X87409841Y-134026828D01*
X87403284Y-134000650D01*
X87399324Y-133973955D01*
X87398000Y-133947000D01*
X87398000Y-132697000D01*
X87399324Y-132670045D01*
X87403284Y-132643350D01*
X87409841Y-132617172D01*
X87418933Y-132591762D01*
X87430472Y-132567366D01*
X87444346Y-132544218D01*
X87460422Y-132522542D01*
X87478546Y-132502546D01*
X87498542Y-132484422D01*
X87520218Y-132468346D01*
X87543366Y-132454472D01*
X87567762Y-132442933D01*
X87593172Y-132433841D01*
X87619350Y-132427284D01*
X87646045Y-132423324D01*
X87673000Y-132422000D01*
X88223000Y-132422000D01*
X88249955Y-132423324D01*
G37*
D22*
X85408000Y-133322000D03*
D11*
X94933000Y-118507000D03*
D10*
X97473000Y-118507000D03*
X100013000Y-118507000D03*
D11*
X94933000Y-133112000D03*
D10*
X97473000Y-133112000D03*
X100013000Y-133112000D03*
D24*
X77724000Y-99060000D03*
D23*
G36*
X83618505Y-97261204D02*
G01*
X83642773Y-97264804D01*
X83666572Y-97270765D01*
X83689671Y-97279030D01*
X83711850Y-97289520D01*
X83732893Y-97302132D01*
X83752599Y-97316747D01*
X83770777Y-97333223D01*
X83787253Y-97351401D01*
X83801868Y-97371107D01*
X83814480Y-97392150D01*
X83824970Y-97414329D01*
X83833235Y-97437428D01*
X83839196Y-97461227D01*
X83842796Y-97485495D01*
X83844000Y-97509999D01*
X83844000Y-100610001D01*
X83842796Y-100634505D01*
X83839196Y-100658773D01*
X83833235Y-100682572D01*
X83824970Y-100705671D01*
X83814480Y-100727850D01*
X83801868Y-100748893D01*
X83787253Y-100768599D01*
X83770777Y-100786777D01*
X83752599Y-100803253D01*
X83732893Y-100817868D01*
X83711850Y-100830480D01*
X83689671Y-100840970D01*
X83666572Y-100849235D01*
X83642773Y-100855196D01*
X83618505Y-100858796D01*
X83594001Y-100860000D01*
X82013999Y-100860000D01*
X81989495Y-100858796D01*
X81965227Y-100855196D01*
X81941428Y-100849235D01*
X81918329Y-100840970D01*
X81896150Y-100830480D01*
X81875107Y-100817868D01*
X81855401Y-100803253D01*
X81837223Y-100786777D01*
X81820747Y-100768599D01*
X81806132Y-100748893D01*
X81793520Y-100727850D01*
X81783030Y-100705671D01*
X81774765Y-100682572D01*
X81768804Y-100658773D01*
X81765204Y-100634505D01*
X81764000Y-100610001D01*
X81764000Y-97509999D01*
X81765204Y-97485495D01*
X81768804Y-97461227D01*
X81774765Y-97437428D01*
X81783030Y-97414329D01*
X81793520Y-97392150D01*
X81806132Y-97371107D01*
X81820747Y-97351401D01*
X81837223Y-97333223D01*
X81855401Y-97316747D01*
X81875107Y-97302132D01*
X81896150Y-97289520D01*
X81918329Y-97279030D01*
X81941428Y-97270765D01*
X81965227Y-97264804D01*
X81989495Y-97261204D01*
X82013999Y-97260000D01*
X83594001Y-97260000D01*
X83618505Y-97261204D01*
G37*
D13*
X56388000Y-104140000D03*
D14*
X53848000Y-104140000D03*
X63000000Y-105664000D03*
D13*
X65540000Y-105664000D03*
X68080000Y-105664000D03*
D14*
X62992000Y-96520000D03*
D13*
X65532000Y-96520000D03*
X68072000Y-96520000D03*
M02*
