G04 #@! TF.GenerationSoftware,KiCad,Pcbnew,5.1.5*
G04 #@! TF.CreationDate,2020-05-11T17:48:03+02:00*
G04 #@! TF.ProjectId,esp-12_led_strip_controller,6573702d-3132-45f6-9c65-645f73747269,rev?*
G04 #@! TF.SameCoordinates,Original*
G04 #@! TF.FileFunction,Soldermask,Top*
G04 #@! TF.FilePolarity,Negative*
%FSLAX46Y46*%
G04 Gerber Fmt 4.6, Leading zero omitted, Abs format (unit mm)*
G04 Created by KiCad (PCBNEW 5.1.5) date 2020-05-11 17:48:03*
%MOMM*%
%LPD*%
G04 APERTURE LIST*
%ADD10C,0.100000*%
%ADD11O,1.905000X2.000000*%
%ADD12R,1.905000X2.000000*%
%ADD13C,3.200000*%
%ADD14O,1.700000X1.700000*%
%ADD15R,1.700000X1.700000*%
%ADD16C,2.000000*%
%ADD17R,2.000000X2.000000*%
%ADD18O,2.400000X2.400000*%
%ADD19R,2.400000X2.400000*%
%ADD20C,2.700000*%
%ADD21C,3.000000*%
%ADD22C,1.600000*%
%ADD23R,1.100000X1.800000*%
%ADD24R,0.800000X0.500000*%
%ADD25R,0.800000X0.400000*%
%ADD26R,1.000000X2.500000*%
%ADD27R,1.800000X1.000000*%
%ADD28O,2.080000X3.600000*%
G04 APERTURE END LIST*
D10*
G36*
X90938779Y-132826144D02*
G01*
X90961834Y-132829563D01*
X90984443Y-132835227D01*
X91006387Y-132843079D01*
X91027457Y-132853044D01*
X91047448Y-132865026D01*
X91066168Y-132878910D01*
X91083438Y-132894562D01*
X91099090Y-132911832D01*
X91112974Y-132930552D01*
X91124956Y-132950543D01*
X91134921Y-132971613D01*
X91142773Y-132993557D01*
X91148437Y-133016166D01*
X91151856Y-133039221D01*
X91153000Y-133062500D01*
X91153000Y-133637500D01*
X91151856Y-133660779D01*
X91148437Y-133683834D01*
X91142773Y-133706443D01*
X91134921Y-133728387D01*
X91124956Y-133749457D01*
X91112974Y-133769448D01*
X91099090Y-133788168D01*
X91083438Y-133805438D01*
X91066168Y-133821090D01*
X91047448Y-133834974D01*
X91027457Y-133846956D01*
X91006387Y-133856921D01*
X90984443Y-133864773D01*
X90961834Y-133870437D01*
X90938779Y-133873856D01*
X90915500Y-133875000D01*
X90440500Y-133875000D01*
X90417221Y-133873856D01*
X90394166Y-133870437D01*
X90371557Y-133864773D01*
X90349613Y-133856921D01*
X90328543Y-133846956D01*
X90308552Y-133834974D01*
X90289832Y-133821090D01*
X90272562Y-133805438D01*
X90256910Y-133788168D01*
X90243026Y-133769448D01*
X90231044Y-133749457D01*
X90221079Y-133728387D01*
X90213227Y-133706443D01*
X90207563Y-133683834D01*
X90204144Y-133660779D01*
X90203000Y-133637500D01*
X90203000Y-133062500D01*
X90204144Y-133039221D01*
X90207563Y-133016166D01*
X90213227Y-132993557D01*
X90221079Y-132971613D01*
X90231044Y-132950543D01*
X90243026Y-132930552D01*
X90256910Y-132911832D01*
X90272562Y-132894562D01*
X90289832Y-132878910D01*
X90308552Y-132865026D01*
X90328543Y-132853044D01*
X90349613Y-132843079D01*
X90371557Y-132835227D01*
X90394166Y-132829563D01*
X90417221Y-132826144D01*
X90440500Y-132825000D01*
X90915500Y-132825000D01*
X90938779Y-132826144D01*
G37*
G36*
X90938779Y-131076144D02*
G01*
X90961834Y-131079563D01*
X90984443Y-131085227D01*
X91006387Y-131093079D01*
X91027457Y-131103044D01*
X91047448Y-131115026D01*
X91066168Y-131128910D01*
X91083438Y-131144562D01*
X91099090Y-131161832D01*
X91112974Y-131180552D01*
X91124956Y-131200543D01*
X91134921Y-131221613D01*
X91142773Y-131243557D01*
X91148437Y-131266166D01*
X91151856Y-131289221D01*
X91153000Y-131312500D01*
X91153000Y-131887500D01*
X91151856Y-131910779D01*
X91148437Y-131933834D01*
X91142773Y-131956443D01*
X91134921Y-131978387D01*
X91124956Y-131999457D01*
X91112974Y-132019448D01*
X91099090Y-132038168D01*
X91083438Y-132055438D01*
X91066168Y-132071090D01*
X91047448Y-132084974D01*
X91027457Y-132096956D01*
X91006387Y-132106921D01*
X90984443Y-132114773D01*
X90961834Y-132120437D01*
X90938779Y-132123856D01*
X90915500Y-132125000D01*
X90440500Y-132125000D01*
X90417221Y-132123856D01*
X90394166Y-132120437D01*
X90371557Y-132114773D01*
X90349613Y-132106921D01*
X90328543Y-132096956D01*
X90308552Y-132084974D01*
X90289832Y-132071090D01*
X90272562Y-132055438D01*
X90256910Y-132038168D01*
X90243026Y-132019448D01*
X90231044Y-131999457D01*
X90221079Y-131978387D01*
X90213227Y-131956443D01*
X90207563Y-131933834D01*
X90204144Y-131910779D01*
X90203000Y-131887500D01*
X90203000Y-131312500D01*
X90204144Y-131289221D01*
X90207563Y-131266166D01*
X90213227Y-131243557D01*
X90221079Y-131221613D01*
X90231044Y-131200543D01*
X90243026Y-131180552D01*
X90256910Y-131161832D01*
X90272562Y-131144562D01*
X90289832Y-131128910D01*
X90308552Y-131115026D01*
X90328543Y-131103044D01*
X90349613Y-131093079D01*
X90371557Y-131085227D01*
X90394166Y-131079563D01*
X90417221Y-131076144D01*
X90440500Y-131075000D01*
X90915500Y-131075000D01*
X90938779Y-131076144D01*
G37*
G36*
X90938779Y-118320144D02*
G01*
X90961834Y-118323563D01*
X90984443Y-118329227D01*
X91006387Y-118337079D01*
X91027457Y-118347044D01*
X91047448Y-118359026D01*
X91066168Y-118372910D01*
X91083438Y-118388562D01*
X91099090Y-118405832D01*
X91112974Y-118424552D01*
X91124956Y-118444543D01*
X91134921Y-118465613D01*
X91142773Y-118487557D01*
X91148437Y-118510166D01*
X91151856Y-118533221D01*
X91153000Y-118556500D01*
X91153000Y-119131500D01*
X91151856Y-119154779D01*
X91148437Y-119177834D01*
X91142773Y-119200443D01*
X91134921Y-119222387D01*
X91124956Y-119243457D01*
X91112974Y-119263448D01*
X91099090Y-119282168D01*
X91083438Y-119299438D01*
X91066168Y-119315090D01*
X91047448Y-119328974D01*
X91027457Y-119340956D01*
X91006387Y-119350921D01*
X90984443Y-119358773D01*
X90961834Y-119364437D01*
X90938779Y-119367856D01*
X90915500Y-119369000D01*
X90440500Y-119369000D01*
X90417221Y-119367856D01*
X90394166Y-119364437D01*
X90371557Y-119358773D01*
X90349613Y-119350921D01*
X90328543Y-119340956D01*
X90308552Y-119328974D01*
X90289832Y-119315090D01*
X90272562Y-119299438D01*
X90256910Y-119282168D01*
X90243026Y-119263448D01*
X90231044Y-119243457D01*
X90221079Y-119222387D01*
X90213227Y-119200443D01*
X90207563Y-119177834D01*
X90204144Y-119154779D01*
X90203000Y-119131500D01*
X90203000Y-118556500D01*
X90204144Y-118533221D01*
X90207563Y-118510166D01*
X90213227Y-118487557D01*
X90221079Y-118465613D01*
X90231044Y-118444543D01*
X90243026Y-118424552D01*
X90256910Y-118405832D01*
X90272562Y-118388562D01*
X90289832Y-118372910D01*
X90308552Y-118359026D01*
X90328543Y-118347044D01*
X90349613Y-118337079D01*
X90371557Y-118329227D01*
X90394166Y-118323563D01*
X90417221Y-118320144D01*
X90440500Y-118319000D01*
X90915500Y-118319000D01*
X90938779Y-118320144D01*
G37*
G36*
X90938779Y-116570144D02*
G01*
X90961834Y-116573563D01*
X90984443Y-116579227D01*
X91006387Y-116587079D01*
X91027457Y-116597044D01*
X91047448Y-116609026D01*
X91066168Y-116622910D01*
X91083438Y-116638562D01*
X91099090Y-116655832D01*
X91112974Y-116674552D01*
X91124956Y-116694543D01*
X91134921Y-116715613D01*
X91142773Y-116737557D01*
X91148437Y-116760166D01*
X91151856Y-116783221D01*
X91153000Y-116806500D01*
X91153000Y-117381500D01*
X91151856Y-117404779D01*
X91148437Y-117427834D01*
X91142773Y-117450443D01*
X91134921Y-117472387D01*
X91124956Y-117493457D01*
X91112974Y-117513448D01*
X91099090Y-117532168D01*
X91083438Y-117549438D01*
X91066168Y-117565090D01*
X91047448Y-117578974D01*
X91027457Y-117590956D01*
X91006387Y-117600921D01*
X90984443Y-117608773D01*
X90961834Y-117614437D01*
X90938779Y-117617856D01*
X90915500Y-117619000D01*
X90440500Y-117619000D01*
X90417221Y-117617856D01*
X90394166Y-117614437D01*
X90371557Y-117608773D01*
X90349613Y-117600921D01*
X90328543Y-117590956D01*
X90308552Y-117578974D01*
X90289832Y-117565090D01*
X90272562Y-117549438D01*
X90256910Y-117532168D01*
X90243026Y-117513448D01*
X90231044Y-117493457D01*
X90221079Y-117472387D01*
X90213227Y-117450443D01*
X90207563Y-117427834D01*
X90204144Y-117404779D01*
X90203000Y-117381500D01*
X90203000Y-116806500D01*
X90204144Y-116783221D01*
X90207563Y-116760166D01*
X90213227Y-116737557D01*
X90221079Y-116715613D01*
X90231044Y-116694543D01*
X90243026Y-116674552D01*
X90256910Y-116655832D01*
X90272562Y-116638562D01*
X90289832Y-116622910D01*
X90308552Y-116609026D01*
X90328543Y-116597044D01*
X90349613Y-116587079D01*
X90371557Y-116579227D01*
X90394166Y-116573563D01*
X90417221Y-116570144D01*
X90440500Y-116569000D01*
X90915500Y-116569000D01*
X90938779Y-116570144D01*
G37*
G36*
X90938779Y-139938144D02*
G01*
X90961834Y-139941563D01*
X90984443Y-139947227D01*
X91006387Y-139955079D01*
X91027457Y-139965044D01*
X91047448Y-139977026D01*
X91066168Y-139990910D01*
X91083438Y-140006562D01*
X91099090Y-140023832D01*
X91112974Y-140042552D01*
X91124956Y-140062543D01*
X91134921Y-140083613D01*
X91142773Y-140105557D01*
X91148437Y-140128166D01*
X91151856Y-140151221D01*
X91153000Y-140174500D01*
X91153000Y-140749500D01*
X91151856Y-140772779D01*
X91148437Y-140795834D01*
X91142773Y-140818443D01*
X91134921Y-140840387D01*
X91124956Y-140861457D01*
X91112974Y-140881448D01*
X91099090Y-140900168D01*
X91083438Y-140917438D01*
X91066168Y-140933090D01*
X91047448Y-140946974D01*
X91027457Y-140958956D01*
X91006387Y-140968921D01*
X90984443Y-140976773D01*
X90961834Y-140982437D01*
X90938779Y-140985856D01*
X90915500Y-140987000D01*
X90440500Y-140987000D01*
X90417221Y-140985856D01*
X90394166Y-140982437D01*
X90371557Y-140976773D01*
X90349613Y-140968921D01*
X90328543Y-140958956D01*
X90308552Y-140946974D01*
X90289832Y-140933090D01*
X90272562Y-140917438D01*
X90256910Y-140900168D01*
X90243026Y-140881448D01*
X90231044Y-140861457D01*
X90221079Y-140840387D01*
X90213227Y-140818443D01*
X90207563Y-140795834D01*
X90204144Y-140772779D01*
X90203000Y-140749500D01*
X90203000Y-140174500D01*
X90204144Y-140151221D01*
X90207563Y-140128166D01*
X90213227Y-140105557D01*
X90221079Y-140083613D01*
X90231044Y-140062543D01*
X90243026Y-140042552D01*
X90256910Y-140023832D01*
X90272562Y-140006562D01*
X90289832Y-139990910D01*
X90308552Y-139977026D01*
X90328543Y-139965044D01*
X90349613Y-139955079D01*
X90371557Y-139947227D01*
X90394166Y-139941563D01*
X90417221Y-139938144D01*
X90440500Y-139937000D01*
X90915500Y-139937000D01*
X90938779Y-139938144D01*
G37*
G36*
X90938779Y-138188144D02*
G01*
X90961834Y-138191563D01*
X90984443Y-138197227D01*
X91006387Y-138205079D01*
X91027457Y-138215044D01*
X91047448Y-138227026D01*
X91066168Y-138240910D01*
X91083438Y-138256562D01*
X91099090Y-138273832D01*
X91112974Y-138292552D01*
X91124956Y-138312543D01*
X91134921Y-138333613D01*
X91142773Y-138355557D01*
X91148437Y-138378166D01*
X91151856Y-138401221D01*
X91153000Y-138424500D01*
X91153000Y-138999500D01*
X91151856Y-139022779D01*
X91148437Y-139045834D01*
X91142773Y-139068443D01*
X91134921Y-139090387D01*
X91124956Y-139111457D01*
X91112974Y-139131448D01*
X91099090Y-139150168D01*
X91083438Y-139167438D01*
X91066168Y-139183090D01*
X91047448Y-139196974D01*
X91027457Y-139208956D01*
X91006387Y-139218921D01*
X90984443Y-139226773D01*
X90961834Y-139232437D01*
X90938779Y-139235856D01*
X90915500Y-139237000D01*
X90440500Y-139237000D01*
X90417221Y-139235856D01*
X90394166Y-139232437D01*
X90371557Y-139226773D01*
X90349613Y-139218921D01*
X90328543Y-139208956D01*
X90308552Y-139196974D01*
X90289832Y-139183090D01*
X90272562Y-139167438D01*
X90256910Y-139150168D01*
X90243026Y-139131448D01*
X90231044Y-139111457D01*
X90221079Y-139090387D01*
X90213227Y-139068443D01*
X90207563Y-139045834D01*
X90204144Y-139022779D01*
X90203000Y-138999500D01*
X90203000Y-138424500D01*
X90204144Y-138401221D01*
X90207563Y-138378166D01*
X90213227Y-138355557D01*
X90221079Y-138333613D01*
X90231044Y-138312543D01*
X90243026Y-138292552D01*
X90256910Y-138273832D01*
X90272562Y-138256562D01*
X90289832Y-138240910D01*
X90308552Y-138227026D01*
X90328543Y-138215044D01*
X90349613Y-138205079D01*
X90371557Y-138197227D01*
X90394166Y-138191563D01*
X90417221Y-138188144D01*
X90440500Y-138187000D01*
X90915500Y-138187000D01*
X90938779Y-138188144D01*
G37*
G36*
X90938779Y-125714144D02*
G01*
X90961834Y-125717563D01*
X90984443Y-125723227D01*
X91006387Y-125731079D01*
X91027457Y-125741044D01*
X91047448Y-125753026D01*
X91066168Y-125766910D01*
X91083438Y-125782562D01*
X91099090Y-125799832D01*
X91112974Y-125818552D01*
X91124956Y-125838543D01*
X91134921Y-125859613D01*
X91142773Y-125881557D01*
X91148437Y-125904166D01*
X91151856Y-125927221D01*
X91153000Y-125950500D01*
X91153000Y-126525500D01*
X91151856Y-126548779D01*
X91148437Y-126571834D01*
X91142773Y-126594443D01*
X91134921Y-126616387D01*
X91124956Y-126637457D01*
X91112974Y-126657448D01*
X91099090Y-126676168D01*
X91083438Y-126693438D01*
X91066168Y-126709090D01*
X91047448Y-126722974D01*
X91027457Y-126734956D01*
X91006387Y-126744921D01*
X90984443Y-126752773D01*
X90961834Y-126758437D01*
X90938779Y-126761856D01*
X90915500Y-126763000D01*
X90440500Y-126763000D01*
X90417221Y-126761856D01*
X90394166Y-126758437D01*
X90371557Y-126752773D01*
X90349613Y-126744921D01*
X90328543Y-126734956D01*
X90308552Y-126722974D01*
X90289832Y-126709090D01*
X90272562Y-126693438D01*
X90256910Y-126676168D01*
X90243026Y-126657448D01*
X90231044Y-126637457D01*
X90221079Y-126616387D01*
X90213227Y-126594443D01*
X90207563Y-126571834D01*
X90204144Y-126548779D01*
X90203000Y-126525500D01*
X90203000Y-125950500D01*
X90204144Y-125927221D01*
X90207563Y-125904166D01*
X90213227Y-125881557D01*
X90221079Y-125859613D01*
X90231044Y-125838543D01*
X90243026Y-125818552D01*
X90256910Y-125799832D01*
X90272562Y-125782562D01*
X90289832Y-125766910D01*
X90308552Y-125753026D01*
X90328543Y-125741044D01*
X90349613Y-125731079D01*
X90371557Y-125723227D01*
X90394166Y-125717563D01*
X90417221Y-125714144D01*
X90440500Y-125713000D01*
X90915500Y-125713000D01*
X90938779Y-125714144D01*
G37*
G36*
X90938779Y-123964144D02*
G01*
X90961834Y-123967563D01*
X90984443Y-123973227D01*
X91006387Y-123981079D01*
X91027457Y-123991044D01*
X91047448Y-124003026D01*
X91066168Y-124016910D01*
X91083438Y-124032562D01*
X91099090Y-124049832D01*
X91112974Y-124068552D01*
X91124956Y-124088543D01*
X91134921Y-124109613D01*
X91142773Y-124131557D01*
X91148437Y-124154166D01*
X91151856Y-124177221D01*
X91153000Y-124200500D01*
X91153000Y-124775500D01*
X91151856Y-124798779D01*
X91148437Y-124821834D01*
X91142773Y-124844443D01*
X91134921Y-124866387D01*
X91124956Y-124887457D01*
X91112974Y-124907448D01*
X91099090Y-124926168D01*
X91083438Y-124943438D01*
X91066168Y-124959090D01*
X91047448Y-124972974D01*
X91027457Y-124984956D01*
X91006387Y-124994921D01*
X90984443Y-125002773D01*
X90961834Y-125008437D01*
X90938779Y-125011856D01*
X90915500Y-125013000D01*
X90440500Y-125013000D01*
X90417221Y-125011856D01*
X90394166Y-125008437D01*
X90371557Y-125002773D01*
X90349613Y-124994921D01*
X90328543Y-124984956D01*
X90308552Y-124972974D01*
X90289832Y-124959090D01*
X90272562Y-124943438D01*
X90256910Y-124926168D01*
X90243026Y-124907448D01*
X90231044Y-124887457D01*
X90221079Y-124866387D01*
X90213227Y-124844443D01*
X90207563Y-124821834D01*
X90204144Y-124798779D01*
X90203000Y-124775500D01*
X90203000Y-124200500D01*
X90204144Y-124177221D01*
X90207563Y-124154166D01*
X90213227Y-124131557D01*
X90221079Y-124109613D01*
X90231044Y-124088543D01*
X90243026Y-124068552D01*
X90256910Y-124049832D01*
X90272562Y-124032562D01*
X90289832Y-124016910D01*
X90308552Y-124003026D01*
X90328543Y-123991044D01*
X90349613Y-123981079D01*
X90371557Y-123973227D01*
X90394166Y-123967563D01*
X90417221Y-123964144D01*
X90440500Y-123963000D01*
X90915500Y-123963000D01*
X90938779Y-123964144D01*
G37*
D11*
X59944000Y-137668000D03*
X62484000Y-137668000D03*
D12*
X65024000Y-137668000D03*
D10*
G36*
X62794779Y-134654144D02*
G01*
X62817834Y-134657563D01*
X62840443Y-134663227D01*
X62862387Y-134671079D01*
X62883457Y-134681044D01*
X62903448Y-134693026D01*
X62922168Y-134706910D01*
X62939438Y-134722562D01*
X62955090Y-134739832D01*
X62968974Y-134758552D01*
X62980956Y-134778543D01*
X62990921Y-134799613D01*
X62998773Y-134821557D01*
X63004437Y-134844166D01*
X63007856Y-134867221D01*
X63009000Y-134890500D01*
X63009000Y-135365500D01*
X63007856Y-135388779D01*
X63004437Y-135411834D01*
X62998773Y-135434443D01*
X62990921Y-135456387D01*
X62980956Y-135477457D01*
X62968974Y-135497448D01*
X62955090Y-135516168D01*
X62939438Y-135533438D01*
X62922168Y-135549090D01*
X62903448Y-135562974D01*
X62883457Y-135574956D01*
X62862387Y-135584921D01*
X62840443Y-135592773D01*
X62817834Y-135598437D01*
X62794779Y-135601856D01*
X62771500Y-135603000D01*
X62196500Y-135603000D01*
X62173221Y-135601856D01*
X62150166Y-135598437D01*
X62127557Y-135592773D01*
X62105613Y-135584921D01*
X62084543Y-135574956D01*
X62064552Y-135562974D01*
X62045832Y-135549090D01*
X62028562Y-135533438D01*
X62012910Y-135516168D01*
X61999026Y-135497448D01*
X61987044Y-135477457D01*
X61977079Y-135456387D01*
X61969227Y-135434443D01*
X61963563Y-135411834D01*
X61960144Y-135388779D01*
X61959000Y-135365500D01*
X61959000Y-134890500D01*
X61960144Y-134867221D01*
X61963563Y-134844166D01*
X61969227Y-134821557D01*
X61977079Y-134799613D01*
X61987044Y-134778543D01*
X61999026Y-134758552D01*
X62012910Y-134739832D01*
X62028562Y-134722562D01*
X62045832Y-134706910D01*
X62064552Y-134693026D01*
X62084543Y-134681044D01*
X62105613Y-134671079D01*
X62127557Y-134663227D01*
X62150166Y-134657563D01*
X62173221Y-134654144D01*
X62196500Y-134653000D01*
X62771500Y-134653000D01*
X62794779Y-134654144D01*
G37*
G36*
X64544779Y-134654144D02*
G01*
X64567834Y-134657563D01*
X64590443Y-134663227D01*
X64612387Y-134671079D01*
X64633457Y-134681044D01*
X64653448Y-134693026D01*
X64672168Y-134706910D01*
X64689438Y-134722562D01*
X64705090Y-134739832D01*
X64718974Y-134758552D01*
X64730956Y-134778543D01*
X64740921Y-134799613D01*
X64748773Y-134821557D01*
X64754437Y-134844166D01*
X64757856Y-134867221D01*
X64759000Y-134890500D01*
X64759000Y-135365500D01*
X64757856Y-135388779D01*
X64754437Y-135411834D01*
X64748773Y-135434443D01*
X64740921Y-135456387D01*
X64730956Y-135477457D01*
X64718974Y-135497448D01*
X64705090Y-135516168D01*
X64689438Y-135533438D01*
X64672168Y-135549090D01*
X64653448Y-135562974D01*
X64633457Y-135574956D01*
X64612387Y-135584921D01*
X64590443Y-135592773D01*
X64567834Y-135598437D01*
X64544779Y-135601856D01*
X64521500Y-135603000D01*
X63946500Y-135603000D01*
X63923221Y-135601856D01*
X63900166Y-135598437D01*
X63877557Y-135592773D01*
X63855613Y-135584921D01*
X63834543Y-135574956D01*
X63814552Y-135562974D01*
X63795832Y-135549090D01*
X63778562Y-135533438D01*
X63762910Y-135516168D01*
X63749026Y-135497448D01*
X63737044Y-135477457D01*
X63727079Y-135456387D01*
X63719227Y-135434443D01*
X63713563Y-135411834D01*
X63710144Y-135388779D01*
X63709000Y-135365500D01*
X63709000Y-134890500D01*
X63710144Y-134867221D01*
X63713563Y-134844166D01*
X63719227Y-134821557D01*
X63727079Y-134799613D01*
X63737044Y-134778543D01*
X63749026Y-134758552D01*
X63762910Y-134739832D01*
X63778562Y-134722562D01*
X63795832Y-134706910D01*
X63814552Y-134693026D01*
X63834543Y-134681044D01*
X63855613Y-134671079D01*
X63877557Y-134663227D01*
X63900166Y-134657563D01*
X63923221Y-134654144D01*
X63946500Y-134653000D01*
X64521500Y-134653000D01*
X64544779Y-134654144D01*
G37*
G36*
X58504779Y-134654144D02*
G01*
X58527834Y-134657563D01*
X58550443Y-134663227D01*
X58572387Y-134671079D01*
X58593457Y-134681044D01*
X58613448Y-134693026D01*
X58632168Y-134706910D01*
X58649438Y-134722562D01*
X58665090Y-134739832D01*
X58678974Y-134758552D01*
X58690956Y-134778543D01*
X58700921Y-134799613D01*
X58708773Y-134821557D01*
X58714437Y-134844166D01*
X58717856Y-134867221D01*
X58719000Y-134890500D01*
X58719000Y-135365500D01*
X58717856Y-135388779D01*
X58714437Y-135411834D01*
X58708773Y-135434443D01*
X58700921Y-135456387D01*
X58690956Y-135477457D01*
X58678974Y-135497448D01*
X58665090Y-135516168D01*
X58649438Y-135533438D01*
X58632168Y-135549090D01*
X58613448Y-135562974D01*
X58593457Y-135574956D01*
X58572387Y-135584921D01*
X58550443Y-135592773D01*
X58527834Y-135598437D01*
X58504779Y-135601856D01*
X58481500Y-135603000D01*
X57906500Y-135603000D01*
X57883221Y-135601856D01*
X57860166Y-135598437D01*
X57837557Y-135592773D01*
X57815613Y-135584921D01*
X57794543Y-135574956D01*
X57774552Y-135562974D01*
X57755832Y-135549090D01*
X57738562Y-135533438D01*
X57722910Y-135516168D01*
X57709026Y-135497448D01*
X57697044Y-135477457D01*
X57687079Y-135456387D01*
X57679227Y-135434443D01*
X57673563Y-135411834D01*
X57670144Y-135388779D01*
X57669000Y-135365500D01*
X57669000Y-134890500D01*
X57670144Y-134867221D01*
X57673563Y-134844166D01*
X57679227Y-134821557D01*
X57687079Y-134799613D01*
X57697044Y-134778543D01*
X57709026Y-134758552D01*
X57722910Y-134739832D01*
X57738562Y-134722562D01*
X57755832Y-134706910D01*
X57774552Y-134693026D01*
X57794543Y-134681044D01*
X57815613Y-134671079D01*
X57837557Y-134663227D01*
X57860166Y-134657563D01*
X57883221Y-134654144D01*
X57906500Y-134653000D01*
X58481500Y-134653000D01*
X58504779Y-134654144D01*
G37*
G36*
X60254779Y-134654144D02*
G01*
X60277834Y-134657563D01*
X60300443Y-134663227D01*
X60322387Y-134671079D01*
X60343457Y-134681044D01*
X60363448Y-134693026D01*
X60382168Y-134706910D01*
X60399438Y-134722562D01*
X60415090Y-134739832D01*
X60428974Y-134758552D01*
X60440956Y-134778543D01*
X60450921Y-134799613D01*
X60458773Y-134821557D01*
X60464437Y-134844166D01*
X60467856Y-134867221D01*
X60469000Y-134890500D01*
X60469000Y-135365500D01*
X60467856Y-135388779D01*
X60464437Y-135411834D01*
X60458773Y-135434443D01*
X60450921Y-135456387D01*
X60440956Y-135477457D01*
X60428974Y-135497448D01*
X60415090Y-135516168D01*
X60399438Y-135533438D01*
X60382168Y-135549090D01*
X60363448Y-135562974D01*
X60343457Y-135574956D01*
X60322387Y-135584921D01*
X60300443Y-135592773D01*
X60277834Y-135598437D01*
X60254779Y-135601856D01*
X60231500Y-135603000D01*
X59656500Y-135603000D01*
X59633221Y-135601856D01*
X59610166Y-135598437D01*
X59587557Y-135592773D01*
X59565613Y-135584921D01*
X59544543Y-135574956D01*
X59524552Y-135562974D01*
X59505832Y-135549090D01*
X59488562Y-135533438D01*
X59472910Y-135516168D01*
X59459026Y-135497448D01*
X59447044Y-135477457D01*
X59437079Y-135456387D01*
X59429227Y-135434443D01*
X59423563Y-135411834D01*
X59420144Y-135388779D01*
X59419000Y-135365500D01*
X59419000Y-134890500D01*
X59420144Y-134867221D01*
X59423563Y-134844166D01*
X59429227Y-134821557D01*
X59437079Y-134799613D01*
X59447044Y-134778543D01*
X59459026Y-134758552D01*
X59472910Y-134739832D01*
X59488562Y-134722562D01*
X59505832Y-134706910D01*
X59524552Y-134693026D01*
X59544543Y-134681044D01*
X59565613Y-134671079D01*
X59587557Y-134663227D01*
X59610166Y-134657563D01*
X59633221Y-134654144D01*
X59656500Y-134653000D01*
X60231500Y-134653000D01*
X60254779Y-134654144D01*
G37*
D13*
X120000000Y-138000000D03*
X120000000Y-96000000D03*
D14*
X113540000Y-111110000D03*
X113540000Y-113650000D03*
X113540000Y-116190000D03*
X113540000Y-118730000D03*
X113540000Y-121270000D03*
D15*
X113540000Y-123810000D03*
X108460000Y-123810000D03*
D14*
X108460000Y-116190000D03*
X108460000Y-113650000D03*
X108460000Y-121270000D03*
X108460000Y-118730000D03*
X108460000Y-111110000D03*
D13*
X53000000Y-138000000D03*
X53000000Y-96000000D03*
D10*
G36*
X71063779Y-129574144D02*
G01*
X71086834Y-129577563D01*
X71109443Y-129583227D01*
X71131387Y-129591079D01*
X71152457Y-129601044D01*
X71172448Y-129613026D01*
X71191168Y-129626910D01*
X71208438Y-129642562D01*
X71224090Y-129659832D01*
X71237974Y-129678552D01*
X71249956Y-129698543D01*
X71259921Y-129719613D01*
X71267773Y-129741557D01*
X71273437Y-129764166D01*
X71276856Y-129787221D01*
X71278000Y-129810500D01*
X71278000Y-130285500D01*
X71276856Y-130308779D01*
X71273437Y-130331834D01*
X71267773Y-130354443D01*
X71259921Y-130376387D01*
X71249956Y-130397457D01*
X71237974Y-130417448D01*
X71224090Y-130436168D01*
X71208438Y-130453438D01*
X71191168Y-130469090D01*
X71172448Y-130482974D01*
X71152457Y-130494956D01*
X71131387Y-130504921D01*
X71109443Y-130512773D01*
X71086834Y-130518437D01*
X71063779Y-130521856D01*
X71040500Y-130523000D01*
X70465500Y-130523000D01*
X70442221Y-130521856D01*
X70419166Y-130518437D01*
X70396557Y-130512773D01*
X70374613Y-130504921D01*
X70353543Y-130494956D01*
X70333552Y-130482974D01*
X70314832Y-130469090D01*
X70297562Y-130453438D01*
X70281910Y-130436168D01*
X70268026Y-130417448D01*
X70256044Y-130397457D01*
X70246079Y-130376387D01*
X70238227Y-130354443D01*
X70232563Y-130331834D01*
X70229144Y-130308779D01*
X70228000Y-130285500D01*
X70228000Y-129810500D01*
X70229144Y-129787221D01*
X70232563Y-129764166D01*
X70238227Y-129741557D01*
X70246079Y-129719613D01*
X70256044Y-129698543D01*
X70268026Y-129678552D01*
X70281910Y-129659832D01*
X70297562Y-129642562D01*
X70314832Y-129626910D01*
X70333552Y-129613026D01*
X70353543Y-129601044D01*
X70374613Y-129591079D01*
X70396557Y-129583227D01*
X70419166Y-129577563D01*
X70442221Y-129574144D01*
X70465500Y-129573000D01*
X71040500Y-129573000D01*
X71063779Y-129574144D01*
G37*
G36*
X72813779Y-129574144D02*
G01*
X72836834Y-129577563D01*
X72859443Y-129583227D01*
X72881387Y-129591079D01*
X72902457Y-129601044D01*
X72922448Y-129613026D01*
X72941168Y-129626910D01*
X72958438Y-129642562D01*
X72974090Y-129659832D01*
X72987974Y-129678552D01*
X72999956Y-129698543D01*
X73009921Y-129719613D01*
X73017773Y-129741557D01*
X73023437Y-129764166D01*
X73026856Y-129787221D01*
X73028000Y-129810500D01*
X73028000Y-130285500D01*
X73026856Y-130308779D01*
X73023437Y-130331834D01*
X73017773Y-130354443D01*
X73009921Y-130376387D01*
X72999956Y-130397457D01*
X72987974Y-130417448D01*
X72974090Y-130436168D01*
X72958438Y-130453438D01*
X72941168Y-130469090D01*
X72922448Y-130482974D01*
X72902457Y-130494956D01*
X72881387Y-130504921D01*
X72859443Y-130512773D01*
X72836834Y-130518437D01*
X72813779Y-130521856D01*
X72790500Y-130523000D01*
X72215500Y-130523000D01*
X72192221Y-130521856D01*
X72169166Y-130518437D01*
X72146557Y-130512773D01*
X72124613Y-130504921D01*
X72103543Y-130494956D01*
X72083552Y-130482974D01*
X72064832Y-130469090D01*
X72047562Y-130453438D01*
X72031910Y-130436168D01*
X72018026Y-130417448D01*
X72006044Y-130397457D01*
X71996079Y-130376387D01*
X71988227Y-130354443D01*
X71982563Y-130331834D01*
X71979144Y-130308779D01*
X71978000Y-130285500D01*
X71978000Y-129810500D01*
X71979144Y-129787221D01*
X71982563Y-129764166D01*
X71988227Y-129741557D01*
X71996079Y-129719613D01*
X72006044Y-129698543D01*
X72018026Y-129678552D01*
X72031910Y-129659832D01*
X72047562Y-129642562D01*
X72064832Y-129626910D01*
X72083552Y-129613026D01*
X72103543Y-129601044D01*
X72124613Y-129591079D01*
X72146557Y-129583227D01*
X72169166Y-129577563D01*
X72192221Y-129574144D01*
X72215500Y-129573000D01*
X72790500Y-129573000D01*
X72813779Y-129574144D01*
G37*
D16*
X111855000Y-132503856D03*
D17*
X107855000Y-138848144D03*
D16*
X109855000Y-133176000D03*
D17*
X109855000Y-138176000D03*
D10*
G36*
X71478505Y-139509204D02*
G01*
X71502773Y-139512804D01*
X71526572Y-139518765D01*
X71549671Y-139527030D01*
X71571850Y-139537520D01*
X71592893Y-139550132D01*
X71612599Y-139564747D01*
X71630777Y-139581223D01*
X71647253Y-139599401D01*
X71661868Y-139619107D01*
X71674480Y-139640150D01*
X71684970Y-139662329D01*
X71693235Y-139685428D01*
X71699196Y-139709227D01*
X71702796Y-139733495D01*
X71704000Y-139757999D01*
X71704000Y-140658001D01*
X71702796Y-140682505D01*
X71699196Y-140706773D01*
X71693235Y-140730572D01*
X71684970Y-140753671D01*
X71674480Y-140775850D01*
X71661868Y-140796893D01*
X71647253Y-140816599D01*
X71630777Y-140834777D01*
X71612599Y-140851253D01*
X71592893Y-140865868D01*
X71571850Y-140878480D01*
X71549671Y-140888970D01*
X71526572Y-140897235D01*
X71502773Y-140903196D01*
X71478505Y-140906796D01*
X71454001Y-140908000D01*
X70803999Y-140908000D01*
X70779495Y-140906796D01*
X70755227Y-140903196D01*
X70731428Y-140897235D01*
X70708329Y-140888970D01*
X70686150Y-140878480D01*
X70665107Y-140865868D01*
X70645401Y-140851253D01*
X70627223Y-140834777D01*
X70610747Y-140816599D01*
X70596132Y-140796893D01*
X70583520Y-140775850D01*
X70573030Y-140753671D01*
X70564765Y-140730572D01*
X70558804Y-140706773D01*
X70555204Y-140682505D01*
X70554000Y-140658001D01*
X70554000Y-139757999D01*
X70555204Y-139733495D01*
X70558804Y-139709227D01*
X70564765Y-139685428D01*
X70573030Y-139662329D01*
X70583520Y-139640150D01*
X70596132Y-139619107D01*
X70610747Y-139599401D01*
X70627223Y-139581223D01*
X70645401Y-139564747D01*
X70665107Y-139550132D01*
X70686150Y-139537520D01*
X70708329Y-139527030D01*
X70731428Y-139518765D01*
X70755227Y-139512804D01*
X70779495Y-139509204D01*
X70803999Y-139508000D01*
X71454001Y-139508000D01*
X71478505Y-139509204D01*
G37*
G36*
X69428505Y-139509204D02*
G01*
X69452773Y-139512804D01*
X69476572Y-139518765D01*
X69499671Y-139527030D01*
X69521850Y-139537520D01*
X69542893Y-139550132D01*
X69562599Y-139564747D01*
X69580777Y-139581223D01*
X69597253Y-139599401D01*
X69611868Y-139619107D01*
X69624480Y-139640150D01*
X69634970Y-139662329D01*
X69643235Y-139685428D01*
X69649196Y-139709227D01*
X69652796Y-139733495D01*
X69654000Y-139757999D01*
X69654000Y-140658001D01*
X69652796Y-140682505D01*
X69649196Y-140706773D01*
X69643235Y-140730572D01*
X69634970Y-140753671D01*
X69624480Y-140775850D01*
X69611868Y-140796893D01*
X69597253Y-140816599D01*
X69580777Y-140834777D01*
X69562599Y-140851253D01*
X69542893Y-140865868D01*
X69521850Y-140878480D01*
X69499671Y-140888970D01*
X69476572Y-140897235D01*
X69452773Y-140903196D01*
X69428505Y-140906796D01*
X69404001Y-140908000D01*
X68753999Y-140908000D01*
X68729495Y-140906796D01*
X68705227Y-140903196D01*
X68681428Y-140897235D01*
X68658329Y-140888970D01*
X68636150Y-140878480D01*
X68615107Y-140865868D01*
X68595401Y-140851253D01*
X68577223Y-140834777D01*
X68560747Y-140816599D01*
X68546132Y-140796893D01*
X68533520Y-140775850D01*
X68523030Y-140753671D01*
X68514765Y-140730572D01*
X68508804Y-140706773D01*
X68505204Y-140682505D01*
X68504000Y-140658001D01*
X68504000Y-139757999D01*
X68505204Y-139733495D01*
X68508804Y-139709227D01*
X68514765Y-139685428D01*
X68523030Y-139662329D01*
X68533520Y-139640150D01*
X68546132Y-139619107D01*
X68560747Y-139599401D01*
X68577223Y-139581223D01*
X68595401Y-139564747D01*
X68615107Y-139550132D01*
X68636150Y-139537520D01*
X68658329Y-139527030D01*
X68681428Y-139518765D01*
X68705227Y-139512804D01*
X68729495Y-139509204D01*
X68753999Y-139508000D01*
X69404001Y-139508000D01*
X69428505Y-139509204D01*
G37*
G36*
X80157505Y-138526204D02*
G01*
X80181773Y-138529804D01*
X80205572Y-138535765D01*
X80228671Y-138544030D01*
X80250850Y-138554520D01*
X80271893Y-138567132D01*
X80291599Y-138581747D01*
X80309777Y-138598223D01*
X80326253Y-138616401D01*
X80340868Y-138636107D01*
X80353480Y-138657150D01*
X80363970Y-138679329D01*
X80372235Y-138702428D01*
X80378196Y-138726227D01*
X80381796Y-138750495D01*
X80383000Y-138774999D01*
X80383000Y-140625001D01*
X80381796Y-140649505D01*
X80378196Y-140673773D01*
X80372235Y-140697572D01*
X80363970Y-140720671D01*
X80353480Y-140742850D01*
X80340868Y-140763893D01*
X80326253Y-140783599D01*
X80309777Y-140801777D01*
X80291599Y-140818253D01*
X80271893Y-140832868D01*
X80250850Y-140845480D01*
X80228671Y-140855970D01*
X80205572Y-140864235D01*
X80181773Y-140870196D01*
X80157505Y-140873796D01*
X80133001Y-140875000D01*
X78382999Y-140875000D01*
X78358495Y-140873796D01*
X78334227Y-140870196D01*
X78310428Y-140864235D01*
X78287329Y-140855970D01*
X78265150Y-140845480D01*
X78244107Y-140832868D01*
X78224401Y-140818253D01*
X78206223Y-140801777D01*
X78189747Y-140783599D01*
X78175132Y-140763893D01*
X78162520Y-140742850D01*
X78152030Y-140720671D01*
X78143765Y-140697572D01*
X78137804Y-140673773D01*
X78134204Y-140649505D01*
X78133000Y-140625001D01*
X78133000Y-138774999D01*
X78134204Y-138750495D01*
X78137804Y-138726227D01*
X78143765Y-138702428D01*
X78152030Y-138679329D01*
X78162520Y-138657150D01*
X78175132Y-138636107D01*
X78189747Y-138616401D01*
X78206223Y-138598223D01*
X78224401Y-138581747D01*
X78244107Y-138567132D01*
X78265150Y-138554520D01*
X78287329Y-138544030D01*
X78310428Y-138535765D01*
X78334227Y-138529804D01*
X78358495Y-138526204D01*
X78382999Y-138525000D01*
X80133001Y-138525000D01*
X80157505Y-138526204D01*
G37*
G36*
X75057505Y-138526204D02*
G01*
X75081773Y-138529804D01*
X75105572Y-138535765D01*
X75128671Y-138544030D01*
X75150850Y-138554520D01*
X75171893Y-138567132D01*
X75191599Y-138581747D01*
X75209777Y-138598223D01*
X75226253Y-138616401D01*
X75240868Y-138636107D01*
X75253480Y-138657150D01*
X75263970Y-138679329D01*
X75272235Y-138702428D01*
X75278196Y-138726227D01*
X75281796Y-138750495D01*
X75283000Y-138774999D01*
X75283000Y-140625001D01*
X75281796Y-140649505D01*
X75278196Y-140673773D01*
X75272235Y-140697572D01*
X75263970Y-140720671D01*
X75253480Y-140742850D01*
X75240868Y-140763893D01*
X75226253Y-140783599D01*
X75209777Y-140801777D01*
X75191599Y-140818253D01*
X75171893Y-140832868D01*
X75150850Y-140845480D01*
X75128671Y-140855970D01*
X75105572Y-140864235D01*
X75081773Y-140870196D01*
X75057505Y-140873796D01*
X75033001Y-140875000D01*
X73282999Y-140875000D01*
X73258495Y-140873796D01*
X73234227Y-140870196D01*
X73210428Y-140864235D01*
X73187329Y-140855970D01*
X73165150Y-140845480D01*
X73144107Y-140832868D01*
X73124401Y-140818253D01*
X73106223Y-140801777D01*
X73089747Y-140783599D01*
X73075132Y-140763893D01*
X73062520Y-140742850D01*
X73052030Y-140720671D01*
X73043765Y-140697572D01*
X73037804Y-140673773D01*
X73034204Y-140649505D01*
X73033000Y-140625001D01*
X73033000Y-138774999D01*
X73034204Y-138750495D01*
X73037804Y-138726227D01*
X73043765Y-138702428D01*
X73052030Y-138679329D01*
X73062520Y-138657150D01*
X73075132Y-138636107D01*
X73089747Y-138616401D01*
X73106223Y-138598223D01*
X73124401Y-138581747D01*
X73144107Y-138567132D01*
X73165150Y-138554520D01*
X73187329Y-138544030D01*
X73210428Y-138535765D01*
X73234227Y-138529804D01*
X73258495Y-138526204D01*
X73282999Y-138525000D01*
X75033001Y-138525000D01*
X75057505Y-138526204D01*
G37*
D18*
X109220000Y-105664000D03*
D19*
X93980000Y-105664000D03*
D10*
G36*
X77336000Y-106954000D02*
G01*
X79636000Y-106954000D01*
X79036000Y-110554000D01*
X77936000Y-110554000D01*
X77336000Y-106954000D01*
G37*
G36*
X79636000Y-116354000D02*
G01*
X77336000Y-116354000D01*
X77936000Y-112754000D01*
X79036000Y-112754000D01*
X79636000Y-116354000D01*
G37*
D20*
X101750000Y-98000000D03*
D21*
X90500000Y-98000000D03*
X113000000Y-98000000D03*
D22*
X78486000Y-121238000D03*
X78486000Y-126238000D03*
D23*
X85408000Y-111922000D03*
D10*
G36*
X88249955Y-111023324D02*
G01*
X88276650Y-111027284D01*
X88302828Y-111033841D01*
X88328238Y-111042933D01*
X88352634Y-111054472D01*
X88375782Y-111068346D01*
X88397458Y-111084422D01*
X88417454Y-111102546D01*
X88435578Y-111122542D01*
X88451654Y-111144218D01*
X88465528Y-111167366D01*
X88477067Y-111191762D01*
X88486159Y-111217172D01*
X88492716Y-111243350D01*
X88496676Y-111270045D01*
X88498000Y-111297000D01*
X88498000Y-112547000D01*
X88496676Y-112573955D01*
X88492716Y-112600650D01*
X88486159Y-112626828D01*
X88477067Y-112652238D01*
X88465528Y-112676634D01*
X88451654Y-112699782D01*
X88435578Y-112721458D01*
X88417454Y-112741454D01*
X88397458Y-112759578D01*
X88375782Y-112775654D01*
X88352634Y-112789528D01*
X88328238Y-112801067D01*
X88302828Y-112810159D01*
X88276650Y-112816716D01*
X88249955Y-112820676D01*
X88223000Y-112822000D01*
X87673000Y-112822000D01*
X87646045Y-112820676D01*
X87619350Y-112816716D01*
X87593172Y-112810159D01*
X87567762Y-112801067D01*
X87543366Y-112789528D01*
X87520218Y-112775654D01*
X87498542Y-112759578D01*
X87478546Y-112741454D01*
X87460422Y-112721458D01*
X87444346Y-112699782D01*
X87430472Y-112676634D01*
X87418933Y-112652238D01*
X87409841Y-112626828D01*
X87403284Y-112600650D01*
X87399324Y-112573955D01*
X87398000Y-112547000D01*
X87398000Y-111297000D01*
X87399324Y-111270045D01*
X87403284Y-111243350D01*
X87409841Y-111217172D01*
X87418933Y-111191762D01*
X87430472Y-111167366D01*
X87444346Y-111144218D01*
X87460422Y-111122542D01*
X87478546Y-111102546D01*
X87498542Y-111084422D01*
X87520218Y-111068346D01*
X87543366Y-111054472D01*
X87567762Y-111042933D01*
X87593172Y-111033841D01*
X87619350Y-111027284D01*
X87646045Y-111023324D01*
X87673000Y-111022000D01*
X88223000Y-111022000D01*
X88249955Y-111023324D01*
G37*
G36*
X86979955Y-108953324D02*
G01*
X87006650Y-108957284D01*
X87032828Y-108963841D01*
X87058238Y-108972933D01*
X87082634Y-108984472D01*
X87105782Y-108998346D01*
X87127458Y-109014422D01*
X87147454Y-109032546D01*
X87165578Y-109052542D01*
X87181654Y-109074218D01*
X87195528Y-109097366D01*
X87207067Y-109121762D01*
X87216159Y-109147172D01*
X87222716Y-109173350D01*
X87226676Y-109200045D01*
X87228000Y-109227000D01*
X87228000Y-110477000D01*
X87226676Y-110503955D01*
X87222716Y-110530650D01*
X87216159Y-110556828D01*
X87207067Y-110582238D01*
X87195528Y-110606634D01*
X87181654Y-110629782D01*
X87165578Y-110651458D01*
X87147454Y-110671454D01*
X87127458Y-110689578D01*
X87105782Y-110705654D01*
X87082634Y-110719528D01*
X87058238Y-110731067D01*
X87032828Y-110740159D01*
X87006650Y-110746716D01*
X86979955Y-110750676D01*
X86953000Y-110752000D01*
X86403000Y-110752000D01*
X86376045Y-110750676D01*
X86349350Y-110746716D01*
X86323172Y-110740159D01*
X86297762Y-110731067D01*
X86273366Y-110719528D01*
X86250218Y-110705654D01*
X86228542Y-110689578D01*
X86208546Y-110671454D01*
X86190422Y-110651458D01*
X86174346Y-110629782D01*
X86160472Y-110606634D01*
X86148933Y-110582238D01*
X86139841Y-110556828D01*
X86133284Y-110530650D01*
X86129324Y-110503955D01*
X86128000Y-110477000D01*
X86128000Y-109227000D01*
X86129324Y-109200045D01*
X86133284Y-109173350D01*
X86139841Y-109147172D01*
X86148933Y-109121762D01*
X86160472Y-109097366D01*
X86174346Y-109074218D01*
X86190422Y-109052542D01*
X86208546Y-109032546D01*
X86228542Y-109014422D01*
X86250218Y-108998346D01*
X86273366Y-108984472D01*
X86297762Y-108972933D01*
X86323172Y-108963841D01*
X86349350Y-108957284D01*
X86376045Y-108953324D01*
X86403000Y-108952000D01*
X86953000Y-108952000D01*
X86979955Y-108953324D01*
G37*
G36*
X86809955Y-123353324D02*
G01*
X86836650Y-123357284D01*
X86862828Y-123363841D01*
X86888238Y-123372933D01*
X86912634Y-123384472D01*
X86935782Y-123398346D01*
X86957458Y-123414422D01*
X86977454Y-123432546D01*
X86995578Y-123452542D01*
X87011654Y-123474218D01*
X87025528Y-123497366D01*
X87037067Y-123521762D01*
X87046159Y-123547172D01*
X87052716Y-123573350D01*
X87056676Y-123600045D01*
X87058000Y-123627000D01*
X87058000Y-124877000D01*
X87056676Y-124903955D01*
X87052716Y-124930650D01*
X87046159Y-124956828D01*
X87037067Y-124982238D01*
X87025528Y-125006634D01*
X87011654Y-125029782D01*
X86995578Y-125051458D01*
X86977454Y-125071454D01*
X86957458Y-125089578D01*
X86935782Y-125105654D01*
X86912634Y-125119528D01*
X86888238Y-125131067D01*
X86862828Y-125140159D01*
X86836650Y-125146716D01*
X86809955Y-125150676D01*
X86783000Y-125152000D01*
X86233000Y-125152000D01*
X86206045Y-125150676D01*
X86179350Y-125146716D01*
X86153172Y-125140159D01*
X86127762Y-125131067D01*
X86103366Y-125119528D01*
X86080218Y-125105654D01*
X86058542Y-125089578D01*
X86038546Y-125071454D01*
X86020422Y-125051458D01*
X86004346Y-125029782D01*
X85990472Y-125006634D01*
X85978933Y-124982238D01*
X85969841Y-124956828D01*
X85963284Y-124930650D01*
X85959324Y-124903955D01*
X85958000Y-124877000D01*
X85958000Y-123627000D01*
X85959324Y-123600045D01*
X85963284Y-123573350D01*
X85969841Y-123547172D01*
X85978933Y-123521762D01*
X85990472Y-123497366D01*
X86004346Y-123474218D01*
X86020422Y-123452542D01*
X86038546Y-123432546D01*
X86058542Y-123414422D01*
X86080218Y-123398346D01*
X86103366Y-123384472D01*
X86127762Y-123372933D01*
X86153172Y-123363841D01*
X86179350Y-123357284D01*
X86206045Y-123353324D01*
X86233000Y-123352000D01*
X86783000Y-123352000D01*
X86809955Y-123353324D01*
G37*
G36*
X88079955Y-125423324D02*
G01*
X88106650Y-125427284D01*
X88132828Y-125433841D01*
X88158238Y-125442933D01*
X88182634Y-125454472D01*
X88205782Y-125468346D01*
X88227458Y-125484422D01*
X88247454Y-125502546D01*
X88265578Y-125522542D01*
X88281654Y-125544218D01*
X88295528Y-125567366D01*
X88307067Y-125591762D01*
X88316159Y-125617172D01*
X88322716Y-125643350D01*
X88326676Y-125670045D01*
X88328000Y-125697000D01*
X88328000Y-126947000D01*
X88326676Y-126973955D01*
X88322716Y-127000650D01*
X88316159Y-127026828D01*
X88307067Y-127052238D01*
X88295528Y-127076634D01*
X88281654Y-127099782D01*
X88265578Y-127121458D01*
X88247454Y-127141454D01*
X88227458Y-127159578D01*
X88205782Y-127175654D01*
X88182634Y-127189528D01*
X88158238Y-127201067D01*
X88132828Y-127210159D01*
X88106650Y-127216716D01*
X88079955Y-127220676D01*
X88053000Y-127222000D01*
X87503000Y-127222000D01*
X87476045Y-127220676D01*
X87449350Y-127216716D01*
X87423172Y-127210159D01*
X87397762Y-127201067D01*
X87373366Y-127189528D01*
X87350218Y-127175654D01*
X87328542Y-127159578D01*
X87308546Y-127141454D01*
X87290422Y-127121458D01*
X87274346Y-127099782D01*
X87260472Y-127076634D01*
X87248933Y-127052238D01*
X87239841Y-127026828D01*
X87233284Y-127000650D01*
X87229324Y-126973955D01*
X87228000Y-126947000D01*
X87228000Y-125697000D01*
X87229324Y-125670045D01*
X87233284Y-125643350D01*
X87239841Y-125617172D01*
X87248933Y-125591762D01*
X87260472Y-125567366D01*
X87274346Y-125544218D01*
X87290422Y-125522542D01*
X87308546Y-125502546D01*
X87328542Y-125484422D01*
X87350218Y-125468346D01*
X87373366Y-125454472D01*
X87397762Y-125442933D01*
X87423172Y-125433841D01*
X87449350Y-125427284D01*
X87476045Y-125423324D01*
X87503000Y-125422000D01*
X88053000Y-125422000D01*
X88079955Y-125423324D01*
G37*
D23*
X85238000Y-126322000D03*
X85408000Y-140497000D03*
D10*
G36*
X88249955Y-139598324D02*
G01*
X88276650Y-139602284D01*
X88302828Y-139608841D01*
X88328238Y-139617933D01*
X88352634Y-139629472D01*
X88375782Y-139643346D01*
X88397458Y-139659422D01*
X88417454Y-139677546D01*
X88435578Y-139697542D01*
X88451654Y-139719218D01*
X88465528Y-139742366D01*
X88477067Y-139766762D01*
X88486159Y-139792172D01*
X88492716Y-139818350D01*
X88496676Y-139845045D01*
X88498000Y-139872000D01*
X88498000Y-141122000D01*
X88496676Y-141148955D01*
X88492716Y-141175650D01*
X88486159Y-141201828D01*
X88477067Y-141227238D01*
X88465528Y-141251634D01*
X88451654Y-141274782D01*
X88435578Y-141296458D01*
X88417454Y-141316454D01*
X88397458Y-141334578D01*
X88375782Y-141350654D01*
X88352634Y-141364528D01*
X88328238Y-141376067D01*
X88302828Y-141385159D01*
X88276650Y-141391716D01*
X88249955Y-141395676D01*
X88223000Y-141397000D01*
X87673000Y-141397000D01*
X87646045Y-141395676D01*
X87619350Y-141391716D01*
X87593172Y-141385159D01*
X87567762Y-141376067D01*
X87543366Y-141364528D01*
X87520218Y-141350654D01*
X87498542Y-141334578D01*
X87478546Y-141316454D01*
X87460422Y-141296458D01*
X87444346Y-141274782D01*
X87430472Y-141251634D01*
X87418933Y-141227238D01*
X87409841Y-141201828D01*
X87403284Y-141175650D01*
X87399324Y-141148955D01*
X87398000Y-141122000D01*
X87398000Y-139872000D01*
X87399324Y-139845045D01*
X87403284Y-139818350D01*
X87409841Y-139792172D01*
X87418933Y-139766762D01*
X87430472Y-139742366D01*
X87444346Y-139719218D01*
X87460422Y-139697542D01*
X87478546Y-139677546D01*
X87498542Y-139659422D01*
X87520218Y-139643346D01*
X87543366Y-139629472D01*
X87567762Y-139617933D01*
X87593172Y-139608841D01*
X87619350Y-139602284D01*
X87646045Y-139598324D01*
X87673000Y-139597000D01*
X88223000Y-139597000D01*
X88249955Y-139598324D01*
G37*
G36*
X86979955Y-137528324D02*
G01*
X87006650Y-137532284D01*
X87032828Y-137538841D01*
X87058238Y-137547933D01*
X87082634Y-137559472D01*
X87105782Y-137573346D01*
X87127458Y-137589422D01*
X87147454Y-137607546D01*
X87165578Y-137627542D01*
X87181654Y-137649218D01*
X87195528Y-137672366D01*
X87207067Y-137696762D01*
X87216159Y-137722172D01*
X87222716Y-137748350D01*
X87226676Y-137775045D01*
X87228000Y-137802000D01*
X87228000Y-139052000D01*
X87226676Y-139078955D01*
X87222716Y-139105650D01*
X87216159Y-139131828D01*
X87207067Y-139157238D01*
X87195528Y-139181634D01*
X87181654Y-139204782D01*
X87165578Y-139226458D01*
X87147454Y-139246454D01*
X87127458Y-139264578D01*
X87105782Y-139280654D01*
X87082634Y-139294528D01*
X87058238Y-139306067D01*
X87032828Y-139315159D01*
X87006650Y-139321716D01*
X86979955Y-139325676D01*
X86953000Y-139327000D01*
X86403000Y-139327000D01*
X86376045Y-139325676D01*
X86349350Y-139321716D01*
X86323172Y-139315159D01*
X86297762Y-139306067D01*
X86273366Y-139294528D01*
X86250218Y-139280654D01*
X86228542Y-139264578D01*
X86208546Y-139246454D01*
X86190422Y-139226458D01*
X86174346Y-139204782D01*
X86160472Y-139181634D01*
X86148933Y-139157238D01*
X86139841Y-139131828D01*
X86133284Y-139105650D01*
X86129324Y-139078955D01*
X86128000Y-139052000D01*
X86128000Y-137802000D01*
X86129324Y-137775045D01*
X86133284Y-137748350D01*
X86139841Y-137722172D01*
X86148933Y-137696762D01*
X86160472Y-137672366D01*
X86174346Y-137649218D01*
X86190422Y-137627542D01*
X86208546Y-137607546D01*
X86228542Y-137589422D01*
X86250218Y-137573346D01*
X86273366Y-137559472D01*
X86297762Y-137547933D01*
X86323172Y-137538841D01*
X86349350Y-137532284D01*
X86376045Y-137528324D01*
X86403000Y-137527000D01*
X86953000Y-137527000D01*
X86979955Y-137528324D01*
G37*
D12*
X94933000Y-111522000D03*
D11*
X97473000Y-111522000D03*
X100013000Y-111522000D03*
D12*
X94933000Y-126127000D03*
D11*
X97473000Y-126127000D03*
X100013000Y-126127000D03*
X100013000Y-140097000D03*
X97473000Y-140097000D03*
D12*
X94933000Y-140097000D03*
D23*
X85408000Y-118907000D03*
D10*
G36*
X88249955Y-118008324D02*
G01*
X88276650Y-118012284D01*
X88302828Y-118018841D01*
X88328238Y-118027933D01*
X88352634Y-118039472D01*
X88375782Y-118053346D01*
X88397458Y-118069422D01*
X88417454Y-118087546D01*
X88435578Y-118107542D01*
X88451654Y-118129218D01*
X88465528Y-118152366D01*
X88477067Y-118176762D01*
X88486159Y-118202172D01*
X88492716Y-118228350D01*
X88496676Y-118255045D01*
X88498000Y-118282000D01*
X88498000Y-119532000D01*
X88496676Y-119558955D01*
X88492716Y-119585650D01*
X88486159Y-119611828D01*
X88477067Y-119637238D01*
X88465528Y-119661634D01*
X88451654Y-119684782D01*
X88435578Y-119706458D01*
X88417454Y-119726454D01*
X88397458Y-119744578D01*
X88375782Y-119760654D01*
X88352634Y-119774528D01*
X88328238Y-119786067D01*
X88302828Y-119795159D01*
X88276650Y-119801716D01*
X88249955Y-119805676D01*
X88223000Y-119807000D01*
X87673000Y-119807000D01*
X87646045Y-119805676D01*
X87619350Y-119801716D01*
X87593172Y-119795159D01*
X87567762Y-119786067D01*
X87543366Y-119774528D01*
X87520218Y-119760654D01*
X87498542Y-119744578D01*
X87478546Y-119726454D01*
X87460422Y-119706458D01*
X87444346Y-119684782D01*
X87430472Y-119661634D01*
X87418933Y-119637238D01*
X87409841Y-119611828D01*
X87403284Y-119585650D01*
X87399324Y-119558955D01*
X87398000Y-119532000D01*
X87398000Y-118282000D01*
X87399324Y-118255045D01*
X87403284Y-118228350D01*
X87409841Y-118202172D01*
X87418933Y-118176762D01*
X87430472Y-118152366D01*
X87444346Y-118129218D01*
X87460422Y-118107542D01*
X87478546Y-118087546D01*
X87498542Y-118069422D01*
X87520218Y-118053346D01*
X87543366Y-118039472D01*
X87567762Y-118027933D01*
X87593172Y-118018841D01*
X87619350Y-118012284D01*
X87646045Y-118008324D01*
X87673000Y-118007000D01*
X88223000Y-118007000D01*
X88249955Y-118008324D01*
G37*
G36*
X86979955Y-115938324D02*
G01*
X87006650Y-115942284D01*
X87032828Y-115948841D01*
X87058238Y-115957933D01*
X87082634Y-115969472D01*
X87105782Y-115983346D01*
X87127458Y-115999422D01*
X87147454Y-116017546D01*
X87165578Y-116037542D01*
X87181654Y-116059218D01*
X87195528Y-116082366D01*
X87207067Y-116106762D01*
X87216159Y-116132172D01*
X87222716Y-116158350D01*
X87226676Y-116185045D01*
X87228000Y-116212000D01*
X87228000Y-117462000D01*
X87226676Y-117488955D01*
X87222716Y-117515650D01*
X87216159Y-117541828D01*
X87207067Y-117567238D01*
X87195528Y-117591634D01*
X87181654Y-117614782D01*
X87165578Y-117636458D01*
X87147454Y-117656454D01*
X87127458Y-117674578D01*
X87105782Y-117690654D01*
X87082634Y-117704528D01*
X87058238Y-117716067D01*
X87032828Y-117725159D01*
X87006650Y-117731716D01*
X86979955Y-117735676D01*
X86953000Y-117737000D01*
X86403000Y-117737000D01*
X86376045Y-117735676D01*
X86349350Y-117731716D01*
X86323172Y-117725159D01*
X86297762Y-117716067D01*
X86273366Y-117704528D01*
X86250218Y-117690654D01*
X86228542Y-117674578D01*
X86208546Y-117656454D01*
X86190422Y-117636458D01*
X86174346Y-117614782D01*
X86160472Y-117591634D01*
X86148933Y-117567238D01*
X86139841Y-117541828D01*
X86133284Y-117515650D01*
X86129324Y-117488955D01*
X86128000Y-117462000D01*
X86128000Y-116212000D01*
X86129324Y-116185045D01*
X86133284Y-116158350D01*
X86139841Y-116132172D01*
X86148933Y-116106762D01*
X86160472Y-116082366D01*
X86174346Y-116059218D01*
X86190422Y-116037542D01*
X86208546Y-116017546D01*
X86228542Y-115999422D01*
X86250218Y-115983346D01*
X86273366Y-115969472D01*
X86297762Y-115957933D01*
X86323172Y-115948841D01*
X86349350Y-115942284D01*
X86376045Y-115938324D01*
X86403000Y-115937000D01*
X86953000Y-115937000D01*
X86979955Y-115938324D01*
G37*
G36*
X86979955Y-130353324D02*
G01*
X87006650Y-130357284D01*
X87032828Y-130363841D01*
X87058238Y-130372933D01*
X87082634Y-130384472D01*
X87105782Y-130398346D01*
X87127458Y-130414422D01*
X87147454Y-130432546D01*
X87165578Y-130452542D01*
X87181654Y-130474218D01*
X87195528Y-130497366D01*
X87207067Y-130521762D01*
X87216159Y-130547172D01*
X87222716Y-130573350D01*
X87226676Y-130600045D01*
X87228000Y-130627000D01*
X87228000Y-131877000D01*
X87226676Y-131903955D01*
X87222716Y-131930650D01*
X87216159Y-131956828D01*
X87207067Y-131982238D01*
X87195528Y-132006634D01*
X87181654Y-132029782D01*
X87165578Y-132051458D01*
X87147454Y-132071454D01*
X87127458Y-132089578D01*
X87105782Y-132105654D01*
X87082634Y-132119528D01*
X87058238Y-132131067D01*
X87032828Y-132140159D01*
X87006650Y-132146716D01*
X86979955Y-132150676D01*
X86953000Y-132152000D01*
X86403000Y-132152000D01*
X86376045Y-132150676D01*
X86349350Y-132146716D01*
X86323172Y-132140159D01*
X86297762Y-132131067D01*
X86273366Y-132119528D01*
X86250218Y-132105654D01*
X86228542Y-132089578D01*
X86208546Y-132071454D01*
X86190422Y-132051458D01*
X86174346Y-132029782D01*
X86160472Y-132006634D01*
X86148933Y-131982238D01*
X86139841Y-131956828D01*
X86133284Y-131930650D01*
X86129324Y-131903955D01*
X86128000Y-131877000D01*
X86128000Y-130627000D01*
X86129324Y-130600045D01*
X86133284Y-130573350D01*
X86139841Y-130547172D01*
X86148933Y-130521762D01*
X86160472Y-130497366D01*
X86174346Y-130474218D01*
X86190422Y-130452542D01*
X86208546Y-130432546D01*
X86228542Y-130414422D01*
X86250218Y-130398346D01*
X86273366Y-130384472D01*
X86297762Y-130372933D01*
X86323172Y-130363841D01*
X86349350Y-130357284D01*
X86376045Y-130353324D01*
X86403000Y-130352000D01*
X86953000Y-130352000D01*
X86979955Y-130353324D01*
G37*
G36*
X88249955Y-132423324D02*
G01*
X88276650Y-132427284D01*
X88302828Y-132433841D01*
X88328238Y-132442933D01*
X88352634Y-132454472D01*
X88375782Y-132468346D01*
X88397458Y-132484422D01*
X88417454Y-132502546D01*
X88435578Y-132522542D01*
X88451654Y-132544218D01*
X88465528Y-132567366D01*
X88477067Y-132591762D01*
X88486159Y-132617172D01*
X88492716Y-132643350D01*
X88496676Y-132670045D01*
X88498000Y-132697000D01*
X88498000Y-133947000D01*
X88496676Y-133973955D01*
X88492716Y-134000650D01*
X88486159Y-134026828D01*
X88477067Y-134052238D01*
X88465528Y-134076634D01*
X88451654Y-134099782D01*
X88435578Y-134121458D01*
X88417454Y-134141454D01*
X88397458Y-134159578D01*
X88375782Y-134175654D01*
X88352634Y-134189528D01*
X88328238Y-134201067D01*
X88302828Y-134210159D01*
X88276650Y-134216716D01*
X88249955Y-134220676D01*
X88223000Y-134222000D01*
X87673000Y-134222000D01*
X87646045Y-134220676D01*
X87619350Y-134216716D01*
X87593172Y-134210159D01*
X87567762Y-134201067D01*
X87543366Y-134189528D01*
X87520218Y-134175654D01*
X87498542Y-134159578D01*
X87478546Y-134141454D01*
X87460422Y-134121458D01*
X87444346Y-134099782D01*
X87430472Y-134076634D01*
X87418933Y-134052238D01*
X87409841Y-134026828D01*
X87403284Y-134000650D01*
X87399324Y-133973955D01*
X87398000Y-133947000D01*
X87398000Y-132697000D01*
X87399324Y-132670045D01*
X87403284Y-132643350D01*
X87409841Y-132617172D01*
X87418933Y-132591762D01*
X87430472Y-132567366D01*
X87444346Y-132544218D01*
X87460422Y-132522542D01*
X87478546Y-132502546D01*
X87498542Y-132484422D01*
X87520218Y-132468346D01*
X87543366Y-132454472D01*
X87567762Y-132442933D01*
X87593172Y-132433841D01*
X87619350Y-132427284D01*
X87646045Y-132423324D01*
X87673000Y-132422000D01*
X88223000Y-132422000D01*
X88249955Y-132423324D01*
G37*
D23*
X85408000Y-133322000D03*
D12*
X94933000Y-118507000D03*
D11*
X97473000Y-118507000D03*
X100013000Y-118507000D03*
D12*
X94933000Y-133112000D03*
D11*
X97473000Y-133112000D03*
X100013000Y-133112000D03*
D10*
G36*
X71888779Y-100060144D02*
G01*
X71911834Y-100063563D01*
X71934443Y-100069227D01*
X71956387Y-100077079D01*
X71977457Y-100087044D01*
X71997448Y-100099026D01*
X72016168Y-100112910D01*
X72033438Y-100128562D01*
X72049090Y-100145832D01*
X72062974Y-100164552D01*
X72074956Y-100184543D01*
X72084921Y-100205613D01*
X72092773Y-100227557D01*
X72098437Y-100250166D01*
X72101856Y-100273221D01*
X72103000Y-100296500D01*
X72103000Y-100871500D01*
X72101856Y-100894779D01*
X72098437Y-100917834D01*
X72092773Y-100940443D01*
X72084921Y-100962387D01*
X72074956Y-100983457D01*
X72062974Y-101003448D01*
X72049090Y-101022168D01*
X72033438Y-101039438D01*
X72016168Y-101055090D01*
X71997448Y-101068974D01*
X71977457Y-101080956D01*
X71956387Y-101090921D01*
X71934443Y-101098773D01*
X71911834Y-101104437D01*
X71888779Y-101107856D01*
X71865500Y-101109000D01*
X71390500Y-101109000D01*
X71367221Y-101107856D01*
X71344166Y-101104437D01*
X71321557Y-101098773D01*
X71299613Y-101090921D01*
X71278543Y-101080956D01*
X71258552Y-101068974D01*
X71239832Y-101055090D01*
X71222562Y-101039438D01*
X71206910Y-101022168D01*
X71193026Y-101003448D01*
X71181044Y-100983457D01*
X71171079Y-100962387D01*
X71163227Y-100940443D01*
X71157563Y-100917834D01*
X71154144Y-100894779D01*
X71153000Y-100871500D01*
X71153000Y-100296500D01*
X71154144Y-100273221D01*
X71157563Y-100250166D01*
X71163227Y-100227557D01*
X71171079Y-100205613D01*
X71181044Y-100184543D01*
X71193026Y-100164552D01*
X71206910Y-100145832D01*
X71222562Y-100128562D01*
X71239832Y-100112910D01*
X71258552Y-100099026D01*
X71278543Y-100087044D01*
X71299613Y-100077079D01*
X71321557Y-100069227D01*
X71344166Y-100063563D01*
X71367221Y-100060144D01*
X71390500Y-100059000D01*
X71865500Y-100059000D01*
X71888779Y-100060144D01*
G37*
G36*
X71888779Y-101810144D02*
G01*
X71911834Y-101813563D01*
X71934443Y-101819227D01*
X71956387Y-101827079D01*
X71977457Y-101837044D01*
X71997448Y-101849026D01*
X72016168Y-101862910D01*
X72033438Y-101878562D01*
X72049090Y-101895832D01*
X72062974Y-101914552D01*
X72074956Y-101934543D01*
X72084921Y-101955613D01*
X72092773Y-101977557D01*
X72098437Y-102000166D01*
X72101856Y-102023221D01*
X72103000Y-102046500D01*
X72103000Y-102621500D01*
X72101856Y-102644779D01*
X72098437Y-102667834D01*
X72092773Y-102690443D01*
X72084921Y-102712387D01*
X72074956Y-102733457D01*
X72062974Y-102753448D01*
X72049090Y-102772168D01*
X72033438Y-102789438D01*
X72016168Y-102805090D01*
X71997448Y-102818974D01*
X71977457Y-102830956D01*
X71956387Y-102840921D01*
X71934443Y-102848773D01*
X71911834Y-102854437D01*
X71888779Y-102857856D01*
X71865500Y-102859000D01*
X71390500Y-102859000D01*
X71367221Y-102857856D01*
X71344166Y-102854437D01*
X71321557Y-102848773D01*
X71299613Y-102840921D01*
X71278543Y-102830956D01*
X71258552Y-102818974D01*
X71239832Y-102805090D01*
X71222562Y-102789438D01*
X71206910Y-102772168D01*
X71193026Y-102753448D01*
X71181044Y-102733457D01*
X71171079Y-102712387D01*
X71163227Y-102690443D01*
X71157563Y-102667834D01*
X71154144Y-102644779D01*
X71153000Y-102621500D01*
X71153000Y-102046500D01*
X71154144Y-102023221D01*
X71157563Y-102000166D01*
X71163227Y-101977557D01*
X71171079Y-101955613D01*
X71181044Y-101934543D01*
X71193026Y-101914552D01*
X71206910Y-101895832D01*
X71222562Y-101878562D01*
X71239832Y-101862910D01*
X71258552Y-101849026D01*
X71278543Y-101837044D01*
X71299613Y-101827079D01*
X71321557Y-101819227D01*
X71344166Y-101813563D01*
X71367221Y-101810144D01*
X71390500Y-101809000D01*
X71865500Y-101809000D01*
X71888779Y-101810144D01*
G37*
G36*
X90938779Y-109712144D02*
G01*
X90961834Y-109715563D01*
X90984443Y-109721227D01*
X91006387Y-109729079D01*
X91027457Y-109739044D01*
X91047448Y-109751026D01*
X91066168Y-109764910D01*
X91083438Y-109780562D01*
X91099090Y-109797832D01*
X91112974Y-109816552D01*
X91124956Y-109836543D01*
X91134921Y-109857613D01*
X91142773Y-109879557D01*
X91148437Y-109902166D01*
X91151856Y-109925221D01*
X91153000Y-109948500D01*
X91153000Y-110523500D01*
X91151856Y-110546779D01*
X91148437Y-110569834D01*
X91142773Y-110592443D01*
X91134921Y-110614387D01*
X91124956Y-110635457D01*
X91112974Y-110655448D01*
X91099090Y-110674168D01*
X91083438Y-110691438D01*
X91066168Y-110707090D01*
X91047448Y-110720974D01*
X91027457Y-110732956D01*
X91006387Y-110742921D01*
X90984443Y-110750773D01*
X90961834Y-110756437D01*
X90938779Y-110759856D01*
X90915500Y-110761000D01*
X90440500Y-110761000D01*
X90417221Y-110759856D01*
X90394166Y-110756437D01*
X90371557Y-110750773D01*
X90349613Y-110742921D01*
X90328543Y-110732956D01*
X90308552Y-110720974D01*
X90289832Y-110707090D01*
X90272562Y-110691438D01*
X90256910Y-110674168D01*
X90243026Y-110655448D01*
X90231044Y-110635457D01*
X90221079Y-110614387D01*
X90213227Y-110592443D01*
X90207563Y-110569834D01*
X90204144Y-110546779D01*
X90203000Y-110523500D01*
X90203000Y-109948500D01*
X90204144Y-109925221D01*
X90207563Y-109902166D01*
X90213227Y-109879557D01*
X90221079Y-109857613D01*
X90231044Y-109836543D01*
X90243026Y-109816552D01*
X90256910Y-109797832D01*
X90272562Y-109780562D01*
X90289832Y-109764910D01*
X90308552Y-109751026D01*
X90328543Y-109739044D01*
X90349613Y-109729079D01*
X90371557Y-109721227D01*
X90394166Y-109715563D01*
X90417221Y-109712144D01*
X90440500Y-109711000D01*
X90915500Y-109711000D01*
X90938779Y-109712144D01*
G37*
G36*
X90938779Y-111462144D02*
G01*
X90961834Y-111465563D01*
X90984443Y-111471227D01*
X91006387Y-111479079D01*
X91027457Y-111489044D01*
X91047448Y-111501026D01*
X91066168Y-111514910D01*
X91083438Y-111530562D01*
X91099090Y-111547832D01*
X91112974Y-111566552D01*
X91124956Y-111586543D01*
X91134921Y-111607613D01*
X91142773Y-111629557D01*
X91148437Y-111652166D01*
X91151856Y-111675221D01*
X91153000Y-111698500D01*
X91153000Y-112273500D01*
X91151856Y-112296779D01*
X91148437Y-112319834D01*
X91142773Y-112342443D01*
X91134921Y-112364387D01*
X91124956Y-112385457D01*
X91112974Y-112405448D01*
X91099090Y-112424168D01*
X91083438Y-112441438D01*
X91066168Y-112457090D01*
X91047448Y-112470974D01*
X91027457Y-112482956D01*
X91006387Y-112492921D01*
X90984443Y-112500773D01*
X90961834Y-112506437D01*
X90938779Y-112509856D01*
X90915500Y-112511000D01*
X90440500Y-112511000D01*
X90417221Y-112509856D01*
X90394166Y-112506437D01*
X90371557Y-112500773D01*
X90349613Y-112492921D01*
X90328543Y-112482956D01*
X90308552Y-112470974D01*
X90289832Y-112457090D01*
X90272562Y-112441438D01*
X90256910Y-112424168D01*
X90243026Y-112405448D01*
X90231044Y-112385457D01*
X90221079Y-112364387D01*
X90213227Y-112342443D01*
X90207563Y-112319834D01*
X90204144Y-112296779D01*
X90203000Y-112273500D01*
X90203000Y-111698500D01*
X90204144Y-111675221D01*
X90207563Y-111652166D01*
X90213227Y-111629557D01*
X90221079Y-111607613D01*
X90231044Y-111586543D01*
X90243026Y-111566552D01*
X90256910Y-111547832D01*
X90272562Y-111530562D01*
X90289832Y-111514910D01*
X90308552Y-111501026D01*
X90328543Y-111489044D01*
X90349613Y-111479079D01*
X90371557Y-111471227D01*
X90394166Y-111465563D01*
X90417221Y-111462144D01*
X90440500Y-111461000D01*
X90915500Y-111461000D01*
X90938779Y-111462144D01*
G37*
D24*
X51954000Y-132880000D03*
D25*
X51954000Y-131280000D03*
X51954000Y-132080000D03*
D24*
X51954000Y-130480000D03*
D25*
X50154000Y-132080000D03*
D24*
X50154000Y-132880000D03*
D25*
X50154000Y-131280000D03*
D24*
X50154000Y-130480000D03*
X76570000Y-132404000D03*
D25*
X76570000Y-134004000D03*
X76570000Y-133204000D03*
D24*
X76570000Y-134804000D03*
D25*
X78370000Y-133204000D03*
D24*
X78370000Y-132404000D03*
D25*
X78370000Y-134004000D03*
D24*
X78370000Y-134804000D03*
D26*
X56460000Y-112320000D03*
X58460000Y-112320000D03*
X60460000Y-112320000D03*
X62460000Y-112320000D03*
X64460000Y-112320000D03*
X66460000Y-112320000D03*
X68460000Y-112320000D03*
X70460000Y-112320000D03*
D27*
X71960000Y-114920000D03*
X71960000Y-116920000D03*
X71960000Y-118920000D03*
X71960000Y-120920000D03*
X71960000Y-122920000D03*
X71960000Y-124920000D03*
D26*
X70460000Y-127520000D03*
X68460000Y-127520000D03*
X66460000Y-127520000D03*
X64460000Y-127520000D03*
X62460000Y-127520000D03*
X60460000Y-127520000D03*
X58460000Y-127520000D03*
X56460000Y-127520000D03*
D28*
X77724000Y-99060000D03*
D10*
G36*
X83618505Y-97261204D02*
G01*
X83642773Y-97264804D01*
X83666572Y-97270765D01*
X83689671Y-97279030D01*
X83711850Y-97289520D01*
X83732893Y-97302132D01*
X83752599Y-97316747D01*
X83770777Y-97333223D01*
X83787253Y-97351401D01*
X83801868Y-97371107D01*
X83814480Y-97392150D01*
X83824970Y-97414329D01*
X83833235Y-97437428D01*
X83839196Y-97461227D01*
X83842796Y-97485495D01*
X83844000Y-97509999D01*
X83844000Y-100610001D01*
X83842796Y-100634505D01*
X83839196Y-100658773D01*
X83833235Y-100682572D01*
X83824970Y-100705671D01*
X83814480Y-100727850D01*
X83801868Y-100748893D01*
X83787253Y-100768599D01*
X83770777Y-100786777D01*
X83752599Y-100803253D01*
X83732893Y-100817868D01*
X83711850Y-100830480D01*
X83689671Y-100840970D01*
X83666572Y-100849235D01*
X83642773Y-100855196D01*
X83618505Y-100858796D01*
X83594001Y-100860000D01*
X82013999Y-100860000D01*
X81989495Y-100858796D01*
X81965227Y-100855196D01*
X81941428Y-100849235D01*
X81918329Y-100840970D01*
X81896150Y-100830480D01*
X81875107Y-100817868D01*
X81855401Y-100803253D01*
X81837223Y-100786777D01*
X81820747Y-100768599D01*
X81806132Y-100748893D01*
X81793520Y-100727850D01*
X81783030Y-100705671D01*
X81774765Y-100682572D01*
X81768804Y-100658773D01*
X81765204Y-100634505D01*
X81764000Y-100610001D01*
X81764000Y-97509999D01*
X81765204Y-97485495D01*
X81768804Y-97461227D01*
X81774765Y-97437428D01*
X81783030Y-97414329D01*
X81793520Y-97392150D01*
X81806132Y-97371107D01*
X81820747Y-97351401D01*
X81837223Y-97333223D01*
X81855401Y-97316747D01*
X81875107Y-97302132D01*
X81896150Y-97289520D01*
X81918329Y-97279030D01*
X81941428Y-97270765D01*
X81965227Y-97264804D01*
X81989495Y-97261204D01*
X82013999Y-97260000D01*
X83594001Y-97260000D01*
X83618505Y-97261204D01*
G37*
D14*
X56388000Y-104140000D03*
D15*
X53848000Y-104140000D03*
D10*
G36*
X85809779Y-105190144D02*
G01*
X85832834Y-105193563D01*
X85855443Y-105199227D01*
X85877387Y-105207079D01*
X85898457Y-105217044D01*
X85918448Y-105229026D01*
X85937168Y-105242910D01*
X85954438Y-105258562D01*
X85970090Y-105275832D01*
X85983974Y-105294552D01*
X85995956Y-105314543D01*
X86005921Y-105335613D01*
X86013773Y-105357557D01*
X86019437Y-105380166D01*
X86022856Y-105403221D01*
X86024000Y-105426500D01*
X86024000Y-105901500D01*
X86022856Y-105924779D01*
X86019437Y-105947834D01*
X86013773Y-105970443D01*
X86005921Y-105992387D01*
X85995956Y-106013457D01*
X85983974Y-106033448D01*
X85970090Y-106052168D01*
X85954438Y-106069438D01*
X85937168Y-106085090D01*
X85918448Y-106098974D01*
X85898457Y-106110956D01*
X85877387Y-106120921D01*
X85855443Y-106128773D01*
X85832834Y-106134437D01*
X85809779Y-106137856D01*
X85786500Y-106139000D01*
X85211500Y-106139000D01*
X85188221Y-106137856D01*
X85165166Y-106134437D01*
X85142557Y-106128773D01*
X85120613Y-106120921D01*
X85099543Y-106110956D01*
X85079552Y-106098974D01*
X85060832Y-106085090D01*
X85043562Y-106069438D01*
X85027910Y-106052168D01*
X85014026Y-106033448D01*
X85002044Y-106013457D01*
X84992079Y-105992387D01*
X84984227Y-105970443D01*
X84978563Y-105947834D01*
X84975144Y-105924779D01*
X84974000Y-105901500D01*
X84974000Y-105426500D01*
X84975144Y-105403221D01*
X84978563Y-105380166D01*
X84984227Y-105357557D01*
X84992079Y-105335613D01*
X85002044Y-105314543D01*
X85014026Y-105294552D01*
X85027910Y-105275832D01*
X85043562Y-105258562D01*
X85060832Y-105242910D01*
X85079552Y-105229026D01*
X85099543Y-105217044D01*
X85120613Y-105207079D01*
X85142557Y-105199227D01*
X85165166Y-105193563D01*
X85188221Y-105190144D01*
X85211500Y-105189000D01*
X85786500Y-105189000D01*
X85809779Y-105190144D01*
G37*
G36*
X87559779Y-105190144D02*
G01*
X87582834Y-105193563D01*
X87605443Y-105199227D01*
X87627387Y-105207079D01*
X87648457Y-105217044D01*
X87668448Y-105229026D01*
X87687168Y-105242910D01*
X87704438Y-105258562D01*
X87720090Y-105275832D01*
X87733974Y-105294552D01*
X87745956Y-105314543D01*
X87755921Y-105335613D01*
X87763773Y-105357557D01*
X87769437Y-105380166D01*
X87772856Y-105403221D01*
X87774000Y-105426500D01*
X87774000Y-105901500D01*
X87772856Y-105924779D01*
X87769437Y-105947834D01*
X87763773Y-105970443D01*
X87755921Y-105992387D01*
X87745956Y-106013457D01*
X87733974Y-106033448D01*
X87720090Y-106052168D01*
X87704438Y-106069438D01*
X87687168Y-106085090D01*
X87668448Y-106098974D01*
X87648457Y-106110956D01*
X87627387Y-106120921D01*
X87605443Y-106128773D01*
X87582834Y-106134437D01*
X87559779Y-106137856D01*
X87536500Y-106139000D01*
X86961500Y-106139000D01*
X86938221Y-106137856D01*
X86915166Y-106134437D01*
X86892557Y-106128773D01*
X86870613Y-106120921D01*
X86849543Y-106110956D01*
X86829552Y-106098974D01*
X86810832Y-106085090D01*
X86793562Y-106069438D01*
X86777910Y-106052168D01*
X86764026Y-106033448D01*
X86752044Y-106013457D01*
X86742079Y-105992387D01*
X86734227Y-105970443D01*
X86728563Y-105947834D01*
X86725144Y-105924779D01*
X86724000Y-105901500D01*
X86724000Y-105426500D01*
X86725144Y-105403221D01*
X86728563Y-105380166D01*
X86734227Y-105357557D01*
X86742079Y-105335613D01*
X86752044Y-105314543D01*
X86764026Y-105294552D01*
X86777910Y-105275832D01*
X86793562Y-105258562D01*
X86810832Y-105242910D01*
X86829552Y-105229026D01*
X86849543Y-105217044D01*
X86870613Y-105207079D01*
X86892557Y-105199227D01*
X86915166Y-105193563D01*
X86938221Y-105190144D01*
X86961500Y-105189000D01*
X87536500Y-105189000D01*
X87559779Y-105190144D01*
G37*
D15*
X63000000Y-105664000D03*
D14*
X65540000Y-105664000D03*
X68080000Y-105664000D03*
D15*
X62992000Y-96520000D03*
D14*
X65532000Y-96520000D03*
X68072000Y-96520000D03*
M02*
